<svg width="28" height="28" viewBox="0 0 28 28" fill="none" xmlns="http://www.w3.org/2000/svg">
<rect width="28" height="28" rx="4" fill="white"/>
<g clip-path="url(#clip0_0_4470)">
<path d="M11.2921 6.01692C11.5989 6.42559 11.8243 6.84919 11.8962 7.29724C12.9512 6.63603 14.2532 6.4894 15.7983 6.84783C15.7874 6.40658 15.8947 5.95447 16.0997 5.49285L15.3272 6.29525L15.2824 5L14.3252 6.16355L13.6327 5.05159L13.3531 5.8988L13.2865 6.35499L12.0049 5.48606L12.1895 6.56815L11.2907 6.01556L11.2921 6.01692ZM12.8235 8.01139C11.9207 7.43165 11.6939 7.96794 11.9112 9.23332C11.55 9.06361 11.3952 8.61964 11.4468 7.90005C10.8101 8.40648 10.324 8.98079 10.0403 9.6447L10.5698 9.71802C10.0104 10.42 9.63294 11.1993 9.58271 12.1184C9.86783 12.1483 10.1543 12.0085 10.4 11.8021C10.1774 12.9046 10.2697 13.988 10.6947 14.9533C11.2853 14.4781 11.7523 13.9215 12.108 13.2888C12.3837 14.1645 12.4067 15.0633 12.0347 15.9974C13.3164 16.6464 14.5994 16.6097 15.8811 15.7068C15.9816 15.9064 16.0237 16.1305 16.0359 16.3694C17.008 15.7272 17.6312 14.8108 17.7588 13.5196C17.9434 13.5074 18.0493 13.6594 18.1267 13.8726C18.6929 12.2447 18.4024 10.7716 17.4574 9.41797C17.4533 9.52251 17.4316 9.61348 17.3841 9.68272C17.2374 9.57818 17.1356 9.44784 17.0677 9.29985C17.3271 9.27677 17.0039 8.47708 16.7365 9.06089L16.2504 8.7622C16.4853 9.13013 16.8043 9.46141 17.1859 9.80084C16.7134 9.72073 16.2938 9.74382 15.9191 9.85922C15.7589 9.57275 15.539 9.34058 15.2715 9.15186C15.2878 8.97807 15.3611 8.81922 15.4561 8.6658C15.2986 8.7975 15.1384 8.90883 14.9524 8.9129C14.3768 8.50016 13.9735 8.57348 13.535 8.91698C13.7794 9.2211 14.2206 9.26591 14.856 9.22653C15.1493 9.40711 15.3855 9.63249 15.5512 9.91082L15.4996 9.9692L15.2647 9.89588L13.8948 9.88909C13.5811 9.80899 13.334 9.64742 13.2472 9.29306L13.1331 9.31207L13.1915 9.0541L12.7272 9.0093L13.5486 8.43906L13.2689 8.35081C13.4006 8.06162 14.4093 7.54162 14.7556 7.68418C15.0095 7.78872 15.4493 8.01682 15.7508 8.28429C15.839 8.12272 15.8865 7.92857 15.8974 7.70862C16.3346 7.96658 16.7487 8.31823 17.156 8.69567C17.0148 8.38883 16.8885 8.07791 16.8953 7.72219C16.4405 7.40042 15.9639 7.16282 15.4602 7.03791C15.5512 7.20491 15.539 7.37463 15.5118 7.53076C15.3584 7.25922 15.038 7.0447 14.7583 6.9293C13.7495 6.90757 13.0068 7.09222 12.2139 7.44251C12.5398 7.50904 12.7339 7.70726 12.8249 8.01003L12.8235 8.01139ZM16.0332 10.2869C16.1771 10.4444 16.3522 10.5435 16.5409 10.6182L16.5342 11.1925C16.1893 11.5726 15.7983 11.8578 15.3489 12.0017C15.2443 12.0343 15.1221 12.0098 15.0692 11.9134L14.5831 11.0445C14.5492 10.9834 14.6089 10.8992 14.6782 10.8598L15.7236 10.2855C15.8214 10.2326 15.9571 10.2027 16.0332 10.2855V10.2869ZM15.3815 12.4456C15.7888 12.3533 16.1119 12.1931 16.397 11.9161L16.898 11.8863C17.437 12.113 16.9958 13.3078 16.4744 13.3811C16.5545 13.153 16.564 12.91 16.507 12.652C16.2775 12.9045 16.0033 13.0539 15.6747 13.0715L15.3801 12.4456H15.3815ZM18.12 21.1906C18.1335 21.12 18.1661 21.0644 18.2028 21.0223C18.2489 20.9734 18.3209 20.9204 18.4431 20.9204C18.5381 20.9204 18.6142 20.9557 18.6671 21.0087C18.7363 21.0793 18.7594 21.177 18.7621 21.1906H18.12ZM19.2007 21.4391C19.2007 21.2463 19.1681 21.0005 18.993 20.8037C18.811 20.6 18.5748 20.5688 18.4091 20.5688C18.2435 20.5688 18.0236 20.6041 17.8457 20.7928C17.6977 20.9544 17.6217 21.1852 17.6217 21.4106C17.6217 21.6699 17.714 21.8776 17.843 22.0134C18.014 22.1953 18.2082 22.2374 18.4295 22.2374C18.5938 22.2374 18.7526 22.213 18.8938 22.122C18.9536 22.0826 19.0364 22.0134 19.1043 21.8993L18.8585 21.6292C18.7255 21.8097 18.6304 21.8545 18.4363 21.8545C18.3643 21.8545 18.2639 21.841 18.1919 21.7568C18.1322 21.6875 18.1023 21.5749 18.1023 21.4907H19.1993V21.4377L19.2007 21.4391ZM10.9241 21.1906C10.9377 21.12 10.9703 21.0644 11.0069 21.0223C11.0531 20.9734 11.1251 20.9204 11.2473 20.9204C11.3423 20.9204 11.4183 20.9557 11.4713 21.0087C11.5405 21.0793 11.5636 21.177 11.5663 21.1906H10.9241ZM12.0049 21.4391C12.0049 21.2463 11.9723 21.0005 11.7971 20.8037C11.6152 20.6 11.379 20.5688 11.2133 20.5688C11.0477 20.5688 10.8277 20.6041 10.6499 20.7928C10.5019 20.9544 10.4258 21.1852 10.4258 21.4106C10.4258 21.6699 10.5182 21.8776 10.6471 22.0134C10.8182 22.1953 11.0137 22.2374 11.2337 22.2374C11.398 22.2374 11.5568 22.213 11.698 22.122C11.7577 22.0826 11.8406 22.0134 11.9085 21.8993L11.6627 21.6292C11.5297 21.8097 11.4346 21.8545 11.2405 21.8545C11.1685 21.8545 11.0694 21.841 10.9961 21.7568C10.9363 21.6875 10.9065 21.5749 10.9065 21.4907H12.0035V21.4377L12.0049 21.4391ZM15.9531 20.6584V21.6115C15.9531 21.7853 15.9788 21.9441 16.1105 22.0867C16.2748 22.2632 16.5138 22.2917 16.6916 22.2917C16.8695 22.2917 17.1044 22.2632 17.27 22.0867C17.4153 21.9306 17.4316 21.7609 17.4316 21.5803V20.6584H16.9673V21.53C16.9673 21.6074 16.9578 21.7147 16.8899 21.7853C16.8478 21.8274 16.7799 21.86 16.693 21.86C16.5898 21.86 16.5314 21.8179 16.4989 21.7853C16.4242 21.7106 16.4187 21.6006 16.4187 21.53V20.6584H15.9544H15.9531ZM15.3068 20.843C15.2498 20.7575 15.1221 20.6054 14.8357 20.6054C14.5492 20.6054 14.3578 20.7331 14.2614 20.8322C14.1269 20.9707 14.0278 21.1933 14.0278 21.4635C14.0278 21.7337 14.131 21.9279 14.2586 22.0595C14.4039 22.2048 14.5913 22.2822 14.8357 22.2822C15.1262 22.2822 15.2471 22.1437 15.3068 22.0446V22.2252C15.3068 22.6719 14.5573 22.7017 14.3455 22.3555L14.0876 22.718C14.6727 23.219 15.729 23.067 15.729 22.1437V20.6584H15.3068V20.843ZM14.894 21.0331C14.9864 21.0331 15.0963 21.0644 15.171 21.1322C15.2389 21.1947 15.2919 21.2992 15.2919 21.4228C15.2919 21.5395 15.2457 21.6495 15.1683 21.7242C15.1154 21.7744 15.0271 21.8274 14.8913 21.8274C14.7705 21.8274 14.6755 21.788 14.6049 21.7147C14.5343 21.64 14.4949 21.5341 14.4949 21.4309C14.4949 21.3359 14.537 21.211 14.6157 21.1363C14.6795 21.0752 14.7827 21.0331 14.8954 21.0331H14.894ZM13.4291 20.8363C13.2892 20.638 13.0815 20.6054 12.9525 20.6054C12.7407 20.6054 12.5574 20.6828 12.4244 20.8213C12.2845 20.9666 12.1895 21.1933 12.1895 21.4594C12.1895 21.6685 12.2506 21.8735 12.4108 22.0514C12.5778 22.2361 12.7625 22.2931 12.9797 22.2931C13.1059 22.2931 13.296 22.2618 13.4291 22.0487V22.2401H13.8785V20.6598H13.4291V20.8376V20.8363ZM13.0136 21.0453C13.1019 21.0453 13.2119 21.0806 13.2865 21.1553C13.3585 21.2259 13.3992 21.3318 13.3992 21.4459C13.3992 21.5803 13.3436 21.6794 13.2797 21.7432C13.2146 21.8097 13.1236 21.8532 13.0245 21.8532C12.9091 21.8532 12.8032 21.8043 12.7353 21.7296C12.6905 21.6807 12.6335 21.5884 12.6335 21.4459C12.6335 21.3033 12.6946 21.2123 12.7462 21.1594C12.8113 21.0915 12.9091 21.0453 13.015 21.0453H13.0136ZM8.80067 19.8764V22.2401H10.2996V21.7799H9.34647V19.8764H8.80067ZM17.0256 18.6503C17.0392 18.5797 17.0718 18.5241 17.1085 18.482C17.1546 18.4331 17.2266 18.3802 17.3488 18.3802C17.4438 18.3802 17.5198 18.4155 17.5728 18.4684C17.642 18.539 17.6651 18.6368 17.6678 18.6503H17.0256ZM18.1064 18.8988C18.1064 18.706 18.0738 18.4603 17.8986 18.2634C17.7167 18.0598 17.4805 18.0285 17.3148 18.0285C17.1492 18.0285 16.9292 18.0638 16.7514 18.2525C16.6034 18.4141 16.5274 18.6449 16.5274 18.8703C16.5274 19.1296 16.6197 19.3373 16.7487 19.4731C16.9197 19.6551 17.1139 19.6971 17.3352 19.6971C17.4995 19.6971 17.6583 19.6727 17.7995 19.5817C17.8593 19.5424 17.9421 19.4731 18.01 19.3591L17.7642 19.0889C17.6312 19.2695 17.5361 19.3143 17.342 19.3143C17.27 19.3143 17.1696 19.3007 17.0976 19.2165C17.0379 19.1473 17.008 19.0346 17.008 18.9504H18.105V18.8975L18.1064 18.8988ZM18.2707 19.6455H18.6807V19.0101C18.6807 18.8771 18.6888 18.7087 18.7812 18.5893C18.8803 18.4603 19.0622 18.3992 19.1993 18.4508L19.1939 18.0665C19.1477 18.0489 19.1111 18.0421 19.0595 18.0421C18.9794 18.0421 18.9088 18.0557 18.8395 18.1086C18.7744 18.1575 18.7173 18.239 18.6793 18.3259V18.0801H18.2693V19.6442L18.2707 19.6455ZM16.1146 17.3293C16.2409 17.3293 16.3427 17.4311 16.3427 17.5574C16.3427 17.6837 16.2409 17.7855 16.1146 17.7855C15.9884 17.7855 15.8865 17.6837 15.8865 17.5574C15.8865 17.4311 15.9884 17.3293 16.1146 17.3293ZM15.911 18.0815V19.6455H16.3183V18.0815H15.911ZM13.3734 19.6455H13.8269V18.8459C13.8269 18.7929 13.8296 18.6178 13.9151 18.5268C13.9586 18.4806 14.0129 18.463 14.0726 18.463C14.1202 18.463 14.1758 18.4739 14.2233 18.5268C14.2926 18.6042 14.2953 18.7264 14.2953 18.8323V19.6455H14.7488V18.8662C14.7488 18.7644 14.7583 18.6422 14.818 18.558C14.856 18.5024 14.9185 18.463 14.9945 18.463C15.061 18.463 15.1208 18.4942 15.1588 18.5472C15.2185 18.6313 15.2185 18.7712 15.2185 18.8527V19.6455H15.672V18.6558C15.672 18.5431 15.6625 18.3327 15.5267 18.1887C15.4412 18.0978 15.3027 18.0407 15.133 18.0407C15.023 18.0407 14.9321 18.0625 14.8343 18.129C14.7433 18.1928 14.689 18.2661 14.6551 18.3286C14.6171 18.2335 14.5573 18.1561 14.4854 18.1113C14.3903 18.0475 14.2804 18.0407 14.2206 18.0407C14.1134 18.0407 13.9437 18.0652 13.8269 18.262V18.0801H13.3734V19.6442V19.6455ZM12.0985 18.649C12.1121 18.5784 12.1447 18.5227 12.1814 18.4806C12.2275 18.4318 12.2995 18.3788 12.4217 18.3788C12.5167 18.3788 12.5927 18.4141 12.6457 18.4671C12.7149 18.5377 12.738 18.6354 12.7407 18.649H12.0985ZM13.1793 18.8975C13.1793 18.7047 13.1467 18.4589 12.9715 18.262C12.7896 18.0584 12.5534 18.0272 12.3877 18.0272C12.2221 18.0272 12.0021 18.0625 11.8243 18.2512C11.6763 18.4128 11.6003 18.6436 11.6003 18.8689C11.6003 19.1283 11.6926 19.336 11.8216 19.4718C11.9926 19.6537 12.1868 19.6958 12.4081 19.6958C12.5724 19.6958 12.7312 19.6713 12.8724 19.5804C12.9322 19.541 13.015 19.4718 13.0829 19.3577L12.8371 19.0875C12.7041 19.2681 12.609 19.3129 12.4149 19.3129C12.3429 19.3129 12.2425 19.2993 12.1705 19.2152C12.1108 19.1459 12.0809 19.0332 12.0809 18.949H13.1779V18.8961L13.1793 18.8975ZM10.6064 19.6442H11.0164V19.0088C11.0164 18.8757 11.0246 18.7074 11.1156 18.5879C11.2147 18.4589 11.3966 18.3978 11.5337 18.4494L11.5283 18.0652C11.4821 18.0475 11.4455 18.0407 11.3939 18.0407C11.3138 18.0407 11.2432 18.0543 11.1739 18.1073C11.1088 18.1561 11.0517 18.2376 11.0137 18.3245V18.0788H10.6037V19.6428L10.6064 19.6442ZM8.79932 17.2764V19.6157H9.33425V18.7943H9.66145C9.82438 18.7943 10.0674 18.7766 10.2521 18.5879C10.3389 18.4969 10.4503 18.3313 10.4503 18.0367C10.4503 17.8751 10.4218 17.6443 10.2249 17.4691C10.0403 17.3049 9.81895 17.2764 9.61665 17.2764H8.80067H8.79932ZM9.33425 17.719H9.51482C9.61937 17.719 9.73342 17.7298 9.81352 17.8072C9.86511 17.8561 9.90041 17.9376 9.90041 18.0353C9.90041 18.1331 9.8624 18.2172 9.81352 18.2661C9.72663 18.3503 9.59764 18.3544 9.52568 18.3544H9.33425V17.719ZM16.9279 10.629L17.3474 10.2978C17.6407 10.7757 17.5959 11.3092 17.399 11.8659L16.9089 11.2427L16.9279 10.629Z" fill="#2F083B"/>
</g>
<defs>
<clipPath id="clip0_0_4470">
<rect width="18" height="18" fill="white" transform="translate(5 5)"/>
</clipPath>
</defs>
</svg>
