<svg width="28" height="28" viewBox="0 0 28 28" fill="none" xmlns="http://www.w3.org/2000/svg">
<g clip-path="url(#clip0_0_2584)">
<path d="M12.8746 27.9923C9.55083 27.7257 6.43062 26.2843 4.07283 23.9265C1.71503 21.5688 0.27371 18.4485 0.00702436 15.1248C0.0309078 15.1248 0.0533862 15.1332 0.0772696 15.1304C0.501432 15.0784 0.928397 15.0526 1.35574 15.0532C7.74666 15.0532 12.9462 20.2527 12.9462 26.6436C12.9462 27.0778 12.9209 27.4992 12.8689 27.9221C12.8661 27.946 12.876 27.9685 12.8746 27.9923ZM15.1294 0.0782465C15.0774 0.502409 15.0516 0.929374 15.0522 1.35671C15.0522 7.74763 20.2517 12.9472 26.6427 12.9472C27.0768 12.9472 27.4982 12.9219 27.9211 12.8699C27.945 12.8671 27.9675 12.8769 27.9914 12.8755C27.7247 9.55181 26.2834 6.43159 23.9256 4.0738C21.5678 1.71601 18.4476 0.274687 15.1238 0.00800092C15.1238 0.0318843 15.1323 0.0543631 15.1294 0.0782465ZM26.6427 15.0546C19.0899 15.0546 12.9448 8.90949 12.9448 1.35671C12.9448 0.895902 12.9785 0.449142 13.0263 0.000976562C9.64848 0.234382 6.4691 1.68173 4.07493 4.0759C1.68075 6.47007 0.233406 9.64946 0 13.0273C0.448165 12.9795 0.894926 12.9458 1.35574 12.9458C8.90851 12.9458 15.0536 19.0909 15.0536 26.6436C15.0536 27.1044 15.0199 27.5512 14.9721 27.9994C18.3502 27.7657 21.5298 26.3181 23.9241 23.9237C26.3185 21.5293 27.7661 18.3498 27.9998 14.9717C27.5497 15.023 27.0971 15.0502 26.6441 15.0532L26.6427 15.0546Z" fill="white"/>
</g>
<defs>
<clipPath id="clip0_0_2584">
<rect width="28" height="28" fill="white"/>
</clipPath>
</defs>
</svg>
