<svg width="28" height="28" viewBox="0 0 28 28" fill="none" xmlns="http://www.w3.org/2000/svg">
<g clip-path="url(#clip0_0_2576)">
<path d="M9.12761 6.03619L12.0094 9.92731H16.003L18.8848 6.03619L17.0974 0.344368C16.0811 0.115071 15.0425 -0.000428833 14.0007 1.19637e-06C12.9629 -0.000400009 11.9284 0.114214 10.9159 0.341743L9.12761 6.03619ZM24.195 17.4625L25.576 21.876C26.9704 19.8307 27.8369 17.3968 27.9793 14.7702L24.195 17.4625ZM12.1922 11.5679L11.071 15.0184L14.0063 17.151L16.9415 15.0184L15.8203 11.5679H12.1922ZM20.3966 5.37436L25.0633 5.42002C23.5044 3.41294 21.4114 1.84182 18.9975 0.919189L20.3966 5.37436ZM17.3271 10.8961L18.5589 14.687L23.1006 16.2276L27.9471 12.7795C27.7689 10.7163 27.1439 8.78112 26.1682 7.07148L20.2028 7.01313L17.3271 10.8961ZM0.0214844 14.7614C0.162742 17.3965 1.03277 19.8377 2.43342 21.8878L3.81811 17.4626L0.0214844 14.7614ZM22.576 17.7822L18.0444 16.245L14.8265 18.5829V23.3278L19.6329 26.8198C21.4337 26.0275 23.0362 24.8676 24.3445 23.434L22.576 17.7822ZM14.0063 24.7597L10.2477 27.4905C11.4422 27.8221 12.7006 28 14.0007 28C15.3037 28 16.5649 27.8213 17.7618 27.4883L14.0063 24.7597ZM13.1859 23.3278V18.5829L9.96827 16.2451L5.43713 17.7822L3.6657 23.4434C4.97399 24.8744 6.57573 26.0322 8.37538 26.8229L13.1859 23.3278ZM7.61588 5.37436L9.01654 0.914321C6.59722 1.83635 4.49963 3.40944 2.93791 5.42013L7.61588 5.37436ZM9.4536 14.6873L10.6854 10.8962L7.80964 7.01324L1.83301 7.07164C0.858641 8.77909 0.234 10.7115 0.0548984 12.7717L4.91252 16.2277L9.4536 14.6873Z" fill="white"/>
</g>
<defs>
<clipPath id="clip0_0_2576">
<rect width="28" height="28" fill="white"/>
</clipPath>
</defs>
</svg>
