<svg width="175" height="36" viewBox="0 0 175 36" fill="none" xmlns="http://www.w3.org/2000/svg">
<rect width="36" height="36" rx="10" fill="#228D57"/>
<g clip-path="url(#clip0_0_2483)">
<path d="M30.4187 17.419L11.6086 5.50842L21.05 16.4023L12.6254 24.5364L30.4187 17.419Z" fill="white"/>
<path d="M15.603 15.676L10.0835 10.6648L5.65332 30.5643L15.603 15.676Z" fill="white"/>
</g>
<path d="M52.576 23.178V19.812H63.972V23.178H52.576ZM61.068 10L68.68 26.5H64.258L57.724 11.738H59L52.488 26.5H48.044L55.678 10H61.068ZM74.5179 10V24.652L72.6479 22.826H85.0119V26.5H70.3599V10H74.5179ZM91.1683 10V24.652L89.2983 22.826H101.662V26.5H87.0103V10H91.1683ZM114.551 18.404L114.903 17.59C116.193 17.6193 117.249 17.8173 118.071 18.184C118.907 18.5507 119.523 19.0567 119.919 19.702C120.329 20.3327 120.535 21.0587 120.535 21.88C120.535 22.7747 120.329 23.574 119.919 24.278C119.508 24.9673 118.892 25.51 118.071 25.906C117.264 26.302 116.252 26.5 115.035 26.5H103.155L104.431 18.03L103.155 10H114.617C116.142 10 117.323 10.3593 118.159 11.078C119.009 11.782 119.435 12.7573 119.435 14.004C119.435 14.6933 119.273 15.3533 118.951 15.984C118.628 16.6147 118.115 17.15 117.411 17.59C116.707 18.0153 115.753 18.2867 114.551 18.404ZM107.247 25.488L105.663 23.53H114.045C114.763 23.53 115.321 23.3613 115.717 23.024C116.127 22.672 116.333 22.1807 116.333 21.55C116.333 20.9193 116.105 20.4207 115.651 20.054C115.211 19.6727 114.551 19.482 113.671 19.482H106.807V16.578H113.143C113.744 16.578 114.243 16.4093 114.639 16.072C115.035 15.72 115.233 15.2433 115.233 14.642C115.233 14.158 115.057 13.762 114.705 13.454C114.367 13.1313 113.883 12.97 113.253 12.97H105.685L107.247 11.012L108.413 18.03L107.247 25.488ZM136.771 16.71V19.79H124.825V16.71H136.771ZM127.641 18.25L126.541 25.07L124.803 23.09H137.475V26.5H122.383L123.659 18.25L122.383 10H137.365V13.41H124.803L126.541 11.43L127.641 18.25ZM145.205 11.848H149.363V26.5H145.205V11.848ZM138.781 10H155.787V13.674H138.781V10ZM156.58 21.11H160.782C160.855 21.6087 161.082 22.0487 161.464 22.43C161.845 22.8113 162.351 23.1047 162.982 23.31C163.627 23.5153 164.375 23.618 165.226 23.618C166.443 23.618 167.396 23.4493 168.086 23.112C168.79 22.7747 169.142 22.298 169.142 21.682C169.142 21.2127 168.936 20.8533 168.526 20.604C168.13 20.34 167.382 20.1493 166.282 20.032L163.092 19.702C160.877 19.482 159.271 18.9687 158.274 18.162C157.291 17.3553 156.8 16.2553 156.8 14.862C156.8 13.762 157.122 12.8233 157.768 12.046C158.428 11.2687 159.344 10.6747 160.518 10.264C161.706 9.85333 163.092 9.648 164.676 9.648C166.245 9.648 167.631 9.87533 168.834 10.33C170.036 10.7847 170.997 11.4153 171.716 12.222C172.434 13.0287 172.823 13.9747 172.882 15.06H168.68C168.621 14.6053 168.416 14.224 168.064 13.916C167.726 13.5933 167.264 13.344 166.678 13.168C166.106 12.9773 165.416 12.882 164.61 12.882C163.495 12.882 162.608 13.0433 161.948 13.366C161.302 13.674 160.98 14.1213 160.98 14.708C160.98 15.148 161.17 15.4927 161.552 15.742C161.948 15.9913 162.644 16.1747 163.642 16.292L167.008 16.666C168.548 16.8273 169.78 17.084 170.704 17.436C171.628 17.788 172.295 18.272 172.706 18.888C173.116 19.504 173.322 20.2813 173.322 21.22C173.322 22.3493 172.977 23.3393 172.288 24.19C171.613 25.026 170.66 25.6787 169.428 26.148C168.21 26.6173 166.788 26.852 165.16 26.852C163.473 26.852 161.992 26.61 160.716 26.126C159.454 25.642 158.457 24.9747 157.724 24.124C157.005 23.2587 156.624 22.254 156.58 21.11Z" fill="url(#paint0_linear_0_2483)"/>
<defs>
<linearGradient id="paint0_linear_0_2483" x1="185" y1="4.99999" x2="48" y2="22.5" gradientUnits="userSpaceOnUse">
<stop stop-color="white"/>
<stop offset="0.401042" stop-color="#E6F2EC"/>
<stop offset="1" stop-color="#228D57"/>
</linearGradient>
<clipPath id="clip0_0_2483">
<rect width="26" height="26" fill="white" transform="translate(5 5)"/>
</clipPath>
</defs>
</svg>
