<svg width="282" height="208" viewBox="0 0 282 208" fill="none" xmlns="http://www.w3.org/2000/svg">
<path d="M110.416 73.081L145.358 120.191H193.783L228.726 73.081L207.053 4.16932C194.73 1.39318 182.136 -0.00519194 169.503 1.44847e-05C156.921 -0.00484297 144.376 1.3828 132.1 4.13754L110.416 73.081ZM293.114 211.421L309.86 264.856C326.768 240.093 337.273 210.626 339 178.825L293.114 211.421ZM147.575 140.054L133.981 181.83L169.572 207.65L205.162 181.83L191.567 140.054H147.575ZM247.057 65.0682L303.642 65.621C284.74 41.3209 259.361 22.2992 230.092 11.1287L247.057 65.0682ZM209.838 131.921L224.773 177.818L279.844 196.47L338.61 154.724C336.449 129.744 328.87 106.314 317.04 85.6154L244.707 84.9089L209.838 131.921ZM0 178.719C1.71281 210.622 12.2622 240.178 29.2458 264.999L46.0357 211.422L0 178.719ZM273.483 215.292L218.536 196.681L179.518 224.986V282.433L237.796 324.712C259.632 315.119 279.064 301.075 294.926 283.719L273.483 215.292ZM169.572 299.769L123.997 332.831C138.48 336.846 153.739 339 169.503 339C185.303 339 200.596 336.836 215.109 332.805L169.572 299.769ZM159.624 282.433V224.986L120.609 196.682L65.667 215.292L44.1876 283.833C60.0512 301.158 79.473 315.176 101.295 324.748L159.624 282.433ZM92.0853 65.0682L109.069 11.0698C79.7336 22.233 54.2994 41.2786 35.3629 65.6223L92.0853 65.0682ZM114.368 177.821L129.304 131.921L94.4347 84.9102L21.9655 85.6174C10.1509 106.29 2.57684 129.686 0.40516 154.629L59.3058 196.471L114.368 177.821Z" fill="url(#paint0_linear_0_5301)"/>
<defs>
<linearGradient id="paint0_linear_0_5301" x1="848.084" y1="44.4207" x2="-138.522" y2="137.353" gradientUnits="userSpaceOnUse">
<stop stop-color="white"/>
<stop offset="1" stop-color="white" stop-opacity="0"/>
</linearGradient>
</defs>
</svg>
