<svg width="26" height="26" viewBox="0 0 26 26" fill="none" xmlns="http://www.w3.org/2000/svg">
<rect width="26" height="26" rx="4" fill="white"/>
<g clip-path="url(#clip0_0_4637)">
<path d="M4.13416 18.3239H21.8805V4.12866H4.13416V18.3239Z" fill="#D10214"/>
<path d="M19.9073 9.17058C19.3622 9.17058 18.9197 9.61317 18.9197 10.1561C18.9197 10.7012 19.3622 11.1438 19.9073 11.1438C20.4503 11.1438 20.8928 10.7012 20.8928 10.1561C20.8928 9.61314 20.4502 9.17058 19.9073 9.17058ZM18.7619 11.6027C18.7721 11.6376 18.7393 11.6601 18.6758 11.7093L18.6369 11.7298L18.6512 11.7565C18.6594 11.7708 18.6451 11.7974 18.6184 11.8097L18.559 11.8405C18.5324 11.8527 18.5037 11.8507 18.4955 11.8343L18.4832 11.8097L18.4095 11.8466L18.4217 11.8712C18.4299 11.8876 18.4135 11.9122 18.3869 11.9245L18.3275 11.9532C18.2988 11.9654 18.2701 11.9614 18.2619 11.945L18.2517 11.9224C18.0242 12.029 17.7702 12.1417 17.5079 12.2646L17.5222 12.2994C17.5304 12.3138 17.514 12.3384 17.4874 12.3527L17.4279 12.3793C17.4013 12.3916 17.3726 12.3875 17.3644 12.3712L17.3501 12.3384L17.264 12.3793L17.2804 12.4121C17.2886 12.4306 17.2722 12.4551 17.2456 12.4675L17.1862 12.4941C17.1595 12.5064 17.1308 12.5043 17.1226 12.4859L17.1083 12.4531C16.9874 12.5023 16.8583 12.5208 16.7641 12.3445C16.7231 12.2626 16.7211 12.0741 16.6903 11.9737C16.674 11.9204 16.6125 11.9122 16.6125 11.9122C15.4568 11.6909 15.0655 11.9368 14.3237 11.7544C14.0922 11.6971 13.9651 11.4819 13.6783 11.4799C13.0533 11.4614 12.8669 11.4696 12.1887 11.443C12.16 11.5434 12.1559 11.5639 12.1559 11.5639L9.77084 11.5516L10.1335 11.7319L10.2524 12.7831C10.2524 12.7831 10.156 12.8118 10.1274 12.8158C10.1499 13.0269 10.1724 13.3096 10.1847 13.5637C10.195 13.7932 10.2073 14.033 10.2052 14.1866C10.2031 14.2337 10.2031 14.3464 10.1376 14.4694C10.0946 14.5514 10.0188 14.619 9.95731 14.664C9.9368 14.6804 9.84462 14.7419 9.73807 14.8054C9.62742 14.8689 9.50448 14.9345 9.43891 14.9673C9.44505 14.996 9.46556 15.0247 9.4717 15.0472C8.02102 15.7479 6.22404 15.9877 5.64211 17.1024C5.57449 17.2314 5.33681 17.1638 5.33066 17.0245C5.32856 16.961 5.32856 16.8565 5.33276 16.8012L5.3102 16.7991C5.29174 16.7991 5.27742 16.7724 5.27946 16.7437L5.28156 16.6782C5.28366 16.6474 5.30003 16.6249 5.31844 16.6249L5.34304 16.627C5.35122 16.5614 5.36355 16.4979 5.37991 16.4365L5.35736 16.4283C5.34099 16.4221 5.3348 16.3934 5.34508 16.3647L5.36559 16.3033C5.37787 16.2746 5.39838 16.2582 5.41684 16.2643L5.4394 16.2705C5.54185 16.0287 5.74265 15.9222 5.83485 15.6947L5.82053 15.6886C5.80207 15.6824 5.79593 15.6537 5.80621 15.625L5.82672 15.5636C5.83899 15.5369 5.86155 15.5185 5.87797 15.5247L5.89434 15.5289C5.90866 15.4961 5.92507 15.4592 5.94348 15.4244L5.92297 15.41C5.90661 15.3998 5.90661 15.3711 5.92297 15.3465L5.9578 15.2912C5.97417 15.2666 6.00082 15.2543 6.01517 15.2645L6.02335 15.2687L6.03358 15.2708C6.03778 15.2708 6.03972 15.2687 6.04381 15.2666C6.05404 15.2564 6.06432 15.2461 6.07455 15.2379C6.1688 15.1642 6.2856 15.1765 6.3819 15.2337C6.47206 15.2891 6.82858 15.4919 7.17076 15.1825C7.73627 14.6764 8.39809 13.9859 8.89604 13.9634C8.7608 13.6703 8.52722 13.0618 8.50058 12.8364L8.33256 12.8016C8.24651 12.6151 8.03341 11.7504 7.97399 11.1009C7.97399 11.1009 7.90432 10.4002 7.97189 10.1543C7.93297 10.1501 7.8633 10.2075 7.84281 10.2075C7.75265 9.98419 8.0477 8.09711 8.34071 7.54796L8.78944 7.3697C8.74234 7.36356 8.41858 7.34919 7.56621 7.27955C7.09084 7.69959 6.53968 8.15447 6.26099 8.40237C6.21388 8.4372 6.13395 8.70562 6.13395 8.70562C6.13395 8.70562 5.99257 8.83061 5.86348 8.92076C5.68932 9.0437 5.26723 9.13591 5.17706 8.99248C5.15451 8.95765 5.1586 8.94123 5.17916 8.92076C5.24473 8.85315 5.49061 8.7343 5.57462 8.57858C5.44143 8.64619 5.28981 8.71791 5.17097 8.70562C5.11972 8.70352 5.09515 8.57653 5.16074 8.55399C5.339 8.47818 5.48243 8.44539 5.58693 8.29582C5.68938 8.15443 5.81232 8.05813 5.97624 8.05404C5.97624 8.05404 6.7692 7.01929 7.23635 6.52753C7.36544 6.3923 7.60517 6.43737 7.60517 6.43737L7.64614 6.2796C7.64614 6.2796 9.24846 6.08904 9.99431 6.33697C9.97585 5.88209 10.1808 5.28174 10.8877 5.28174C11.2524 5.28174 11.7892 5.60342 11.861 5.99479C11.8835 6.11568 11.8139 6.19559 11.777 6.34722C11.7134 6.57876 11.8016 6.83284 11.7749 6.91274C11.7543 6.98036 11.6785 6.97421 11.615 7.06437C11.5454 7.16067 11.4675 7.34098 11.4675 7.34098L11.3712 7.55818L10.8712 7.5213C10.6889 7.9147 10.3139 8.71997 10.1828 9.51497C10.5762 9.5498 12.3527 9.80593 12.3527 9.80593L12.3957 9.95144C12.3957 9.95144 13.1456 10.0416 13.7582 10.3325C13.8955 10.3653 14.2397 10.3141 14.4652 10.4186C14.4815 10.4084 14.5184 10.3715 14.5328 10.3612C15.3319 10.6071 15.9916 11.0251 16.7641 11.2116C16.7641 11.2116 17.1227 11.2997 17.2456 11.3243C17.5305 11.3796 17.7128 11.3919 17.8624 11.4042C18.1103 11.4226 18.2476 11.4185 18.4279 11.4288C18.555 11.437 18.7107 11.4163 18.7619 11.6027Z" fill="white"/>
<path d="M20.9563 20.2647L20.6797 21.1273H21.2289L20.9563 20.2647ZM21.3251 21.4716H20.5772L20.4441 21.8711H19.9687L20.651 19.9635H21.2596L21.9378 21.8711H21.4584L21.3251 21.4716ZM19.77 20.7688V21.8056C19.5917 21.8671 19.3561 21.906 19.1102 21.906C18.4463 21.906 18.1349 21.611 18.1349 20.9164C18.1349 20.2259 18.4463 19.9287 19.1102 19.9287C19.3458 19.9287 19.5692 19.9656 19.7392 20.0353V20.4041C19.5528 20.3406 19.3458 20.3037 19.1471 20.3037C18.7475 20.3037 18.6225 20.4656 18.6225 20.9164C18.6225 21.3877 18.7537 21.5434 19.1307 21.5434C19.2167 21.5434 19.3007 21.5372 19.3807 21.527V21.1008H19.0262V20.7689L19.77 20.7688ZM17.3194 19.9635H17.7968V21.8711H17.3194V19.9635ZM15.7273 19.9635H16.2026V21.5085H17.0222V21.8711H15.7272L15.7273 19.9635ZM13.9856 21.7974V21.4265C14.2151 21.5023 14.42 21.5289 14.6228 21.5289C14.8421 21.5289 14.9384 21.4716 14.9384 21.324C14.9384 21.195 14.8974 21.1581 14.7212 21.1212L14.4036 21.0556C14.0737 20.988 13.963 20.8528 13.963 20.527C13.963 20.109 14.2089 19.9287 14.7048 19.9287C14.9302 19.9287 15.1412 19.9656 15.3134 20.0312V20.4041C15.1085 20.3344 14.9179 20.3037 14.7335 20.3037C14.4979 20.3037 14.418 20.3651 14.418 20.5147C14.418 20.6377 14.4733 20.6725 14.627 20.7053L14.9343 20.7708C15.2949 20.8487 15.3933 20.9696 15.3933 21.3098C15.3933 21.7196 15.1413 21.906 14.627 21.906C14.4016 21.906 14.1844 21.8691 13.9856 21.7974ZM12.3485 19.9635H13.6844V20.3283H12.8239V20.7299H13.539V21.0884H12.8239V21.5085H13.7029V21.8712H12.3485L12.3485 19.9635ZM11.1436 21.5085C11.4223 21.5085 11.5145 21.363 11.5145 20.9163C11.5145 20.4737 11.4223 20.3283 11.1436 20.3283H10.783V21.5085H11.1436ZM10.3056 19.9635H11.158C11.826 19.9635 12.0002 20.2381 12.0002 20.9163C12.0002 21.5761 11.8096 21.8712 11.158 21.8712H10.3056V19.9635ZM9.91427 19.9635V21.8712H9.33438L8.52297 20.4922V21.8712H8.08038V19.9635H8.66027L9.46964 21.3446V19.9635H9.91427ZM6.02115 21.2503V19.9635H6.49652V21.236C6.49652 21.447 6.59282 21.527 6.851 21.527C7.10712 21.527 7.20343 21.447 7.20343 21.236V19.9635H7.68084V21.2503C7.68084 21.699 7.42062 21.906 6.85102 21.906C6.28141 21.906 6.02115 21.699 6.02115 21.2503ZM5.24664 21.3056C5.24664 21.1294 5.17697 21.0557 5.0151 21.0557H4.58686V21.5495H5.0151C5.18517 21.5495 5.24664 21.4778 5.24664 21.3056ZM4.58687 20.7606H4.98643C5.14625 20.7606 5.21797 20.6909 5.21797 20.527C5.21797 20.3549 5.15035 20.2873 4.98643 20.2873H4.58687V20.7606ZM5.70971 21.3507C5.70971 21.6908 5.55194 21.8712 5.12164 21.8712H4.13403V19.9635H5.08477C5.5294 19.9635 5.68307 20.1398 5.68307 20.4615C5.68307 20.7094 5.59086 20.82 5.32654 20.8856L5.27739 20.9L5.3204 20.9081C5.61751 20.9737 5.70971 21.0843 5.70971 21.3507Z" fill="#191917"/>
</g>
<defs>
<clipPath id="clip0_0_4637">
<rect width="18" height="18" fill="white" transform="translate(4 4)"/>
</clipPath>
</defs>
</svg>
