<svg width="28" height="28" viewBox="0 0 28 28" fill="none" xmlns="http://www.w3.org/2000/svg">
<rect width="28" height="28" rx="4" fill="white"/>
<g clip-path="url(#clip0_0_4447)">
<path d="M14 5C11.6131 5 9.32387 5.94821 7.63604 7.63604C5.94821 9.32387 5 11.6131 5 14C5 16.3869 5.94821 18.6761 7.63604 20.364C9.32387 22.0518 11.6131 23 14 23C16.3869 23 18.6761 22.0518 20.364 20.364C22.0518 18.6761 23 16.3869 23 14C23 11.6131 22.0518 9.32387 20.364 7.63604C18.6761 5.94821 16.3869 5 14 5ZM17.46 16.95C17.46 18.42 16.66 20.25 13.4 21.65C13.7 17.48 10.88 17.96 10.2 16.65C10.2619 16.1081 10.4593 15.5904 10.7738 15.1448C11.0884 14.6991 11.5101 14.3398 12 14.1C10.4482 13.8338 9.00093 13.1414 7.82 12.1C7.87 12.57 8.099 13.004 8.46 13.31C7.67791 13.0152 7.00216 12.4927 6.52 11.81C6.99677 10.2364 7.95032 8.84963 9.24898 7.84115C10.5476 6.83268 12.1273 6.25225 13.77 6.18C12.93 7.56 12.27 10.31 13.77 11.75C12.23 12 11.26 10 10.41 10.79C9.28 11.85 10.74 13.3 13.83 13.87C17.12 14.46 17.49 15.45 17.46 16.95ZM18.8 12.95C18.48 11.84 19.42 10.72 20.49 9.81C21.1582 10.7732 21.5836 11.8837 21.7299 13.0469C21.8761 14.2101 21.7389 15.3913 21.33 16.49C20.56 14.6 19.16 14.17 18.8 12.92V12.95Z" fill="#228D57"/>
</g>
<defs>
<clipPath id="clip0_0_4447">
<rect width="18" height="18" fill="white" transform="translate(5 5)"/>
</clipPath>
</defs>
</svg>
