<svg width="22" height="22" viewBox="0 0 22 22" fill="none" xmlns="http://www.w3.org/2000/svg">
<g clip-path="url(#clip0_0_2613)">
<path d="M7.17142 4.74272L9.43565 7.80003H12.5735L14.8378 4.74272L13.4334 0.270575C12.6349 0.0904129 11.8188 -0.00033694 11.0002 9.40008e-07C10.1849 -0.000314293 9.37203 0.0897394 8.57654 0.268513L7.17142 4.74272ZM19.0101 13.7206L20.0952 17.1883C21.1908 15.5812 21.8715 13.6689 21.9834 11.6051L19.0101 13.7206ZM9.5793 9.08905L8.6984 11.8002L11.0047 13.4758L13.3109 11.8002L12.4299 9.08905H9.5793ZM16.0256 4.22271L19.6923 4.25859C18.4674 2.68159 16.8229 1.44715 14.9263 0.72222L16.0256 4.22271ZM13.6139 8.56122L14.5817 11.5398L18.1502 12.7503L21.9582 10.0411C21.8181 8.41998 21.327 6.89945 20.5605 5.55616L15.8734 5.51031L13.6139 8.56122ZM0.0166016 11.5983C0.12759 13.6687 0.81118 15.5868 1.9117 17.1976L2.99966 13.7206L0.0166016 11.5983ZM17.738 13.9717L14.1775 12.764L11.6491 14.6009V18.329L15.4255 21.0727C16.8405 20.4502 18.0996 19.5388 19.1275 18.4124L17.738 13.9717ZM11.0047 19.4541L8.05146 21.5997C8.98998 21.8602 9.97874 22 11.0002 22C12.024 22 13.015 21.8596 13.9554 21.5979L11.0047 19.4541ZM10.3601 18.329V14.6009L7.83193 12.764L4.27176 13.9717L2.87991 18.4198C3.90785 19.5442 5.16636 20.4539 6.58038 21.0751L10.3601 18.329ZM5.98363 4.22271L7.08415 0.718395C5.18325 1.44285 3.53514 2.67884 2.30808 4.25868L5.98363 4.22271ZM7.42755 11.54L8.39538 8.56127L6.13587 5.5104L1.43994 5.55629C0.674367 6.89786 0.183578 8.4162 0.0428555 10.0349L3.85956 12.7503L7.42755 11.54Z" fill="#228D57"/>
</g>
<defs>
<clipPath id="clip0_0_2613">
<rect width="22" height="22" fill="white"/>
</clipPath>
</defs>
</svg>
