<svg width="175" height="37" viewBox="0 0 175 37" fill="none" xmlns="http://www.w3.org/2000/svg">
<rect y="0.5" width="36" height="36" rx="10" fill="#228D57"/>
<g clip-path="url(#clip0_0_2446)">
<path d="M30.4187 17.9189L11.6086 6.0083L21.05 16.9022L12.6254 25.0362L30.4187 17.9189Z" fill="white"/>
<path d="M15.603 16.1759L10.0835 11.1647L5.65332 31.0642L15.603 16.1759Z" fill="white"/>
</g>
<path d="M52.576 23.678V20.312H63.972V23.678H52.576ZM61.068 10.5L68.68 27H64.258L57.724 12.238H59L52.488 27H48.044L55.678 10.5H61.068ZM74.5179 10.5V25.152L72.6479 23.326H85.0119V27H70.3599V10.5H74.5179ZM91.1683 10.5V25.152L89.2983 23.326H101.662V27H87.0103V10.5H91.1683ZM114.551 18.904L114.903 18.09C116.193 18.1193 117.249 18.3173 118.071 18.684C118.907 19.0507 119.523 19.5567 119.919 20.202C120.329 20.8327 120.535 21.5587 120.535 22.38C120.535 23.2747 120.329 24.074 119.919 24.778C119.508 25.4673 118.892 26.01 118.071 26.406C117.264 26.802 116.252 27 115.035 27H103.155L104.431 18.53L103.155 10.5H114.617C116.142 10.5 117.323 10.8593 118.159 11.578C119.009 12.282 119.435 13.2573 119.435 14.504C119.435 15.1933 119.273 15.8533 118.951 16.484C118.628 17.1147 118.115 17.65 117.411 18.09C116.707 18.5153 115.753 18.7867 114.551 18.904ZM107.247 25.988L105.663 24.03H114.045C114.763 24.03 115.321 23.8613 115.717 23.524C116.127 23.172 116.333 22.6807 116.333 22.05C116.333 21.4193 116.105 20.9207 115.651 20.554C115.211 20.1727 114.551 19.982 113.671 19.982H106.807V17.078H113.143C113.744 17.078 114.243 16.9093 114.639 16.572C115.035 16.22 115.233 15.7433 115.233 15.142C115.233 14.658 115.057 14.262 114.705 13.954C114.367 13.6313 113.883 13.47 113.253 13.47H105.685L107.247 11.512L108.413 18.53L107.247 25.988ZM136.771 17.21V20.29H124.825V17.21H136.771ZM127.641 18.75L126.541 25.57L124.803 23.59H137.475V27H122.383L123.659 18.75L122.383 10.5H137.365V13.91H124.803L126.541 11.93L127.641 18.75ZM145.205 12.348H149.363V27H145.205V12.348ZM138.781 10.5H155.787V14.174H138.781V10.5ZM156.58 21.61H160.782C160.855 22.1087 161.082 22.5487 161.464 22.93C161.845 23.3113 162.351 23.6047 162.982 23.81C163.627 24.0153 164.375 24.118 165.226 24.118C166.443 24.118 167.396 23.9493 168.086 23.612C168.79 23.2747 169.142 22.798 169.142 22.182C169.142 21.7127 168.936 21.3533 168.526 21.104C168.13 20.84 167.382 20.6493 166.282 20.532L163.092 20.202C160.877 19.982 159.271 19.4687 158.274 18.662C157.291 17.8553 156.8 16.7553 156.8 15.362C156.8 14.262 157.122 13.3233 157.768 12.546C158.428 11.7687 159.344 11.1747 160.518 10.764C161.706 10.3533 163.092 10.148 164.676 10.148C166.245 10.148 167.631 10.3753 168.834 10.83C170.036 11.2847 170.997 11.9153 171.716 12.722C172.434 13.5287 172.823 14.4747 172.882 15.56H168.68C168.621 15.1053 168.416 14.724 168.064 14.416C167.726 14.0933 167.264 13.844 166.678 13.668C166.106 13.4773 165.416 13.382 164.61 13.382C163.495 13.382 162.608 13.5433 161.948 13.866C161.302 14.174 160.98 14.6213 160.98 15.208C160.98 15.648 161.17 15.9927 161.552 16.242C161.948 16.4913 162.644 16.6747 163.642 16.792L167.008 17.166C168.548 17.3273 169.78 17.584 170.704 17.936C171.628 18.288 172.295 18.772 172.706 19.388C173.116 20.004 173.322 20.7813 173.322 21.72C173.322 22.8493 172.977 23.8393 172.288 24.69C171.613 25.526 170.66 26.1787 169.428 26.648C168.21 27.1173 166.788 27.352 165.16 27.352C163.473 27.352 161.992 27.11 160.716 26.626C159.454 26.142 158.457 25.4747 157.724 24.624C157.005 23.7587 156.624 22.754 156.58 21.61Z" fill="url(#paint0_linear_0_2446)"/>
<defs>
<linearGradient id="paint0_linear_0_2446" x1="185" y1="5.49999" x2="48" y2="23" gradientUnits="userSpaceOnUse">
<stop stop-color="#222222"/>
<stop offset="0.447132" stop-color="#222939"/>
<stop offset="1" stop-color="#228D57"/>
</linearGradient>
<clipPath id="clip0_0_2446">
<rect width="26" height="26" fill="white" transform="translate(5 5.5)"/>
</clipPath>
</defs>
</svg>
