<svg width="40" height="40" viewBox="0 0 40 40" fill="none" xmlns="http://www.w3.org/2000/svg">
<path d="M20 38.3333C17.4953 38.3331 15.0484 37.5804 12.9765 36.1728C10.9047 34.7653 9.30354 32.7677 8.38061 30.4392C7.45769 28.1107 7.25558 25.5586 7.80051 23.1139C8.34543 20.6691 9.61224 18.4445 11.4367 16.7283C13.6734 14.6233 19.1667 10.8333 18.3334 2.5C28.3334 9.16667 33.3334 15.8333 23.3334 25.8333C25 25.8333 27.5 25.8333 31.6667 21.7167C32.1167 23.005 32.5 24.39 32.5 25.8333C32.5 29.1485 31.1831 32.328 28.8389 34.6722C26.4947 37.0164 23.3152 38.3333 20 38.3333Z" fill="#EB4926"/>
</svg>
