<svg width="26" height="26" viewBox="0 0 26 26" fill="none" xmlns="http://www.w3.org/2000/svg">
<rect width="26" height="26" rx="4" fill="white"/>
<g clip-path="url(#clip0_0_4455)">
<path fill-rule="evenodd" clip-rule="evenodd" d="M11.6818 5.51391C11.189 5.61456 10.6647 5.83532 10.6647 5.83532C10.9243 5.48174 11.4512 5.04857 11.4512 5.04857C11.3062 4.77615 11.1779 4.37283 11.1779 4.37283C11.1779 4.37283 11.7872 4.40627 12.2642 4.5611C12.2642 4.5611 13.0746 4.11692 13.9143 4.10327C13.9143 4.10327 13.3022 4.45665 13.0422 4.78568C13.1112 4.82198 13.6007 4.96845 13.9819 5.19313C13.9819 5.19313 13.2927 5.21261 12.6602 5.29918C12.6602 5.29918 12.4376 5.61329 12.2493 6.32818C12.2492 6.32818 11.9249 5.971 11.6818 5.51391Z" fill="black"/>
<path fill-rule="evenodd" clip-rule="evenodd" d="M14.956 6.10572C14.5387 5.64154 13.9818 5.19302 13.9818 5.19302C14.494 5.20033 15.2542 5.50258 15.2542 5.50258C15.4028 5.2217 15.5069 4.83521 15.5069 4.83521C15.5069 4.83521 15.7977 5.32743 15.9298 5.87173C15.9298 5.87173 16.5335 6.23325 16.9891 6.83829C16.9891 6.83829 16.5137 6.73913 16.1638 6.74082C16.1627 6.81892 16.2921 7.46111 16.264 7.90265C16.264 7.90265 15.8764 7.27284 15.5128 6.74823C15.5128 6.74823 14.9283 6.75881 14.3141 6.92666C14.3142 6.92666 14.6582 6.52937 14.956 6.10572ZM15.6248 9.13136C15.9325 8.61246 16.2641 7.90275 16.2641 7.90275C16.3658 8.37741 16.3749 8.98298 16.3749 8.98298C16.6802 8.91864 17.2207 8.65935 17.2207 8.65935C17.2207 8.65935 16.9799 9.30069 16.4402 9.79249C16.4402 9.79249 16.4948 10.1768 16.5011 10.6838C16.5011 10.6838 16.1194 10.5137 15.8029 10.3236C15.7355 10.3628 15.3529 10.6231 14.7066 10.7568C14.7066 10.7568 14.9802 10.3293 15.2066 9.91166C15.2066 9.91166 14.756 9.6148 14.399 9.12829C14.399 9.12818 15.0931 9.21581 15.6248 9.13136Z" fill="black"/>
<path fill-rule="evenodd" clip-rule="evenodd" d="M13.4478 8.0727C13.9199 8.65753 14.399 9.12848 14.399 9.12848C13.6162 9.01217 12.9807 8.79267 12.9807 8.79267C12.6628 9.30236 12.3159 9.89492 12.3159 9.89492C12.3159 9.89492 12.1219 9.25209 12.0891 8.52248C12.0891 8.52248 11.6959 8.3849 10.9713 8.09958C10.9713 8.09958 11.4711 7.78928 12.0761 7.62005C12.0407 7.55031 12.1334 6.68291 12.2494 6.32837C12.2494 6.32837 12.6022 6.90018 12.8894 7.32055C12.8894 7.32055 13.4516 7.12984 14.3144 6.92685C14.3143 6.92685 13.8422 7.52597 13.4478 8.0727ZM9.15001 10.2848C9.10248 10.1954 9.05818 10.1043 9.01719 10.0116C9.02545 9.70145 9.05318 9.30194 9.13255 8.99206C9.13255 8.99206 8.90512 8.83426 8.66996 8.62916C8.66731 8.5935 8.66424 8.55751 8.66223 8.52142C8.79727 8.47105 9.08397 8.36977 9.33437 8.31177C9.36305 8.23885 9.51894 7.73647 9.82025 7.38987C9.82025 7.38987 9.84057 7.73139 9.92248 8.18604C9.92248 8.18604 10.3981 8.07831 10.9712 8.09937C10.9712 8.09937 10.4401 8.51761 10.1057 8.94253C10.227 9.43243 10.471 9.90264 10.471 9.90264C10.1063 9.69627 9.72055 9.4229 9.72055 9.4229C9.58509 9.58398 9.31278 10.0185 9.15001 10.2848ZM12.1839 12.5093C12.1249 12.4987 12.0661 12.4866 12.0077 12.473C11.8086 12.2595 11.505 11.911 11.2731 11.5447C11.2731 11.5447 10.4178 11.4757 9.81506 11.2118C9.81506 11.2118 10.3135 11.1181 10.8609 10.8359C10.8255 10.7661 10.6168 10.3813 10.4709 9.90285C10.4709 9.90285 10.9937 10.3252 11.3811 10.5725C11.3811 10.5725 11.8734 10.2892 12.3159 9.89492C12.3159 9.89492 12.2036 10.44 12.1415 11.0625C12.4273 11.2257 12.7156 11.3848 13.0061 11.5397C12.5598 11.6046 12.1205 11.591 12.1205 11.591C12.1032 11.9366 12.1496 12.3 12.1839 12.5093ZM15.9051 11.3978C15.9051 11.3978 15.3152 11.5537 14.7394 11.5753C14.7394 11.5753 14.7351 11.1826 14.7065 10.757C14.7065 10.757 14.4008 11.1909 14.0017 11.6082C13.5304 11.6015 13.0061 11.5397 13.0061 11.5397C13.1859 11.7226 13.3709 11.9006 13.5608 12.073C13.2058 12.3748 12.8777 12.5764 12.8777 12.5764C12.9243 12.577 12.9717 12.5773 13.0186 12.5767C14.139 12.5584 15.1517 12.1124 15.9051 11.3978Z" fill="black"/>
<path fill-rule="evenodd" clip-rule="evenodd" d="M8.71409 7.57253C8.71409 7.57253 9.02925 7.17947 9.39713 6.86028C9.39713 6.86028 9.5201 7.0874 9.82024 7.38997C9.82024 7.38997 9.82247 7.0202 9.86543 6.44002C10.2016 6.14285 10.6648 5.8354 10.6648 5.8354C10.2806 5.81096 9.99391 5.82969 9.99391 5.82969C10.083 5.38943 10.2843 4.91699 10.2843 4.91699C9.4675 5.56469 8.89262 6.50352 8.71409 7.57253ZM16.9632 18.956C16.4125 18.956 16.0781 18.4946 16.0781 17.9888C16.0781 17.4631 16.468 17.0822 16.9768 17.0822C17.5407 17.0822 17.8805 17.5299 17.8805 18.0219C17.8805 18.6048 17.4578 18.956 16.9632 18.956ZM16.9324 17.3472C16.5897 17.3472 16.4874 17.6734 16.4874 17.8944C16.4874 18.2175 16.6312 18.6902 17.0265 18.6902C17.3084 18.6902 17.4715 18.4393 17.4715 18.1379C17.4715 17.8174 17.3472 17.3472 16.9324 17.3472ZM13.5937 18.6935C13.5937 18.7929 13.6127 18.8286 13.7733 18.8596V18.9284C13.5991 18.9202 13.4909 18.9119 13.389 18.9119C13.2865 18.9119 13.1788 18.9202 13.0572 18.9284V18.859C13.1648 18.84 13.1844 18.7929 13.1844 18.6628V17.3113C13.1844 17.2336 13.1512 17.1974 13.0572 17.1947V17.1178H13.8752C14.3868 17.1178 14.5722 17.3611 14.5722 17.6821C14.5722 18.025 14.3122 18.2352 13.9556 18.2352C13.8203 18.2352 13.6214 18.1658 13.6214 18.1077C13.6214 18.0829 13.6379 18.0829 13.6628 18.0829C13.6877 18.0829 13.7233 18.0912 13.7593 18.0912C14.0495 18.0912 14.1632 17.9281 14.1632 17.6987C14.1632 17.4495 14.0081 17.3612 13.7646 17.3612L13.5937 17.3796V18.6935ZM15.1066 17.2943C15.1066 17.2171 15.0735 17.1808 14.9795 17.1783V17.1063C15.101 17.1146 15.2085 17.1228 15.311 17.1228C15.4136 17.1228 15.5212 17.1146 15.6426 17.1063V17.1783C15.5489 17.1807 15.5155 17.2171 15.5155 17.2943V18.743C15.5155 18.8207 15.5489 18.8565 15.6426 18.8596V18.9284C15.5213 18.9202 15.4134 18.9119 15.311 18.9119C15.2085 18.9119 15.1011 18.9202 14.9795 18.9284V18.8596C15.0735 18.8566 15.1066 18.8208 15.1066 18.743V17.2943ZM18.4349 17.293C18.4349 17.2159 18.4014 17.1796 18.3074 17.177V17.1044C18.4291 17.1125 18.537 17.1216 18.6393 17.1216C18.714 17.1216 18.7968 17.1216 18.8829 17.1044L19.6458 18.3412H19.6512V17.3319C19.6512 17.1878 19.5601 17.177 19.4855 17.177V17.1044C19.5766 17.1125 19.6649 17.1216 19.7509 17.1216C19.842 17.1216 19.9333 17.1125 20.022 17.1044V17.177C19.9278 17.1795 19.8945 17.2159 19.8945 17.293V18.9284H19.6014L18.6836 17.5008H18.6782V18.7029C18.6782 18.8469 18.7689 18.8577 18.8439 18.8577V18.9272C18.7528 18.9189 18.6641 18.91 18.5785 18.91C18.4874 18.91 18.3959 18.9189 18.3074 18.9272V18.8577C18.4014 18.8553 18.4349 18.8189 18.4349 18.7418V17.293ZM20.5871 18.2997C20.6437 18.61 20.8473 18.7553 21.1522 18.7553C21.3197 18.7553 21.5619 18.7069 21.5619 18.4934C21.5619 18.3227 21.3854 18.2774 21.2546 18.2372L21.0522 18.1773C20.762 18.0919 20.4718 17.9696 20.4718 17.6339C20.4718 17.193 20.8987 17.0592 21.3226 17.0592C21.5024 17.0592 21.687 17.0905 21.8522 17.1504C21.8522 17.3555 21.8635 17.5286 21.8747 17.6767H21.8036C21.7439 17.4147 21.5308 17.2924 21.2747 17.2924C21.1318 17.2924 20.8933 17.3383 20.8933 17.5344C20.8933 17.6913 21.0295 17.7363 21.1463 17.7703L21.445 17.8563C21.7323 17.9383 21.9999 18.0441 21.9999 18.4138C21.9999 18.789 21.6215 18.9884 21.1576 18.9884C20.9499 18.9884 20.7308 18.9548 20.5402 18.8859C20.5402 18.661 20.5317 18.4652 20.5172 18.2997H20.5871ZM6.21316 17.2943C6.21316 17.2171 6.18014 17.1808 6.08574 17.1783V17.1063C6.20745 17.1146 6.3154 17.1228 6.41774 17.1228C6.52008 17.1228 6.6276 17.1146 6.74942 17.1063V17.1783C6.65544 17.1807 6.62263 17.2171 6.62263 17.2943L6.62231 17.8416L7.29128 17.8423V17.2943C7.29128 17.2171 7.25847 17.1808 7.16449 17.1783V17.1063C7.28588 17.1146 7.39393 17.1228 7.49606 17.1228C7.5983 17.1228 7.70635 17.1146 7.82742 17.1063V17.1783C7.73376 17.1807 7.70053 17.2171 7.70053 17.2943V18.743C7.70053 18.8207 7.73365 18.8565 7.82742 18.859V18.9297C7.70624 18.9217 7.5983 18.9132 7.49574 18.9132C7.39393 18.9132 7.28588 18.9217 7.16417 18.9297V18.859C7.25847 18.8566 7.29128 18.8208 7.29128 18.743V18.1072H6.62231V18.743C6.62231 18.8207 6.65544 18.8565 6.74952 18.859V18.9297C6.62781 18.9217 6.52018 18.9132 6.41784 18.9132C6.31561 18.9132 6.20755 18.9217 6.08585 18.9297V18.859C6.17983 18.8566 6.21327 18.8208 6.21327 18.743L6.21316 17.2943ZM8.85093 18.1372C8.92257 17.9417 9.01105 17.723 9.07455 17.502H9.08026C9.13561 17.7811 9.1826 17.9583 9.2406 18.1372H8.85093ZM8.18154 18.9285C8.27848 18.9203 8.37267 18.912 8.46919 18.912C8.56317 18.912 8.66011 18.9203 8.75398 18.9285V18.8591C8.66254 18.8533 8.62392 18.8209 8.62392 18.7706C8.62392 18.7431 8.63217 18.7125 8.64625 18.6737L8.76753 18.3475H9.30653L9.39512 18.6164C9.40919 18.6522 9.42284 18.7158 9.42284 18.7541C9.42284 18.8178 9.38686 18.8401 9.28452 18.8591V18.9285C9.40337 18.9203 9.52222 18.912 9.64128 18.912C9.75696 18.912 9.87612 18.9203 9.99233 18.9285V18.8591C9.90957 18.8374 9.86776 18.8012 9.82638 18.6795L9.31765 17.1065C9.23182 17.1148 9.14334 17.123 9.05762 17.123C8.97221 17.123 8.88617 17.1148 8.7979 17.1065V17.1785C8.87241 17.1785 8.9031 17.2225 8.9031 17.2507C8.9031 17.278 8.88331 17.3168 8.86712 17.3582L8.32515 18.7319C8.29753 18.8045 8.26155 18.8485 8.18122 18.8592V18.9285H8.18154ZM10.5504 17.5543C10.5532 17.4772 10.5583 17.3995 10.5583 17.2893C10.5583 17.2032 10.5392 17.1924 10.4342 17.1783V17.1063C10.5169 17.1146 10.6166 17.1228 10.7164 17.1228C10.8158 17.1228 10.9155 17.1146 11.0149 17.1063L11.4987 18.3881L11.9323 17.1063C12.0296 17.1146 12.1236 17.1228 12.2203 17.1228C12.3168 17.1228 12.4137 17.1146 12.5076 17.1063V17.1783C12.4111 17.1865 12.397 17.2171 12.397 17.2917C12.397 17.3694 12.4081 17.4937 12.4162 17.5873L12.5051 18.768C12.5106 18.84 12.5905 18.8507 12.646 18.8589V18.9283C12.5268 18.9201 12.4055 18.9118 12.2866 18.9118C12.1649 18.9118 12.0461 18.9201 11.9322 18.9283V18.8589C12.068 18.8424 12.104 18.8175 12.104 18.6906C12.104 18.6239 12.0954 18.4996 12.0875 18.4085L12.0237 17.5848H12.0183L11.5566 18.9437H11.3244L10.7962 17.5683H10.7904L10.7685 18.3779C10.766 18.5219 10.7601 18.5965 10.7601 18.6711C10.7601 18.8094 10.7739 18.84 10.9399 18.8589V18.9283C10.8294 18.9201 10.727 18.9118 10.6219 18.9118C10.52 18.9118 10.4173 18.9201 10.3317 18.9283V18.8589C10.4397 18.8507 10.4839 18.8259 10.4894 18.7099L10.5504 17.5543ZM5.66929 18.8273C5.48006 18.9726 5.20871 19.0307 5.03155 19.0307C4.37242 19.0307 4 18.5195 4 17.9953C4 17.4594 4.37242 16.9407 5.08669 16.9415C5.33677 16.9415 5.51615 16.9891 5.58643 17.0166C5.58643 17.2261 5.59764 17.4282 5.6132 17.6282H5.53319C5.48451 17.3727 5.30608 17.2371 5.04975 17.2371C4.7022 17.2371 4.43359 17.511 4.43359 17.9736C4.43359 18.3221 4.72019 18.7166 5.1232 18.7166C5.29401 18.7166 5.53965 18.6229 5.70464 18.484L5.66929 18.8273ZM8.66223 19.9281C8.66223 19.8684 8.6364 19.8403 8.56412 19.8384V19.7796C8.6581 19.7866 8.74118 19.7925 8.81992 19.7925C8.90977 19.7925 9.04015 19.7866 9.10185 19.7796V19.8384C8.99295 19.8427 8.97803 19.8963 8.97803 19.9555V21.0011H9.37268C9.51375 21.0011 9.57143 20.9368 9.60752 20.7743H9.67695C9.65112 20.9131 9.62763 21.0502 9.62541 21.1891H8.56412V21.1304C8.6364 21.1285 8.66223 21.1004 8.66223 21.0404V19.9281ZM10.0206 19.9351C10.0206 19.8754 9.99476 19.8473 9.92248 19.8454V19.7873H11.0007C11.0019 19.8967 11.0076 20.006 11.0176 20.1149H10.9592C10.9379 19.9976 10.9081 19.9568 10.7929 19.9568H10.3362V20.3696H10.62C10.7158 20.3696 10.7308 20.3371 10.7435 20.2607H10.8018C10.7942 20.3282 10.7899 20.3961 10.789 20.4641C10.789 20.5213 10.7954 20.615 10.8018 20.6666H10.7435C10.7307 20.5895 10.7158 20.5577 10.62 20.5577H10.3362V21.0011H10.8162C10.9316 21.0011 10.9676 20.9622 11.0041 20.7831H11.0752C11.06 20.918 11.0515 21.0535 11.0497 21.1891H9.92248V21.1304C9.99476 21.1285 10.0206 21.1004 10.0206 21.0404V19.9351ZM11.3312 21.1311C11.3929 21.1222 11.4207 21.0884 11.4421 21.0329L11.8607 19.9754C11.8735 19.9427 11.8884 19.9136 11.8884 19.8926C11.8884 19.8709 11.8647 19.8366 11.8071 19.8366V19.7785C11.8753 19.7849 11.9417 19.7913 12.0078 19.7913C12.074 19.7913 12.1422 19.7848 12.2086 19.7785L12.6012 20.9929C12.6335 21.0859 12.6652 21.1141 12.7293 21.1312V21.1893C12.6394 21.1829 12.548 21.1765 12.4582 21.1765C12.3665 21.1765 12.2747 21.183 12.1829 21.1893V21.1312C12.262 21.1159 12.2896 21.0987 12.2896 21.0504C12.2896 21.0204 12.2788 20.9712 12.2682 20.9439L12.1999 20.7374H11.7837L11.6898 20.9884C11.679 21.0177 11.6725 21.0413 11.6725 21.063C11.6725 21.1005 11.7025 21.1267 11.7728 21.1312V21.1893C11.7002 21.1829 11.6257 21.1765 11.553 21.1765C11.4781 21.1765 11.4059 21.183 11.331 21.1893V21.1311H11.3312ZM12.1486 20.5755C12.104 20.4372 12.0674 20.301 12.0246 20.0856H12.0205C11.9715 20.2557 11.903 20.4246 11.8476 20.5755H12.1486ZM13.8711 20.6896C13.8711 20.6042 13.8324 20.6003 13.7367 20.5985V20.5265C13.8241 20.5335 13.9117 20.5399 14.0013 20.5399C14.0976 20.5399 14.1914 20.5335 14.2873 20.5265V20.5939C14.2125 20.596 14.1743 20.615 14.1743 20.7113V21.1892H14.0503L14.0013 21.0458C13.8668 21.1719 13.7257 21.2165 13.5808 21.2165C13.1794 21.2165 12.9232 20.8858 12.9232 20.5017C12.9232 20.0385 13.2329 19.7581 13.6939 19.7581C13.8413 19.7581 14.0001 19.7856 14.1148 19.8574C14.1148 19.962 14.1192 20.0825 14.1278 20.2295H14.0662C14.0387 20.0398 13.8583 19.9461 13.6813 19.9461C13.3843 19.9461 13.2394 20.1729 13.2394 20.4482C13.2394 20.7132 13.3888 21.0119 13.6362 21.0119C13.788 21.0119 13.8711 20.9414 13.8711 20.8432V20.6896ZM14.7166 19.9281C14.7166 19.8684 14.6907 19.8403 14.6186 19.8384V19.7796C14.7 19.788 14.7818 19.7922 14.8637 19.7925C14.9749 19.7925 15.0625 19.7866 15.1479 19.7796V19.8384C15.0558 19.8427 15.0326 19.8594 15.0326 19.9427V20.7404C15.0326 20.982 15.133 21.0284 15.3058 21.0284C15.4787 21.0284 15.5791 20.9776 15.5791 20.7404V19.9427C15.5791 19.8594 15.5557 19.8427 15.4635 19.8384V19.7796C15.5494 19.7866 15.6366 19.7925 15.7478 19.7925C15.8373 19.7925 15.925 19.7866 15.9931 19.7796V19.8384C15.9207 19.8403 15.8949 19.8683 15.8949 19.9281V20.696C15.8949 21.091 15.69 21.2165 15.3058 21.2165C14.9214 21.2165 14.7166 21.091 14.7166 20.726V19.9281ZM16.4448 19.9351C16.4448 19.8754 16.4196 19.8473 16.3468 19.8454V19.7873H17.4253C17.4276 19.9044 17.4316 19.9996 17.4421 20.1149H17.3838C17.3625 19.9976 17.3325 19.9568 17.2172 19.9568H16.7611V20.3634H17.0446C17.1404 20.3634 17.1556 20.3314 17.1686 20.2545H17.2265C17.2191 20.3218 17.2148 20.3894 17.2137 20.4571C17.2137 20.515 17.2205 20.6086 17.2265 20.6603H17.1686C17.1556 20.5831 17.1404 20.5514 17.0446 20.5514H16.7611V21.0012H17.2407C17.356 21.0012 17.3924 20.9623 17.4287 20.7833H17.4996C17.4843 20.9181 17.4758 21.0536 17.474 21.1892H16.3467V21.1305C16.4195 21.1286 16.4447 21.1005 16.4447 21.0405L16.4448 19.9351ZM10.9734 16.6C11.443 16.0622 12.1335 15.7226 12.904 15.7226C13.6956 15.7226 14.4037 16.0819 14.8741 16.6464L14.9983 16.5298C14.4975 15.9342 13.7467 15.5564 12.9075 15.5564C12.09 15.5564 11.3568 15.9151 10.8562 16.4847L10.9734 16.6ZM12.6851 15.2416L11.9352 15.3976L11.7463 14.4891L12.4859 14.3355L12.5207 14.5017L12.0346 14.603L12.074 14.7936L12.5379 14.6968L12.5725 14.8636L12.1085 14.9598L12.1541 15.1785L12.6504 15.0751L12.6851 15.2416ZM14.1161 14.6554L13.6687 14.5611L13.6264 14.763L14.0733 14.8579L14.0383 15.0243L13.5915 14.9294L13.5127 15.3027L13.2593 15.2485L13.4505 14.3414L14.1514 14.4891L14.1161 14.6554ZM15.1974 16.208L14.9749 15.9978L15.01 15.7983L14.6283 15.5331L14.4594 15.6396L14.2068 15.4982L15.108 14.9612L15.3544 15.1319L15.1974 16.208ZM15.1209 15.2161L14.7802 15.4306L15.0508 15.6186L15.1209 15.2161ZM11.0757 15.836C10.9095 15.9679 10.6275 16.0756 10.4214 15.8334L10.1236 15.4518L10.3226 15.2946L10.6147 15.6698C10.7201 15.794 10.8527 15.7698 10.9584 15.6869C11.0638 15.6042 11.118 15.4804 11.0219 15.3488L10.7293 14.974L10.9284 14.8174L11.2263 15.1989C11.4041 15.4429 11.294 15.6626 11.0757 15.836Z" fill="black"/>
<path fill-rule="evenodd" clip-rule="evenodd" d="M16.1102 15.3019C15.3109 14.4615 14.1819 13.9371 12.9306 13.9371C11.6643 13.9371 10.5232 14.4737 9.72264 15.3318L9.58728 15.1943C10.4282 14.3138 11.6139 13.7651 12.9277 13.7651C14.231 13.7651 15.4077 14.3054 16.2474 15.1732L16.1102 15.3019ZM17.8544 21.8968C17.8088 21.8969 17.7636 21.888 17.7214 21.8706C17.6793 21.8533 17.641 21.8277 17.6087 21.7956C17.5764 21.7634 17.5507 21.7251 17.5332 21.683C17.5158 21.6409 17.5067 21.5958 17.5067 21.5502C17.507 21.4581 17.5437 21.3698 17.6088 21.3048C17.674 21.2397 17.7623 21.2031 17.8544 21.2029V21.2362C17.7713 21.2365 17.6918 21.2697 17.6332 21.3286C17.5746 21.3874 17.5418 21.4671 17.5418 21.5502C17.5416 21.6333 17.5743 21.7132 17.6329 21.7723C17.6915 21.8313 17.7712 21.8647 17.8544 21.865V21.8968Z" fill="black"/>
<path fill-rule="evenodd" clip-rule="evenodd" d="M17.7114 21.343H17.8515C17.9051 21.343 17.9363 21.3506 17.9628 21.3712C17.9754 21.3807 17.9857 21.393 17.9927 21.4071C17.9998 21.4213 18.0035 21.4368 18.0035 21.4527C18.0035 21.5012 17.9686 21.5394 17.9124 21.5509C17.9399 21.5591 17.9523 21.5662 17.964 21.5802C17.9788 21.598 17.9851 21.6166 17.9961 21.6745L18.0024 21.7057C18.0065 21.7287 18.0078 21.7326 18.0156 21.7458H17.9738C17.9653 21.728 17.9634 21.721 17.9586 21.6937C17.9439 21.6109 17.9421 21.6051 17.9216 21.5855C17.9057 21.5701 17.884 21.5651 17.8381 21.5651H17.7498V21.7459H17.7114V21.343ZM17.8528 21.5336C17.9216 21.5336 17.9634 21.503 17.9634 21.4526C17.9634 21.3996 17.9229 21.3717 17.8463 21.3717H17.7493V21.5335L17.8528 21.5336Z" fill="black"/>
<path fill-rule="evenodd" clip-rule="evenodd" d="M17.8544 21.8967C18.0463 21.8967 18.2029 21.7425 18.2029 21.5501C18.2029 21.3577 18.0463 21.2029 17.8544 21.2029V21.2361C18.0268 21.2361 18.1654 21.3767 18.1665 21.5501C18.1665 21.7245 18.0268 21.865 17.8544 21.865V21.8967Z" fill="black"/>
</g>
<defs>
<clipPath id="clip0_0_4455">
<rect width="18" height="18" fill="white" transform="translate(4 4)"/>
</clipPath>
</defs>
</svg>
