<svg width="26" height="26" viewBox="0 0 26 26" fill="none" xmlns="http://www.w3.org/2000/svg">
<rect width="26" height="26" rx="4" fill="white"/>
<path d="M11.3366 4.24691C11.9027 4.04514 12.5103 3.98041 13.1085 4.00494C13.9252 4.033 14.752 4.27245 15.4013 4.78091C15.8369 5.11694 16.1874 5.55638 16.4448 6.04134L16.4433 6.03047C16.4678 6.08786 16.5007 6.14121 16.5211 6.20063C16.355 5.98824 16.243 5.73767 16.0749 5.52604C15.8675 5.25727 15.6309 5.00847 15.3598 4.80316C14.6574 4.26537 13.7555 4.03326 12.8794 4.05525C12.0342 4.03452 11.1682 4.25045 10.4749 4.74577C10.1525 4.98268 9.86781 5.27118 9.6362 5.59735C9.60713 5.64159 9.56465 5.67295 9.5199 5.69975C9.9381 5.02971 10.5909 4.50835 11.3366 4.24691Z" fill="#BAD8EB"/>
<path d="M10.4749 4.74565C11.1682 4.25033 12.0342 4.0344 12.8795 4.05513C13.7556 4.03314 14.6575 4.26525 15.3599 4.80305C15.6309 5.00835 15.8676 5.25715 16.0749 5.52593C16.243 5.73756 16.3551 5.98812 16.5212 6.20051L16.5338 6.21417L16.5346 6.22554C16.5336 6.25841 16.5379 6.29027 16.5472 6.32137C16.7829 6.82301 16.9184 7.36562 17.0114 7.91024C17.0534 8.19317 17.0896 8.47787 17.0949 8.76409C17.1267 9.01744 17.1136 9.27357 17.1121 9.52844C17.086 9.70821 17.0997 9.89076 17.0721 10.0705C16.9776 11.0581 16.7098 12.0569 16.1288 12.8743C15.6951 13.4986 15.0554 13.9861 14.3278 14.2116C14.3285 14.1883 14.3295 14.1653 14.3308 14.1423C14.3869 14.1216 14.4433 14.1006 14.4992 14.0786C14.7707 13.9719 15.0264 13.8278 15.2643 13.6591C15.5849 13.4303 15.8618 13.1393 16.085 12.8152C16.301 12.5016 16.4769 12.1613 16.6099 11.8043C16.7353 11.4672 16.8291 11.1191 16.8959 10.7656C16.9578 10.4334 16.9978 10.0968 17.0155 9.75928C17.0347 9.42831 17.0322 9.09608 17.0195 8.76485C17.0016 8.42528 16.9758 8.08369 16.9007 7.75145C16.8425 7.38837 16.7437 7.03211 16.617 6.68698C16.4815 6.32112 16.3025 5.97144 16.0805 5.65058C15.8491 5.31758 15.5609 5.02176 15.2304 4.78661C14.8944 4.55046 14.5171 4.37372 14.1212 4.265C13.7174 4.15248 13.2972 4.10672 12.8787 4.10646C12.4633 4.10596 12.0461 4.15096 11.6453 4.26297C11.2458 4.37144 10.8656 4.54869 10.527 4.78737C10.195 5.02049 9.91084 5.31809 9.67771 5.64931C9.45142 5.96865 9.27645 6.32162 9.13739 6.68698C9.0054 7.02807 8.91059 7.38433 8.85193 7.74513C8.79276 8.08268 8.7566 8.42377 8.73663 8.76586C8.7207 9.09759 8.72272 9.42958 8.73916 9.76131C8.75888 10.0973 8.792 10.4336 8.86002 10.7638C8.92778 11.1181 9.02007 11.468 9.14775 11.8055C9.28125 12.16 9.45496 12.4999 9.67089 12.8114C9.89693 13.1355 10.1738 13.425 10.4926 13.6591C10.7346 13.8377 11.0019 13.9813 11.282 14.0902C11.3323 14.1092 11.3829 14.1267 11.4337 14.1446C11.4302 14.1628 11.4274 14.1813 11.4251 14.1997C11.3222 14.1954 11.2317 14.1416 11.1376 14.1067C10.7505 13.938 10.3849 13.7087 10.0871 13.4076C9.41425 12.7704 9.02361 11.889 8.82765 10.9954C8.81805 10.9704 8.8049 10.9469 8.78872 10.9254C8.71716 10.642 8.68606 10.3474 8.65572 10.0564C8.5958 9.35853 8.6092 8.65335 8.70958 7.9598C8.81223 7.26953 9.00945 6.58711 9.34851 5.97422C9.40363 5.88193 9.45142 5.78256 9.51994 5.69963C9.56469 5.67283 9.60717 5.64148 9.63625 5.59723C9.86785 5.27106 10.1526 4.98256 10.4749 4.74565Z" fill="#DEEDF3"/>
<path d="M11.6453 4.2632C12.046 4.15119 12.4632 4.10619 12.8786 4.10669C12.8781 4.12363 12.8776 4.15777 12.8774 4.17471C12.7214 4.21415 12.5585 4.18508 12.4008 4.21188C12.151 4.23084 11.9059 4.28318 11.6614 4.33577L11.6594 4.32616C11.6559 4.31049 11.6488 4.27888 11.6453 4.2632Z" fill="#FFE066"/>
<path d="M12.8787 4.10669C13.2972 4.10694 13.7174 4.15271 14.1212 4.26522C14.1139 4.29329 14.1068 4.32135 14.1002 4.34967C13.7017 4.24373 13.2891 4.19316 12.8772 4.20151V4.1747C12.8777 4.15776 12.8782 4.12363 12.8787 4.10669Z" fill="#50B475"/>
<path d="M12.4008 4.21173C12.5586 4.18493 12.7214 4.214 12.8774 4.17456V4.20136C12.8769 4.25876 12.8767 4.31641 12.8767 4.37405C12.8767 4.40389 12.8769 4.43347 12.8774 4.46331C12.4875 4.43954 12.102 4.52197 11.7222 4.59681L11.7138 4.56015C11.6961 4.48531 11.6789 4.41046 11.6615 4.33562C11.906 4.28303 12.151 4.23069 12.4008 4.21173Z" fill="#FFE688"/>
<path d="M12.8772 4.20133C13.2891 4.19298 13.7017 4.24355 14.1002 4.34949L14.0957 4.36846C14.085 4.41245 14.0749 4.45619 14.0648 4.50019C14.0625 4.5098 14.058 4.52901 14.0557 4.53862C13.8527 4.48198 13.6446 4.44911 13.4363 4.42004C13.2509 4.3897 13.0605 4.41776 12.8767 4.37402C12.8767 4.31637 12.877 4.25872 12.8772 4.20133Z" fill="#89C699"/>
<path d="M10.527 4.78758C10.8655 4.5489 11.2458 4.37165 11.6453 4.26318C11.6488 4.27886 11.6559 4.31047 11.6595 4.32614C11.551 4.38404 11.4332 4.42045 11.3169 4.45863C11.127 4.52741 10.9442 4.61438 10.7705 4.71754C10.7007 4.76204 10.638 4.82045 10.5555 4.84093C10.5485 4.82753 10.5341 4.80073 10.527 4.78758ZM16.531 6.74611C16.5593 6.72613 16.5879 6.70666 16.617 6.68719C16.7436 7.03233 16.8425 7.38858 16.9007 7.75167C16.8746 7.75698 16.8491 7.76304 16.8238 7.76987C16.7472 7.79819 16.6721 7.83005 16.5957 7.85811C16.1098 8.04673 15.6241 8.23637 15.1381 8.42474C15.1113 8.22069 15.0875 8.0126 15.0005 7.82347L14.9973 7.81639C15.4112 7.5327 15.8203 7.24219 16.2316 6.9547C16.3313 6.88492 16.4319 6.81665 16.531 6.74611Z" fill="#2F3039"/>
<path d="M14.1212 4.26514C14.5172 4.37386 14.8944 4.5506 15.2305 4.78675C15.2138 4.81659 15.1971 4.84617 15.1809 4.87626C14.9807 4.73593 14.7652 4.61735 14.5425 4.51722C14.3936 4.46716 14.2472 4.40951 14.0957 4.36855L14.1003 4.34959C14.1068 4.32127 14.1139 4.2932 14.1212 4.26514Z" fill="#F07E5E"/>
<path d="M11.6595 4.32593L11.6615 4.33554C11.6789 4.41038 11.6961 4.48522 11.7138 4.56006C11.4268 4.60583 11.1682 4.75045 10.9108 4.87763C10.8225 4.92314 10.7535 5.00962 10.6491 5.01821C10.6233 4.96967 10.5973 4.92137 10.5722 4.87258C10.5679 4.86448 10.5596 4.84856 10.5555 4.84072C10.638 4.82024 10.7007 4.76183 10.7705 4.71733C10.9442 4.61417 11.127 4.52719 11.3169 4.45842C11.4332 4.42024 11.551 4.38383 11.6595 4.32593Z" fill="#4B4953"/>
<path d="M12.8767 4.37402C13.0605 4.41777 13.2509 4.3897 13.4363 4.42004C13.6446 4.44912 13.8527 4.48199 14.0557 4.53862C14.0454 4.5811 14.0355 4.62383 14.0256 4.66631C14.0158 4.70803 14.0057 4.74975 13.9958 4.79147C13.9619 4.77352 13.9283 4.75632 13.8944 4.73938C13.8034 4.69488 13.7098 4.65519 13.6127 4.62586C13.3748 4.55531 13.126 4.5318 12.8787 4.5275C12.8785 4.51157 12.8777 4.47946 12.8775 4.46328C12.877 4.43344 12.8767 4.40386 12.8767 4.37402Z" fill="#70BE87"/>
<path d="M14.0957 4.36865C14.2471 4.40961 14.3935 4.46726 14.5424 4.51732C14.7652 4.61745 14.9806 4.73603 15.1809 4.87636L15.171 4.89457C15.151 4.93123 15.1318 4.96814 15.1129 5.00506C14.9288 4.87611 14.7328 4.76208 14.523 4.67965C14.3751 4.60784 14.2122 4.57346 14.0648 4.50038C14.0749 4.45639 14.085 4.41265 14.0957 4.36865Z" fill="#F29274"/>
<path d="M11.7222 4.5969C12.1019 4.52205 12.4875 4.43963 12.8774 4.46339C12.8777 4.47958 12.8784 4.51169 12.8787 4.52762C12.6413 4.5304 12.4021 4.55088 12.173 4.61662C12.0663 4.64645 11.9634 4.68767 11.8645 4.73722C11.8322 4.75315 11.7998 4.76933 11.7684 4.78627C11.752 4.72332 11.7366 4.66011 11.7222 4.5969Z" fill="#FFDF5B"/>
<path d="M14.0648 4.50024C14.2122 4.57332 14.3751 4.6077 14.523 4.67951C14.7328 4.76194 14.9288 4.87597 15.1129 5.00492C15.1086 5.01352 15.0997 5.03096 15.0954 5.03956C15.0759 5.07749 15.057 5.11541 15.0375 5.15334C14.7432 4.91567 14.3847 4.77458 14.0256 4.66636C14.0355 4.62388 14.0454 4.58115 14.0557 4.53868C14.058 4.52907 14.0626 4.50985 14.0648 4.50024Z" fill="#EF7657"/>
<path d="M12.8787 4.52759C13.1259 4.53189 13.3747 4.5554 13.6127 4.62594C13.6033 4.63403 13.5843 4.65022 13.5747 4.65856C13.5446 4.87727 13.5768 5.09851 13.578 5.31848C13.129 5.18751 12.6405 5.1865 12.1907 5.31469C12.1616 5.08334 12.1937 4.84895 12.173 4.61659C12.402 4.55085 12.6412 4.53037 12.8787 4.52759Z" fill="#D7E7F1"/>
<path d="M10.9109 4.87763C11.1683 4.75045 11.4269 4.60582 11.7139 4.56006L11.7222 4.59672C11.7366 4.65993 11.7521 4.72314 11.7685 4.7861C11.7126 4.81669 11.6605 4.85285 11.6072 4.88699C11.5758 4.88345 11.5427 4.87535 11.5147 4.89406C11.3652 4.96739 11.2358 5.0751 11.0856 5.14716C10.9857 5.19343 10.9028 5.26802 10.8039 5.31606C10.7834 5.27738 10.763 5.23844 10.743 5.1995C10.7126 5.14033 10.6825 5.08092 10.6512 5.02226L10.6492 5.01821C10.7536 5.00961 10.8226 4.92314 10.9109 4.87763Z" fill="#35363E"/>
<path d="M11.8645 4.73706C11.9634 4.6875 12.0663 4.64629 12.173 4.61646C12.1937 4.84882 12.1616 5.0832 12.1907 5.31456C12.1285 5.33428 12.0665 5.35526 12.0061 5.37928C11.9517 5.1669 11.9148 4.95046 11.8645 4.73706Z" fill="#C3DCED"/>
<path d="M13.6126 4.62598C13.7097 4.65531 13.8033 4.695 13.8943 4.7395C13.844 4.95265 13.8043 5.16807 13.7545 5.38122C13.6963 5.35796 13.6374 5.33748 13.578 5.31851C13.5767 5.09854 13.5446 4.8773 13.5747 4.65859C13.5843 4.65025 13.6033 4.63407 13.6126 4.62598Z" fill="#C6DEEE"/>
<path d="M14.0256 4.66626C14.3846 4.77448 14.7431 4.91556 15.0374 5.15324L15.0235 5.17978C15.0053 5.21417 14.9874 5.24856 14.9692 5.28295C14.7841 5.16815 14.6036 5.0387 14.3909 4.97903C14.3143 4.94135 14.2412 4.86626 14.1492 4.888C14.0991 4.85362 14.0483 4.82075 13.9957 4.79142C14.0056 4.7497 14.0157 4.70798 14.0256 4.66626ZM8.82204 8.77952C8.86932 8.78458 8.9166 8.78989 8.96414 8.7957C8.95377 9.10341 8.95251 9.41062 8.96768 9.71807C8.98285 9.72111 9.01344 9.72718 9.02861 9.72996L9.03291 9.73426C8.97299 9.73982 8.91331 9.74513 8.85364 9.75145C8.84302 9.75271 8.82153 9.7555 8.81091 9.75676C8.8324 9.43186 8.8056 9.10518 8.82204 8.77952ZM9.75731 12.7181C9.79245 12.6804 9.8276 12.6427 9.86249 12.6048C9.88297 12.7302 9.99877 12.802 10.0691 12.8986C10.177 13.043 10.3249 13.1481 10.4463 13.2801C10.4986 13.331 10.5621 13.3689 10.6278 13.4C10.5993 13.4523 10.5715 13.5049 10.5436 13.5575L10.5388 13.5519C10.4248 13.4331 10.284 13.3441 10.1702 13.225C10.0142 13.0723 9.85996 12.913 9.75731 12.7181Z" fill="#E94B33"/>
<path d="M11.7684 4.78636C11.7998 4.76942 11.8321 4.75323 11.8645 4.7373C11.9148 4.9507 11.9517 5.16714 12.0061 5.37953C11.8592 5.44046 11.7158 5.51758 11.6015 5.6301C11.5823 5.60254 11.5639 5.57371 11.5563 5.54059C11.5118 5.38281 11.4754 5.22327 11.4301 5.06575C11.4794 4.99748 11.5413 4.93958 11.6071 4.88724C11.6604 4.85311 11.7125 4.81695 11.7684 4.78636ZM13.8943 4.73958C13.9282 4.75652 13.9618 4.77371 13.9957 4.79167C14.0483 4.821 14.0991 4.85387 14.1492 4.88825C14.2159 4.93983 14.2774 4.9995 14.3277 5.06777C14.2736 5.25917 14.2308 5.45361 14.1704 5.64299C14.0526 5.52694 13.9067 5.44375 13.7545 5.3813C13.8043 5.16815 13.844 4.95273 13.8943 4.73958ZM12.3479 6.35879C12.4058 6.34716 12.4655 6.34463 12.5231 6.36056C12.5118 6.49077 12.5297 6.62402 12.598 6.73755C12.5461 6.74539 12.4948 6.75323 12.4437 6.76283C12.4132 6.7689 12.3828 6.77522 12.3527 6.7818C12.3456 6.65082 12.3578 6.51985 12.3482 6.38913V6.35879M11.8802 7.05108C12.0609 6.9598 12.2554 6.89861 12.4551 6.86498C12.467 6.86979 12.4908 6.8794 12.5029 6.8842C12.4228 6.92592 12.3398 6.96258 12.2665 7.01542C11.9646 7.21517 11.7631 7.53831 11.668 7.88318C11.5858 8.17041 11.5565 8.4713 11.5651 8.7694C11.4225 8.79317 11.2804 8.81845 11.1398 8.85056C11.1252 8.85208 11.0961 8.85486 11.0817 8.85638C11.0559 8.56384 11.0703 8.26751 11.1391 7.98129C11.2137 7.74715 11.3242 7.52136 11.492 7.33957C11.6099 7.22933 11.7345 7.12288 11.8802 7.05108ZM13.2344 6.87535C13.4 6.87206 13.558 6.92819 13.7143 6.97725C13.8741 7.03515 14.0174 7.12971 14.1509 7.23363C14.3464 7.39798 14.4807 7.62099 14.5772 7.85461C14.6822 8.17775 14.7034 8.52111 14.6746 8.8579C14.6617 8.85638 14.6354 8.85284 14.6222 8.85107C14.4809 8.82022 14.3388 8.79291 14.1962 8.77041C14.1934 8.35373 14.1497 7.92263 13.9563 7.5469C13.8432 7.31833 13.663 7.12668 13.448 6.9909C13.3805 6.94564 13.3064 6.91201 13.2344 6.87535ZM11.1656 8.96991C11.2632 8.95372 11.3606 8.93628 11.4572 8.91377C11.492 8.9158 11.5272 8.91833 11.5623 8.92111C11.6033 9.62755 11.7755 10.3186 11.9919 10.9899C12.1138 11.4119 12.2496 11.8308 12.3383 12.2617C12.3884 12.5269 12.4068 12.8017 12.3573 13.0685C12.3118 13.3016 12.2369 13.5277 12.151 13.7489C12.0802 13.9684 11.9113 14.1489 11.8855 14.3833C11.7965 14.3636 11.7082 14.3416 11.6207 14.3168C11.663 14.0983 11.819 13.9315 11.9065 13.7325C12.0215 13.4961 12.1042 13.2452 12.1656 12.9901C12.2068 12.8268 12.2035 12.6551 12.1735 12.4902C12.0885 12.091 11.8898 11.7292 11.7406 11.3519C11.513 10.8172 11.3456 10.2589 11.2172 9.69278C11.175 9.46725 11.1335 9.24197 11.0984 9.01542C11.1204 8.99999 11.1429 8.98482 11.1656 8.96991ZM13.9375 10.4C14.0698 9.91529 14.1633 9.41845 14.1886 8.91605C14.2286 8.91605 14.2685 8.9163 14.3087 8.91681C14.4035 8.93956 14.4999 8.95575 14.5954 8.97547C14.6099 8.98078 14.6384 8.99165 14.6526 8.99696C14.6331 9.22174 14.5838 9.44298 14.5426 9.66447C14.4308 10.1767 14.2847 10.6819 14.0895 11.1689C13.9464 11.5431 13.7616 11.9006 13.6369 12.2819C13.5542 12.531 13.5267 12.8043 13.6066 13.0581C13.6827 13.3408 13.7803 13.62 13.9234 13.8763C14.0071 14.0167 14.1057 14.1529 14.1338 14.3178C14.047 14.3413 13.9598 14.3623 13.8726 14.383C13.8546 14.2766 13.8202 14.1732 13.7646 14.0804C13.6994 13.9636 13.6405 13.8432 13.5929 13.7183C13.5113 13.5039 13.4402 13.2849 13.397 13.0594C13.358 12.8379 13.3644 12.6098 13.3967 12.3878C13.485 11.8713 13.6556 11.3739 13.8015 10.8718C13.8518 10.716 13.8976 10.5588 13.9375 10.4Z" fill="white"/>
<path d="M9.67773 5.6493C9.91086 5.31807 10.1951 5.02048 10.527 4.78735C10.5341 4.8005 10.5485 4.8273 10.5556 4.8407C10.5597 4.84854 10.568 4.86447 10.5723 4.87256C10.2431 5.09709 9.96345 5.38963 9.7326 5.71301C9.71414 5.69177 9.69569 5.67054 9.67773 5.6493Z" fill="#FDC647"/>
<path d="M15.1809 4.87613C15.1971 4.84604 15.2138 4.81646 15.2304 4.78662C15.5609 5.02177 15.8491 5.31759 16.0805 5.65059C16.055 5.67891 16.0302 5.70722 16.0057 5.73554C15.7761 5.4114 15.4977 5.12164 15.171 4.89433L15.1809 4.87613Z" fill="#FFDE54"/>
<path d="M10.5722 4.8728C10.5973 4.9216 10.6233 4.96989 10.6491 5.01844L10.6511 5.02249C10.4542 5.1393 10.2951 5.30668 10.1351 5.468C10.0236 5.57849 9.94569 5.71856 9.82559 5.82071C9.80081 5.7929 9.77654 5.76458 9.75227 5.73626L9.73254 5.71325C9.96339 5.38987 10.243 5.09733 10.5722 4.8728Z" fill="#FFE377"/>
<path d="M11.5146 4.89421C11.5426 4.8755 11.5758 4.88359 11.6071 4.88713C11.5414 4.93947 11.4794 4.99737 11.4301 5.06564C11.3305 5.19838 11.2911 5.36905 11.3126 5.53264C11.329 5.70736 11.376 5.87727 11.4218 6.04591C11.4402 6.12505 11.4784 6.19737 11.5234 6.26462C11.5133 6.26816 11.4928 6.2755 11.4827 6.27904C11.4342 6.29876 11.3871 6.32151 11.3419 6.3473C11.3204 6.30634 11.2992 6.26538 11.2777 6.22467C11.1227 5.93087 10.9715 5.63504 10.817 5.34099C10.8137 5.33467 10.8071 5.32228 10.8038 5.31621C10.9027 5.26817 10.9856 5.19358 11.0855 5.14731C11.2357 5.07525 11.3651 4.96754 11.5146 4.89421ZM11.5133 6.67853C11.5828 6.61633 11.6716 6.58422 11.7614 6.5645C11.8562 6.56551 11.9528 6.56829 12.0435 6.59888C12.0964 6.61785 12.1474 6.64136 12.1985 6.66513V6.81127C12.0799 6.8358 11.9659 6.87701 11.8539 6.92202C11.7952 6.9468 11.7376 6.97385 11.6812 7.00318C11.6273 6.8937 11.5699 6.78624 11.5133 6.67853Z" fill="#1E2129"/>
<path d="M14.1492 4.88816C14.2413 4.86641 14.3143 4.94151 14.391 4.97918C14.5078 5.06995 14.616 5.18145 14.6564 5.32785C14.7194 5.54428 14.6248 5.76047 14.6059 5.97538C14.5659 6.06009 14.5227 6.14302 14.4784 6.22519C14.4567 6.2659 14.4355 6.30686 14.4147 6.34757C14.3697 6.32153 14.3229 6.29902 14.2751 6.2793C14.2643 6.27526 14.2428 6.26767 14.2319 6.26362C14.2729 6.20345 14.3093 6.13897 14.3267 6.06767C14.3877 5.85124 14.4516 5.6305 14.4478 5.4037C14.4438 5.28259 14.3978 5.16553 14.3277 5.06767C14.2774 4.99941 14.216 4.93974 14.1492 4.88816ZM13.7707 6.58221C13.8387 6.56881 13.9083 6.564 13.9778 6.56375C14.0749 6.5774 14.1695 6.61305 14.2438 6.67829C14.1856 6.78575 14.1293 6.89422 14.0729 7.00243C13.9763 6.95262 13.8767 6.90863 13.774 6.87298C13.7065 6.84946 13.6367 6.83379 13.5697 6.81027C13.5495 6.76451 13.5631 6.70964 13.5601 6.66059C13.6286 6.6305 13.6982 6.60142 13.7707 6.58221ZM10.7879 6.91874C10.8453 6.98499 10.9025 7.05149 10.9637 7.11419C10.9583 7.1688 10.9551 7.22317 10.9525 7.27778C10.9505 7.32936 10.95 7.38094 10.9508 7.43252C10.9518 7.48865 10.9548 7.54478 10.9591 7.60091C10.9892 7.71217 10.9202 7.80749 10.884 7.90711C10.8431 7.87803 10.8018 7.84921 10.7609 7.82038L10.7548 7.81634C10.7826 7.75844 10.8233 7.69952 10.8114 7.63176C10.7829 7.39535 10.7614 7.15642 10.7879 6.91874ZM10.6754 9.02114C10.7214 9.02695 10.7675 9.03302 10.8137 9.03909C10.8147 9.04541 10.8165 9.05805 10.8175 9.06437C10.8448 9.21886 10.8736 9.37335 10.9121 9.52531C10.8676 9.53036 10.8231 9.53542 10.7788 9.54073C10.7611 9.54275 10.7255 9.54655 10.7078 9.54857C10.727 9.53542 10.7462 9.52202 10.7652 9.50811C10.728 9.3473 10.6858 9.1865 10.6754 9.02114ZM14.7179 9.97511C14.7641 9.82467 14.8079 9.67347 14.8456 9.52076C14.8845 9.5248 14.9237 9.52885 14.9631 9.53314C14.9679 9.53365 14.9778 9.53466 14.9826 9.53517C14.9447 9.69749 14.8956 9.85704 14.8448 10.0156C14.8023 10.0022 14.7598 9.98852 14.7179 9.97511ZM11.3027 11.0335C11.3333 11.0004 11.3634 10.9665 11.3935 10.9329C11.4769 11.1314 11.5642 11.3283 11.6587 11.522C11.6365 11.562 11.6145 11.6019 11.5925 11.6421C11.4769 11.4489 11.3912 11.2398 11.3027 11.0335Z" fill="#BA1716"/>
<path d="M15.1129 5.00502C15.1319 4.96811 15.1511 4.93119 15.1711 4.89453C15.4977 5.12184 15.7761 5.4116 16.0057 5.73574L15.9974 5.74535C15.9645 5.78252 15.9321 5.82019 15.8995 5.85736C15.8254 5.7317 15.7359 5.61539 15.6307 5.51425C15.4611 5.34662 15.2995 5.16684 15.0955 5.03966C15.0998 5.03107 15.1086 5.01362 15.1129 5.00502Z" fill="#FFE892"/>
<path d="M14.391 4.97925C14.6036 5.03892 14.7841 5.16837 14.9692 5.28317C14.9647 5.29151 14.9556 5.30845 14.951 5.31705C14.836 5.53651 14.7252 5.75826 14.6059 5.97545C14.6248 5.76053 14.7194 5.54435 14.6565 5.32792C14.616 5.18152 14.5078 5.07002 14.391 4.97925ZM10.0112 6.0331C10.0284 6.05307 10.0459 6.0733 10.0638 6.09353C10.3032 6.36635 10.5429 6.63917 10.7824 6.91224L10.7879 6.91881C10.7614 7.15648 10.7829 7.39542 10.8115 7.63183C10.8233 7.69959 10.7826 7.7585 10.7548 7.81641C10.3434 7.52816 9.93233 7.23992 9.52095 6.95168C9.5791 6.8245 9.63422 6.6958 9.69743 6.5709C9.77405 6.37646 9.89946 6.20781 10.0112 6.0331ZM9.21501 8.82854C9.69718 8.89225 10.1794 8.95547 10.6615 9.01918L10.6754 9.0212C10.6858 9.18656 10.728 9.34737 10.7652 9.50818C10.7462 9.52209 10.727 9.53549 10.7078 9.54864C10.2274 9.60097 9.74699 9.65458 9.26659 9.70565C9.25167 9.70464 9.22158 9.70262 9.20667 9.70161C9.24434 9.60047 9.21728 9.49225 9.21526 9.38783C9.21728 9.20148 9.20439 9.01514 9.21526 8.82854M14.9829 9.53524C15.4779 9.58783 15.9723 9.64421 16.4673 9.69655C16.484 9.69857 16.5176 9.70211 16.5346 9.70413C16.5131 10.004 16.4759 10.3019 16.4405 10.6005C15.908 10.4075 15.3768 10.2111 14.8436 10.0204L14.8451 10.0156C14.8959 9.85711 14.9449 9.69756 14.9829 9.53524ZM10.0201 12.4303C10.4496 11.9666 10.8739 11.4981 11.303 11.0336C11.3915 11.2399 11.4772 11.449 11.5927 11.6422C11.591 11.6455 11.5872 11.6525 11.5852 11.6558C11.3146 12.1484 11.0448 12.6409 10.7743 13.1332C10.7685 13.1441 10.7568 13.1656 10.751 13.1764C10.5156 13.0538 10.3384 12.8452 10.1654 12.6488C10.1331 12.561 10.0264 12.5294 10.0201 12.4303Z" fill="#E30613"/>
<path d="M10.135 5.46797C10.2951 5.30666 10.4541 5.13927 10.6511 5.02246C10.6824 5.08112 10.7125 5.14054 10.7429 5.1997C10.5194 5.38377 10.2918 5.56886 10.1163 5.80172C10.0663 5.86064 10.0331 5.94104 9.95603 5.96961C9.94592 5.95798 9.92594 5.93497 9.91608 5.92334C9.88599 5.88896 9.85565 5.85482 9.82556 5.82069C9.94566 5.71854 10.0235 5.57846 10.135 5.46797Z" fill="#FFDE52"/>
<path d="M15.0375 5.15333C15.0569 5.1154 15.0759 5.07748 15.0954 5.03955C15.2994 5.16673 15.461 5.3465 15.6306 5.51414C15.7358 5.61528 15.8253 5.73158 15.8994 5.85725C15.8658 5.89492 15.8322 5.93259 15.7993 5.97052C15.6825 5.81325 15.5523 5.66635 15.4167 5.52501C15.2964 5.39808 15.1505 5.29973 15.0236 5.17988L15.0375 5.15333Z" fill="#FFDF64"/>
<path d="M11.3126 5.53268C11.2911 5.36909 11.3305 5.19842 11.4301 5.06567C11.4754 5.2232 11.5118 5.38274 11.5563 5.54051C11.5639 5.57364 11.5824 5.60246 11.6016 5.63002C11.5399 5.69121 11.4873 5.762 11.4529 5.8419C11.4499 5.8505 11.4438 5.86795 11.4408 5.87654C11.4307 5.93242 11.4238 5.98906 11.4218 6.04595C11.376 5.8773 11.329 5.70739 11.3126 5.53268Z" fill="#A8CEE6"/>
<path d="M14.3278 5.06763C14.3978 5.16548 14.4439 5.28254 14.4479 5.40366C14.4517 5.63046 14.3877 5.85119 14.3268 6.06762C14.3321 6.00391 14.3275 5.93994 14.3159 5.87723C14.3152 5.87268 14.3136 5.86358 14.3126 5.85903C14.2765 5.78039 14.2297 5.70631 14.1705 5.64285C14.231 5.45347 14.2737 5.25903 14.3278 5.06763ZM14.5774 7.85447C14.6168 7.70883 14.5637 7.55814 14.5933 7.413C14.6153 7.44082 14.6378 7.46913 14.6603 7.4972C14.7076 7.49998 14.7549 7.50251 14.8026 7.50529C14.8016 7.57305 14.792 7.64056 14.7928 7.70858C14.8125 7.77533 14.8464 7.83677 14.8699 7.90226C14.9382 8.08987 14.9726 8.28911 14.9768 8.4886C14.9814 8.635 14.9708 8.78114 14.9549 8.92652C14.8433 8.90427 14.7326 8.87823 14.6224 8.85092C14.6355 8.85269 14.6618 8.85623 14.6747 8.85775C14.7035 8.52096 14.6823 8.1776 14.5774 7.85447Z" fill="#A9CFE7"/>
<path d="M14.9693 5.28309C14.9875 5.24871 15.0054 5.21432 15.0236 5.17993C15.1505 5.29978 15.2964 5.39814 15.4168 5.52506C15.5523 5.6664 15.6825 5.8133 15.7993 5.97057C15.7766 5.99636 15.7543 6.02215 15.7321 6.04794C15.6241 5.98574 15.5776 5.86286 15.4904 5.77867C15.323 5.61204 15.1647 5.4262 14.951 5.31697C14.9556 5.30838 14.9647 5.29144 14.9693 5.28309ZM16.2117 11.5392L16.2155 11.5417C16.2694 11.5774 16.323 11.6135 16.3768 11.6497C16.2567 11.9855 16.0926 12.3063 15.8871 12.5979C15.8744 12.5839 15.8491 12.5566 15.8368 12.5427C15.8059 12.5096 15.7753 12.4767 15.7455 12.4431C15.8145 12.3271 15.899 12.2199 15.9564 12.097C16.0031 11.9956 16.0775 11.9084 16.1131 11.8017C16.1432 11.7132 16.1768 11.6259 16.2117 11.5392Z" fill="#FFDB2E"/>
<path d="M10.7429 5.19971C10.7629 5.23864 10.7834 5.27758 10.8038 5.31627C10.8071 5.32234 10.8137 5.33473 10.817 5.34105C10.6205 5.43561 10.4812 5.61007 10.326 5.75723C10.2357 5.86696 10.1303 5.96608 10.0638 6.09351C10.0458 6.07328 10.0284 6.05305 10.0112 6.03308C9.99246 6.01184 9.97426 5.99085 9.95605 5.96962C10.0332 5.94104 10.0663 5.86064 10.1164 5.80173C10.2918 5.56886 10.5194 5.38378 10.7429 5.19971Z" fill="#FFD91E"/>
<path d="M12.1907 5.31454C12.6405 5.18635 13.129 5.18736 13.578 5.31833C13.6374 5.33729 13.6964 5.35777 13.7545 5.38103C13.9067 5.44349 14.0526 5.52667 14.1704 5.64273C14.2296 5.70619 14.2764 5.78027 14.3125 5.85891C14.2602 5.87105 14.2069 5.8799 14.1532 5.87686C14.0051 5.8718 13.8567 5.87155 13.7093 5.88419C13.621 5.87484 13.5323 5.86902 13.4443 5.88495C13.3927 5.85057 13.3376 5.82149 13.2817 5.79545C13.0435 5.71706 12.7828 5.7115 12.5409 5.77497C12.4744 5.79671 12.4104 5.82579 12.35 5.86068L12.3404 5.86675C12.2557 5.83843 12.1664 5.85537 12.0797 5.85208C11.8708 5.845 11.661 5.86548 11.4529 5.84172C11.4873 5.76182 11.5399 5.69102 11.6016 5.62983C11.7158 5.51732 11.8592 5.4402 12.0061 5.37926C12.0665 5.35524 12.1285 5.33426 12.1907 5.31454ZM12.5535 5.31378C12.3055 5.34007 12.0443 5.39671 11.8443 5.55246C11.9363 5.55701 12.0301 5.53527 12.1209 5.56005C12.2147 5.58078 12.2577 5.68799 12.3512 5.70948C12.5419 5.74311 12.7151 5.61315 12.9067 5.63717C13.0711 5.63514 13.2198 5.74538 13.3856 5.70695C13.4799 5.68799 13.5237 5.58205 13.6162 5.56055C13.7062 5.53527 13.7993 5.55904 13.8911 5.55246C13.6 5.32592 13.2149 5.31707 12.864 5.29026C12.7606 5.29962 12.6574 5.31428 12.5535 5.31378Z" fill="#598FAA"/>
<path d="M12.5536 5.31404C12.6575 5.31455 12.7607 5.29988 12.8641 5.29053C13.215 5.31733 13.6001 5.32618 13.8911 5.55273C13.7993 5.5593 13.7063 5.53553 13.6163 5.56082C13.5237 5.58231 13.48 5.68825 13.3857 5.70721C13.2198 5.74565 13.0712 5.63541 12.9068 5.63743C12.7152 5.61341 12.542 5.74337 12.3513 5.70974C12.2578 5.68825 12.2148 5.58104 12.121 5.56031C12.0302 5.53553 11.9364 5.55728 11.8444 5.55273C12.0444 5.39697 12.3055 5.34034 12.5536 5.31404Z" fill="#6094AF"/>
<path d="M14.6059 5.9753C14.7253 5.75811 14.836 5.53636 14.9511 5.31689C15.1647 5.42612 15.323 5.61196 15.4904 5.77859C15.5776 5.86278 15.6241 5.98567 15.7321 6.04787L15.7308 6.04938C15.4787 6.33661 15.2254 6.62308 14.9751 6.91183C14.9336 6.72953 14.8873 6.53383 14.7447 6.40134C14.6709 6.32144 14.566 6.28604 14.4785 6.22511C14.5227 6.14293 14.566 6.06 14.6059 5.9753ZM10.326 5.7571C10.4813 5.60994 10.6206 5.43548 10.8171 5.34091C10.9716 5.63497 11.1228 5.9308 11.2777 6.2246C11.1898 6.29161 11.0783 6.32422 11.0042 6.41019C10.8643 6.5404 10.8219 6.73332 10.7824 6.91208C10.543 6.63901 10.3033 6.3662 10.0638 6.09338C10.1303 5.96594 10.2358 5.86683 10.326 5.7571ZM14.6669 10.5078L14.6704 10.51C15.1849 10.8519 15.6964 11.1983 16.2117 11.5391C16.1768 11.6258 16.1432 11.7131 16.1131 11.8016C16.0775 11.9083 16.0031 11.9955 15.9564 12.0969C15.899 12.2198 15.8145 12.327 15.7455 12.443C15.3164 11.9725 14.8856 11.5037 14.4547 11.0352L14.4552 11.0337C14.5303 10.8602 14.6067 10.687 14.6669 10.5078ZM10.7741 13.133C11.0446 12.6408 11.3144 12.1482 11.5849 11.6557C11.7589 11.9684 11.926 12.3169 11.8823 12.685C11.8396 12.9947 11.6944 13.2769 11.5556 13.5528C11.4209 13.4987 11.2982 13.4193 11.1614 13.3702C11.0279 13.2987 10.9018 13.2142 10.7741 13.133Z" fill="#FFD600"/>
<path d="M9.67772 5.64941C9.69568 5.67065 9.71413 5.69189 9.73259 5.71313L9.75231 5.73614C9.60617 5.96218 9.46786 6.19353 9.35889 6.44006C9.31312 6.54043 9.27798 6.64663 9.21426 6.73791C9.18872 6.72071 9.16293 6.70377 9.1374 6.68708C9.27646 6.32173 9.45143 5.96876 9.67772 5.64941ZM8.73664 8.76596C8.75813 8.76799 8.80112 8.77203 8.82261 8.77405L8.8221 8.77962C8.80567 9.10528 8.83247 9.43195 8.81098 9.75686C8.79302 9.75812 8.75712 9.7604 8.73917 9.76141C8.72273 9.42968 8.72071 9.09769 8.73664 8.76596ZM16.908 9.74548C16.9169 9.74649 16.9343 9.74877 16.9432 9.74978C16.9614 9.75205 16.9973 9.75711 17.0155 9.75939C16.9978 10.0969 16.9578 10.4335 16.8959 10.7657C16.8656 10.7548 16.8355 10.7437 16.8056 10.7331L16.8013 10.7313C16.8319 10.5414 16.8668 10.3518 16.8828 10.1596C16.8913 10.0213 16.9252 9.88454 16.908 9.74548ZM9.6709 12.8115C9.69947 12.7801 9.72829 12.7493 9.75737 12.7182C9.86002 12.9131 10.0143 13.0724 10.1703 13.2251C10.284 13.3442 10.4249 13.4332 10.5389 13.552C10.5235 13.5877 10.5078 13.6233 10.4926 13.6592C10.1738 13.4251 9.89694 13.1356 9.6709 12.8115Z" fill="#CD301F"/>
<path d="M16.0805 5.65063C16.3025 5.97149 16.4815 6.32118 16.617 6.68704C16.588 6.70651 16.5594 6.72598 16.5311 6.74595C16.4302 6.51915 16.3462 6.283 16.212 6.07288C16.144 5.96138 16.0858 5.84254 15.9973 5.7452L16.0057 5.73559C16.0302 5.70727 16.055 5.67895 16.0805 5.65063Z" fill="#114D8B"/>
<path d="M9.75228 5.73608C9.77656 5.7644 9.80083 5.79272 9.82561 5.82053C9.8557 5.85467 9.88604 5.8888 9.91613 5.92319C9.77681 6.04809 9.7088 6.22837 9.61625 6.38665C9.52473 6.53861 9.47492 6.71004 9.40538 6.87236C9.34875 6.83317 9.29262 6.79272 9.23648 6.75302C9.23092 6.74923 9.2198 6.74164 9.21423 6.73785C9.27795 6.64657 9.31309 6.54038 9.35886 6.44C9.46784 6.19348 9.60614 5.96213 9.75228 5.73608ZM16.7232 9.72494C16.7411 9.72697 16.777 9.73101 16.7952 9.73303C16.8324 9.73708 16.8703 9.74113 16.908 9.74542C16.9252 9.88449 16.8913 10.0213 16.8827 10.1596C16.8668 10.3517 16.8319 10.5414 16.8013 10.7313C16.732 10.706 16.6633 10.6807 16.5942 10.6562C16.6114 10.6112 16.6317 10.5669 16.64 10.5194C16.6815 10.2562 16.7067 9.99068 16.7232 9.72494Z" fill="#E84831"/>
<path d="M12.5409 5.77509C12.7829 5.71163 13.0436 5.71719 13.2817 5.79557C13.2446 5.83021 13.2152 5.87168 13.1803 5.90809C12.9634 5.92174 12.7455 5.90505 12.528 5.91112C12.5303 5.86561 12.5353 5.82035 12.5409 5.77509ZM13.5586 6.29519C13.7275 6.22212 13.9174 6.1943 14.0989 6.23173C14.0274 6.23527 13.954 6.23476 13.8853 6.25625C13.8438 6.31972 13.8602 6.39658 13.8691 6.46636C13.8552 6.47016 13.8271 6.478 13.8132 6.48179C13.7791 6.4914 13.746 6.50176 13.7128 6.51339C13.6615 6.5316 13.6112 6.55233 13.5609 6.57306C13.5594 6.49064 13.5568 6.40821 13.5558 6.32553L13.5586 6.29519ZM11.107 7.51617C11.1116 7.67116 11.0845 7.83197 11.1391 7.98115C11.0704 8.26737 11.056 8.5637 11.0817 8.85624C11.0962 8.85472 11.1252 8.85194 11.1399 8.85043C11.0271 8.87874 10.9141 8.90555 10.8003 8.92881C10.7841 8.78494 10.7763 8.64006 10.7786 8.49518C10.7831 8.29518 10.8185 8.09594 10.884 7.90707C10.9202 7.80745 10.9892 7.71212 10.9591 7.60087C11.0072 7.57053 11.0565 7.54247 11.107 7.51617Z" fill="#AACFE7"/>
<path d="M15.8994 5.85737C15.932 5.8202 15.9643 5.78253 15.9972 5.74536C16.0857 5.84271 16.1439 5.96154 16.2119 6.07305C16.3461 6.28316 16.4301 6.51932 16.531 6.74612C16.4318 6.81666 16.3312 6.88493 16.2316 6.95471C16.2147 6.94662 16.198 6.93853 16.1815 6.93044C16.1178 6.73777 16.0268 6.55522 15.9292 6.37798C15.8695 6.2647 15.8129 6.14839 15.7307 6.04953L15.732 6.04802C15.7542 6.02223 15.7765 5.99644 15.7992 5.97064C15.8321 5.93272 15.8657 5.89504 15.8994 5.85737Z" fill="#085FAA"/>
<path d="M12.35 5.86086C12.4104 5.82597 12.4744 5.79689 12.5409 5.77515C12.5353 5.82041 12.5302 5.86566 12.528 5.91118C12.5262 5.96781 12.5267 6.0242 12.5267 6.08058C12.4728 6.04999 12.4117 6.04367 12.3512 6.0419C12.3497 5.98147 12.3495 5.92104 12.35 5.86086Z" fill="#D2E5F0"/>
<path d="M13.1803 5.90817C13.2152 5.87176 13.2445 5.83029 13.2817 5.79565C13.3375 5.8217 13.3927 5.85077 13.4442 5.88516C13.5737 5.98048 13.576 6.15065 13.5585 6.29527L13.5558 6.32561C13.5527 6.31221 13.5464 6.28491 13.5431 6.27151C13.5391 6.20273 13.5388 6.13421 13.5345 6.06569C13.4976 6.06948 13.4607 6.07328 13.4243 6.07707C13.4149 6.02675 13.4061 5.97644 13.3972 5.92612C13.3469 5.91601 13.2968 5.9064 13.2465 5.89755C13.2326 5.95014 13.2407 6.01588 13.2028 6.05785C12.9788 6.08541 12.7502 6.04142 12.5267 6.08061C12.5267 6.02422 12.5262 5.96784 12.5279 5.9112C12.7454 5.90514 12.9633 5.92182 13.1803 5.90817Z" fill="#B9D7EB"/>
<path d="M11.4408 5.87644C11.4438 5.86784 11.4499 5.85039 11.4529 5.8418C11.661 5.86556 11.8709 5.84508 12.0797 5.85216C12.1665 5.85545 12.2557 5.83851 12.3404 5.86683C12.2431 5.93484 12.1778 6.04407 12.1953 6.16619C12.195 6.20867 12.196 6.25115 12.1976 6.29388C12.0542 6.23421 11.8987 6.2069 11.7437 6.21853C11.7027 6.2241 11.662 6.23092 11.6218 6.23901C11.5268 6.13788 11.4719 6.01019 11.4408 5.87644Z" fill="#6698B3"/>
<path d="M12.3405 5.86691L12.3501 5.86084C12.3496 5.92102 12.3501 5.98145 12.3513 6.04188C12.3513 6.05502 12.3521 6.08132 12.3523 6.09447C12.3066 6.13113 12.2507 6.14984 12.1953 6.16627C12.1779 6.04415 12.2431 5.93492 12.3405 5.86691Z" fill="#BDD9EC"/>
<path d="M13.4443 5.88517C13.5323 5.86924 13.6211 5.87506 13.7093 5.88442C13.8567 5.87177 14.0051 5.87203 14.1533 5.87708C14.2069 5.88012 14.2603 5.87127 14.3126 5.85913C14.3136 5.86368 14.3151 5.87278 14.3159 5.87734C14.2883 6.0121 14.2236 6.13347 14.1364 6.2384C14.127 6.23688 14.1083 6.23359 14.0989 6.23182C13.9174 6.1944 13.7275 6.22221 13.5586 6.29529C13.5761 6.15066 13.5738 5.9805 13.4443 5.88517Z" fill="#6799B4"/>
<path d="M11.4407 5.87646C11.4718 6.01022 11.5267 6.1379 11.6218 6.23904C11.5884 6.24612 11.5555 6.25447 11.5234 6.26458C11.4784 6.19732 11.4402 6.12501 11.4218 6.04587C11.4238 5.98898 11.4306 5.93234 11.4407 5.87646ZM14.1363 6.23828C14.2235 6.13335 14.2882 6.01199 14.3158 5.87722C14.3274 5.93993 14.332 6.0039 14.3267 6.06761C14.3092 6.13892 14.2728 6.20339 14.2319 6.26357C14.2003 6.25371 14.1681 6.24562 14.1363 6.23828Z" fill="#49839F"/>
<path d="M13.2465 5.89746C13.2968 5.90631 13.3469 5.91592 13.3972 5.92603C13.4061 5.97635 13.4149 6.02666 13.4243 6.07698C13.4607 6.07319 13.4976 6.06939 13.5345 6.0656C13.5388 6.13412 13.539 6.20264 13.5431 6.27142C13.5019 6.26889 13.4612 6.26611 13.4205 6.26333C13.4109 6.20492 13.4063 6.14499 13.3873 6.08836C13.3517 6.04993 13.2935 6.07546 13.248 6.07116C13.2402 6.13286 13.2318 6.19455 13.2238 6.25625C12.9932 6.29822 12.7562 6.24462 12.5251 6.28507C12.5262 6.21706 12.5254 6.14879 12.5267 6.08052C12.7502 6.04133 12.9787 6.08532 13.2028 6.05776C13.2407 6.01579 13.2326 5.95005 13.2465 5.89746Z" fill="#C7DFEE"/>
<path d="M9.61627 6.3868C9.70881 6.22852 9.77682 6.04824 9.91614 5.92334C9.926 5.93497 9.94597 5.95798 9.95609 5.96961C9.97429 5.99085 9.9925 6.01184 10.0112 6.03307C9.89945 6.20779 9.77404 6.37644 9.69743 6.57087C9.63422 6.69578 9.5791 6.82447 9.52094 6.95165C9.49389 6.9332 9.46734 6.91499 9.44054 6.89653C9.43169 6.89047 9.41425 6.87858 9.4054 6.87251C9.47493 6.71019 9.52474 6.53876 9.61627 6.3868Z" fill="#E62A21"/>
<path d="M12.3512 6.04175C12.4117 6.04352 12.4729 6.04984 12.5267 6.08043C12.5254 6.1487 12.5262 6.21697 12.5252 6.28498C12.5247 6.30395 12.5237 6.34162 12.5232 6.36033C12.4655 6.3444 12.4059 6.34693 12.3479 6.35856C12.3464 6.27032 12.3512 6.18233 12.3522 6.09434C12.3522 6.08119 12.3515 6.0549 12.3512 6.04175Z" fill="#E6F1F7"/>
<path d="M13.2481 6.07127C13.2937 6.07557 13.3518 6.05003 13.3875 6.08847C13.4064 6.1451 13.411 6.20503 13.4206 6.26343C13.4613 6.26621 13.502 6.269 13.5432 6.27152C13.5465 6.28492 13.5528 6.31223 13.5559 6.32563C13.5569 6.40831 13.5594 6.49074 13.5609 6.57317C13.5609 6.59516 13.5604 6.63865 13.5601 6.66065C13.5632 6.7097 13.5495 6.76457 13.5698 6.81033C13.6368 6.83385 13.7065 6.84952 13.7741 6.87304C13.7538 6.90768 13.7341 6.94257 13.7144 6.97721C13.5581 6.92816 13.4001 6.87203 13.2345 6.87531C13.3065 6.91198 13.3806 6.9456 13.4481 6.99086C13.4355 7.13852 13.4585 7.28593 13.4497 7.43359C13.4537 7.56128 13.4418 7.68922 13.4486 7.8169C13.4524 7.88492 13.4484 7.95344 13.4352 8.02044C13.1088 7.76077 12.6041 7.77038 12.2901 8.04623C12.2762 7.8341 12.2894 7.6212 12.2808 7.40881C12.2717 7.27759 12.3017 7.14434 12.2666 7.01539C12.3399 6.96255 12.4229 6.92588 12.503 6.88416C12.4909 6.87936 12.4671 6.86975 12.4552 6.86495C12.4507 6.83107 12.4469 6.79693 12.4438 6.7628C12.4949 6.75319 12.5462 6.74535 12.5981 6.73751C12.5298 6.62399 12.5119 6.49074 12.5232 6.36052C12.5237 6.34181 12.5248 6.30414 12.5253 6.28518C12.7564 6.24472 12.9933 6.29833 13.2239 6.25635C13.232 6.19466 13.2403 6.13297 13.2481 6.07127ZM13.1619 6.73954C13.2464 6.75218 13.3316 6.76406 13.417 6.77089C13.4256 6.68669 13.4148 6.603 13.4047 6.51982C13.3561 6.50717 13.3063 6.50717 13.257 6.50743C13.2224 6.58379 13.1948 6.66293 13.1619 6.73954Z" fill="#DBEBF2"/>
<path d="M14.975 6.91177C15.2253 6.62302 15.4787 6.33655 15.7308 6.04932C15.813 6.14818 15.8696 6.26449 15.9293 6.37776C16.0269 6.555 16.1179 6.73756 16.1816 6.93022C16.198 6.93831 16.2147 6.94641 16.2317 6.9545C15.8203 7.24198 15.4112 7.5325 14.9973 7.81619C14.9682 7.75525 14.925 7.69406 14.9417 7.62327C14.9763 7.39015 14.992 7.15348 14.9695 6.91834L14.975 6.91177ZM9.22005 8.31631C9.23877 8.18281 9.23927 8.0445 9.28933 7.91707C9.73181 8.08951 10.1745 8.26043 10.6165 8.43388C10.62 8.43515 10.6271 8.43793 10.6307 8.43919C10.6206 8.63338 10.6456 8.82604 10.6615 9.01896C10.1793 8.95525 9.69717 8.89204 9.215 8.82832C9.21121 8.82781 9.20337 8.8268 9.19932 8.8263C9.18567 8.76587 9.16949 8.70291 9.18946 8.64197C9.22208 8.53553 9.18137 8.42175 9.22005 8.31631ZM14.6704 10.51C14.728 10.3466 14.7925 10.1858 14.8433 10.0202C15.3765 10.2109 15.9078 10.4073 16.4403 10.6002L16.4628 10.6086C16.439 10.7029 16.418 10.7985 16.4129 10.8961C16.4109 10.9831 16.3568 11.0559 16.3376 11.1388C16.3083 11.2766 16.2468 11.4045 16.2155 11.5416L16.2117 11.5391C15.6964 11.1982 15.1849 10.8518 14.6704 10.51ZM16.2238 13.6973C16.2289 13.6655 16.2681 13.6935 16.2754 13.7102C16.3138 13.7686 16.3462 13.8306 16.3821 13.8908C16.4312 13.824 16.4582 13.7401 16.5191 13.6834L16.547 13.6938C16.5482 13.8205 16.552 13.9479 16.5444 14.0746L16.5055 14.0827C16.5022 13.9803 16.5032 13.8779 16.505 13.7755C16.4665 13.8288 16.4403 13.891 16.397 13.9408C16.3252 13.9342 16.3138 13.8263 16.2648 13.781C16.2628 13.8794 16.264 13.978 16.2635 14.0763C16.2519 14.0763 16.2289 14.0763 16.2172 14.0763C16.2215 13.9502 16.2079 13.822 16.2238 13.6971M15.8701 13.6925C15.9695 13.6865 16.0701 13.6847 16.1695 13.6966C16.1381 13.7444 16.0812 13.7267 16.0347 13.7302C16.0352 13.8455 16.0342 13.961 16.0357 14.0763C16.0251 14.0763 16.0033 14.0758 15.9925 14.0756C15.9826 13.9603 15.991 13.8445 15.9884 13.7289C15.948 13.7287 15.9078 13.7287 15.8676 13.7287L15.8701 13.6925ZM12.4772 15.1355C13.6797 15.0162 14.9353 15.4392 15.7884 16.3021C15.7439 16.3557 15.6999 16.4101 15.6567 16.465C14.991 15.7954 14.0731 15.3906 13.1318 15.3355C12.0223 15.2599 10.8848 15.6715 10.1007 16.4642C10.056 16.4106 10.012 16.3565 9.96797 16.3024C10.6309 15.6318 11.5412 15.2222 12.4772 15.1355ZM11.8704 15.6991C12.0769 15.6559 12.284 15.6146 12.4911 15.5729C12.507 15.6505 12.5227 15.7284 12.5379 15.8065C12.3781 15.8382 12.2193 15.8733 12.0592 15.9016C12.0678 15.9565 12.0777 16.0116 12.0891 16.0662C12.237 16.0394 12.3834 16.0048 12.5318 15.9792C12.5457 16.0553 12.5614 16.1312 12.5778 16.2068C12.4322 16.2407 12.285 16.2677 12.1384 16.2971C12.1503 16.3451 12.1465 16.4043 12.1859 16.4404C12.2208 16.4612 12.2623 16.4409 12.2994 16.4376C12.4168 16.4131 12.5341 16.3883 12.6519 16.3658C12.6681 16.4442 12.685 16.5226 12.6969 16.602C12.53 16.6253 12.3677 16.6799 12.1993 16.6892C12.0625 16.6976 11.9401 16.5911 11.9161 16.4591C11.8706 16.247 11.8289 16.0341 11.7857 15.8217C11.7664 15.7641 11.8112 15.7034 11.8704 15.6991ZM13.3571 15.87C13.3905 15.7355 13.526 15.6404 13.6643 15.6609C13.8269 15.6852 13.9834 15.7398 14.1434 15.777C14.1227 15.8546 14.107 15.9335 14.0782 16.0086C13.9583 15.9727 13.8367 15.9443 13.7164 15.912C13.6817 15.9064 13.635 15.8852 13.6097 15.9206C13.5857 15.9583 13.5793 16.0038 13.5662 16.0457C13.7098 16.0847 13.8539 16.1221 13.9985 16.1575C13.9844 16.2349 13.9619 16.3105 13.9427 16.3868C13.7975 16.3509 13.6532 16.3122 13.5085 16.2751C13.4741 16.4055 13.4398 16.5357 13.4079 16.6667C13.3288 16.6412 13.1814 16.6465 13.1872 16.5299C13.239 16.3089 13.2989 16.0895 13.3571 15.87ZM10.817 16.2C10.8815 16.1469 10.9465 16.094 11.0117 16.0417C11.1419 16.2 11.2704 16.3598 11.4001 16.5186C11.462 16.5926 11.5068 16.6842 11.5098 16.782C11.5197 17.0854 11.1829 17.3456 10.8921 17.251C10.7988 17.2215 10.7267 17.1509 10.6678 17.0758C10.5462 16.9223 10.418 16.7742 10.2997 16.6184C10.3647 16.5679 10.4284 16.5155 10.4914 16.4624C10.6337 16.6265 10.7611 16.8033 10.9073 16.9636C11.0266 17.0854 11.2463 16.9656 11.2511 16.8086C11.2562 16.7446 11.2155 16.6912 11.1783 16.644C11.0575 16.4963 10.9376 16.3476 10.817 16.2ZM14.9116 16.2839C15.0084 16.1949 15.192 16.3249 15.1444 16.4457C15.0456 16.7856 14.9472 17.1254 14.8481 17.4652C14.7793 17.4007 14.708 17.339 14.6415 17.2725C14.6567 17.2253 14.6716 17.1782 14.6865 17.1309C14.6256 17.0821 14.5624 17.0364 14.4999 16.9899C14.5497 16.9537 14.5998 16.918 14.6504 16.8832C14.6784 16.9036 14.708 16.9229 14.7386 16.94C14.7695 16.8333 14.8018 16.7272 14.8327 16.6207C14.6446 16.7421 14.4562 16.8629 14.2691 16.9858C14.1899 16.9426 14.1085 16.9021 14.0352 16.8495C14.3288 16.6632 14.6193 16.4723 14.9116 16.2839ZM12.4666 16.8933C13.2704 16.7514 14.1487 17.0404 14.6784 17.6692C14.6365 17.7226 14.5937 17.7752 14.5497 17.8268C14.2322 17.446 13.7773 17.1878 13.2908 17.0968C12.5353 16.9484 11.7012 17.226 11.2107 17.8255C11.1609 17.7782 11.1207 17.7226 11.0777 17.6698C11.4269 17.2538 11.9338 16.9838 12.4666 16.8933ZM12.1498 18.4303C12.3432 18.2614 12.6034 18.1843 12.8572 18.1828C13.108 18.1777 13.3669 18.2424 13.5674 18.3984C13.7637 18.5484 13.887 18.7807 13.9237 19.023C13.9654 19.3031 13.9237 19.6058 13.7621 19.8434C13.6039 20.0796 13.3318 20.2263 13.0516 20.2546C13.0296 20.1079 13.0066 19.9613 12.9839 19.8146C13.1568 19.7812 13.3073 19.6556 13.3642 19.4879C13.4408 19.267 13.4251 18.9995 13.2795 18.8096C13.0901 18.5653 12.6719 18.5636 12.48 18.8055C12.3298 18.9972 12.3141 19.2697 12.394 19.4938C12.4522 19.6586 12.6006 19.782 12.772 19.8141C12.7495 19.9615 12.726 20.1092 12.704 20.2568C12.4491 20.2252 12.1993 20.1067 12.038 19.9029C11.8534 19.6753 11.7932 19.3676 11.8251 19.0811C11.8494 18.8349 11.9599 18.5929 12.1498 18.4303ZM14.2643 18.3954C14.3912 18.267 14.5763 18.2131 14.7533 18.2116C14.9439 18.2081 15.1449 18.2644 15.2817 18.4033C15.4188 18.5398 15.4696 18.7469 15.4347 18.9345C15.4031 19.1155 15.3012 19.2753 15.1854 19.4146C15.0296 19.6038 14.835 19.7544 14.661 19.9259C14.9275 19.9274 15.1942 19.9261 15.461 19.9264C15.4623 20.0308 15.4628 20.1352 15.4602 20.2399C15.0076 20.2391 14.5551 20.2399 14.1025 20.2394C14.1022 20.1509 14.1032 20.0627 14.1012 19.9744C14.3095 19.7878 14.526 19.6106 14.7298 19.4189C14.8506 19.3006 14.9692 19.1727 15.0377 19.0159C15.0863 18.9031 15.0969 18.7636 15.0281 18.6566C14.932 18.5105 14.7116 18.4829 14.5685 18.5727C14.4638 18.6397 14.4269 18.7701 14.4304 18.8885C14.3189 18.8758 14.1978 18.8892 14.0926 18.8601C14.0865 18.6915 14.1419 18.5153 14.2643 18.3954ZM16.0779 18.2404C16.3095 18.1767 16.5849 18.2131 16.7591 18.3899C16.9452 18.5785 17.0038 18.8526 17.0193 19.1082C17.0322 19.4126 17.0107 19.7433 16.8322 20.002C16.5965 20.3489 16.014 20.3562 15.7652 20.0212C15.6081 19.8116 15.5679 19.5413 15.5606 19.2864C15.5571 19.0331 15.5801 18.7681 15.705 18.5426C15.7839 18.3984 15.9184 18.2842 16.0779 18.2404ZM16.2208 18.5337C16.1156 18.5562 16.0413 18.6457 16.0038 18.7418C15.9303 18.9302 15.9272 19.1373 15.9331 19.3367C15.9437 19.511 15.9586 19.6998 16.0678 19.844C16.1745 19.985 16.4145 19.9845 16.5196 19.8414C16.6263 19.6976 16.6428 19.5102 16.6526 19.3373C16.6554 19.1165 16.6585 18.8814 16.5533 18.6809C16.4936 18.5615 16.349 18.4991 16.2208 18.5337ZM17.3055 18.3722C17.4764 18.2225 17.7212 18.1886 17.9394 18.225C18.1189 18.2538 18.2921 18.3545 18.3836 18.515C18.4949 18.7069 18.4802 18.9517 18.3816 19.1456C18.243 19.4235 18.0013 19.6273 17.7758 19.8326C17.7447 19.8627 17.705 19.8869 17.6873 19.9279C17.9505 19.9244 18.2137 19.9279 18.4772 19.9259C18.4797 20.0298 18.4774 20.1337 18.4794 20.2376C18.0258 20.2402 17.5722 20.2419 17.1189 20.2369C17.1204 20.1479 17.1199 20.0586 17.1202 19.9699C17.3338 19.7848 17.5502 19.6027 17.7563 19.4091C17.8805 19.2859 18.0043 19.1522 18.066 18.9855C18.111 18.8632 18.1057 18.7087 18.0091 18.6121C17.8769 18.4852 17.6286 18.4877 17.5153 18.6386C17.4602 18.7094 17.4481 18.8017 17.4458 18.889C17.333 18.8826 17.2205 18.8756 17.1078 18.8697C17.1022 18.6867 17.1639 18.4943 17.3055 18.3722ZM5.94624 18.2392C6.4274 18.2392 6.90856 18.2386 7.38997 18.2397C7.38947 18.3833 7.39023 18.5269 7.38947 18.6708C7.07518 18.6708 6.7609 18.6713 6.44661 18.6703C6.44586 18.7939 6.44434 18.9178 6.44763 19.0414C6.7341 19.0402 7.02082 19.0409 7.30755 19.0409C7.30603 19.1757 7.31058 19.3107 7.30502 19.4457C7.01804 19.445 6.73106 19.4419 6.44434 19.447C6.44687 19.5678 6.44636 19.6887 6.44484 19.8096C6.75989 19.8139 7.07493 19.8096 7.38972 19.8113C7.38972 19.9542 7.38972 20.0971 7.38972 20.2397C6.9078 20.2369 6.42588 20.2445 5.94421 20.2359C5.94877 19.5704 5.94497 18.9049 5.94624 18.2392ZM7.77733 18.2397C7.94142 18.2376 8.10577 18.2414 8.26987 18.2371C8.27872 18.6371 8.27164 19.0374 8.27341 19.4376C8.26557 19.5643 8.30426 19.7089 8.42334 19.7739C8.56747 19.8498 8.77227 19.8424 8.88883 19.7193C8.95128 19.6503 8.9705 19.5537 8.96822 19.4632C8.96721 19.0553 8.96822 18.6475 8.96772 18.2397C9.13282 18.2389 9.29818 18.2384 9.46354 18.2397C9.46278 18.6478 9.46304 19.0558 9.46329 19.4639C9.46708 19.6187 9.44053 19.7782 9.36038 19.9127C9.26557 20.0781 9.09363 20.1881 8.91108 20.2328C8.72726 20.2776 8.53232 20.2788 8.34774 20.2364C8.1657 20.1941 7.99174 20.0905 7.89111 19.9297C7.81222 19.8068 7.77758 19.6596 7.77758 19.5148C7.77758 19.0895 7.77758 18.6644 7.77733 18.2394M9.85014 18.2404C10.1695 18.2369 10.4886 18.2399 10.8079 18.2387C11.0077 18.2379 11.2193 18.2829 11.3723 18.4192C11.7401 18.7451 11.5793 19.4735 11.0886 19.5823C11.2023 19.8038 11.3358 20.0151 11.4451 20.2389C11.2691 20.2397 11.0929 20.2389 10.9169 20.2394C10.7907 19.9117 10.6653 19.5838 10.5394 19.2561C10.6458 19.2505 10.7563 19.2703 10.8605 19.2399C11.016 19.1818 11.083 18.9835 11.0327 18.8331C11.0006 18.7411 10.9022 18.6907 10.8094 18.6867C10.6554 18.6811 10.5015 18.6859 10.3475 18.6847C10.3475 19.2027 10.3475 19.7211 10.3477 20.2394C10.1821 20.2391 10.0165 20.2389 9.8509 20.2394C9.85039 19.5732 9.85191 18.9067 9.85014 18.2404ZM19.333 18.2399C19.4906 18.2376 19.6486 18.2392 19.8064 18.2392C19.8064 18.6435 19.8061 19.0477 19.8064 19.4523C19.8971 19.4526 19.9876 19.4523 20.0787 19.4526C20.0789 19.5557 20.0787 19.6589 20.0789 19.762C19.9879 19.7625 19.8971 19.7623 19.8064 19.7623C19.8059 19.9213 19.8069 20.0806 19.8059 20.2397C19.6895 20.2389 19.5732 20.2389 19.4572 20.2399C19.4547 19.6874 19.4584 19.135 19.4552 18.5825C19.2799 18.8442 19.111 19.1099 18.9368 19.3724C18.9194 19.3972 18.907 19.4247 18.8954 19.4526C19.0175 19.4526 19.1396 19.4523 19.262 19.4523C19.2461 19.5552 19.2296 19.6581 19.215 19.7613C18.974 19.7638 18.733 19.7618 18.4923 19.7623C18.4969 19.6718 18.481 19.5785 18.4999 19.49C18.774 19.071 19.0569 18.6576 19.333 18.2399ZM9.15786 21.0488C9.33763 20.8189 9.7088 20.7957 9.93408 20.9701C10.0102 21.0288 10.0567 21.1165 10.081 21.2083C10.0362 21.2088 9.99173 21.2091 9.94749 21.2093C9.85191 20.9385 9.44332 20.8976 9.27265 21.1158C9.1533 21.2705 9.14622 21.4981 9.23421 21.6692C9.35962 21.9104 9.7399 21.9322 9.90779 21.7269C9.9576 21.6675 9.97429 21.5898 9.98213 21.515C9.82031 21.5142 9.65874 21.515 9.49717 21.5145C9.49692 21.4788 9.49692 21.4432 9.49717 21.4078C9.7002 21.4078 9.90349 21.4075 10.1068 21.408C10.1275 21.5668 10.0845 21.741 9.9624 21.851C9.81449 21.9853 9.59376 22.0078 9.40691 21.9577C9.24989 21.9145 9.12043 21.7888 9.07214 21.6333C9.01247 21.4402 9.03143 21.2121 9.15786 21.0488ZM10.3103 21.9661C10.3136 21.6007 10.3075 21.2354 10.3136 20.8702C10.5672 20.872 10.8211 20.8733 11.0747 20.8697C11.0777 20.9102 11.0782 20.9509 11.0762 20.9921C10.8643 20.9893 10.6524 20.9914 10.4408 20.9909C10.44 21.113 10.4428 21.2354 10.4388 21.3577C10.6367 21.3683 10.8355 21.3595 11.034 21.3625C11.0332 21.4 11.0327 21.4376 11.0324 21.4758C10.8352 21.4745 10.638 21.4753 10.441 21.4753C10.4405 21.5989 10.4408 21.7228 10.4408 21.8467C10.6532 21.8467 10.8656 21.8462 11.0779 21.8467C11.0779 21.8864 11.0782 21.9261 11.0785 21.9663C10.8226 21.9691 10.5664 21.9701 10.3103 21.9658M11.2858 20.8715C11.4466 20.8718 11.6074 20.8708 11.7682 20.8715C11.859 20.8713 11.9541 20.8912 12.0261 20.9499C12.1806 21.0695 12.1748 21.3423 12.0122 21.4528C11.9462 21.4998 11.8643 21.5122 11.7857 21.519C11.9138 21.6687 12.0443 21.8166 12.171 21.9676C12.1085 21.9575 12.0213 21.9967 11.9786 21.9337C11.8309 21.7595 11.6812 21.5871 11.5343 21.4123C11.6479 21.4065 11.7664 21.4293 11.8764 21.3936C12.0107 21.3476 12.0425 21.1539 11.9477 21.0561C11.901 21.0088 11.8324 20.9919 11.768 20.9914C11.6509 20.9886 11.5341 20.9924 11.417 20.9896C11.4122 21.3158 11.4193 21.6419 11.4135 21.9683C11.3707 21.9681 11.328 21.9678 11.2858 21.9681C11.2858 21.6025 11.2858 21.2369 11.2858 20.8715ZM12.3224 20.8713C12.372 20.871 12.4216 20.8713 12.4716 20.8723C12.6087 21.0907 12.7462 21.3089 12.885 21.5266C13.0254 21.3115 13.1589 21.0917 13.2936 20.873C13.3434 20.8715 13.3935 20.871 13.4441 20.871C13.4438 21.2369 13.4438 21.6027 13.4438 21.9683C13.4006 21.9678 13.3578 21.9676 13.3151 21.9673C13.3121 21.6707 13.3202 21.3739 13.3108 21.0776C13.169 21.2796 13.0522 21.4988 12.9106 21.7011C12.8969 21.7001 12.8693 21.6983 12.8557 21.6975C12.7174 21.491 12.591 21.2766 12.4529 21.07C12.4511 21.3689 12.4529 21.6677 12.4522 21.9666C12.4087 21.9673 12.3654 21.9678 12.3224 21.9686C12.3224 21.6027 12.3224 21.2371 12.3224 20.8713ZM14.0238 20.8723C14.0749 20.8713 14.1262 20.871 14.1776 20.871C14.3242 21.2364 14.4696 21.6022 14.6157 21.9681C14.5672 21.9681 14.5191 21.9681 14.4711 21.9686C14.4347 21.8781 14.4011 21.7866 14.3657 21.696C14.2489 21.6955 14.1323 21.6968 14.0157 21.695C14.0094 21.6591 14.0031 21.6235 13.9973 21.5881C14.1068 21.5876 14.216 21.5881 14.3255 21.5881C14.2532 21.3936 14.175 21.2015 14.1063 21.0058C13.973 21.3221 13.86 21.647 13.7353 21.9668C13.6881 21.9678 13.6408 21.9681 13.5937 21.9689C13.7336 21.602 13.882 21.2384 14.0238 20.8725M14.775 20.8718C14.8223 20.8758 14.8762 20.8599 14.9202 20.8806C15.1262 21.1701 15.3212 21.4677 15.5285 21.7567C15.5295 21.4616 15.5282 21.1666 15.529 20.8718C15.5717 20.8715 15.6147 20.8715 15.658 20.8718C15.6575 21.2374 15.658 21.6027 15.6577 21.9683C15.6102 21.9683 15.5631 21.9676 15.5161 21.9661C15.3151 21.6682 15.11 21.3729 14.9073 21.0761C14.9057 21.3734 14.9073 21.671 14.9065 21.9683C14.8625 21.9683 14.8185 21.9683 14.775 21.9683C14.7745 21.6027 14.775 21.2374 14.775 20.8718ZM15.7861 20.8718C15.8357 20.871 15.886 20.8718 15.9361 20.8728C16.0398 21.0336 16.1485 21.1911 16.2524 21.3517C16.3604 21.1926 16.4648 21.0316 16.5715 20.8718C16.6198 20.8715 16.6683 20.8713 16.7174 20.8715C16.5864 21.0675 16.4428 21.2561 16.3194 21.4566C16.3151 21.627 16.3199 21.7977 16.3174 21.9683C16.2744 21.9683 16.2314 21.9683 16.1887 21.9683C16.1884 21.8075 16.1894 21.6465 16.1887 21.4854C16.194 21.4389 16.155 21.4073 16.1333 21.3714C16.0178 21.2048 15.8969 21.0417 15.7861 20.8718Z" fill="#004F9F"/>
<path d="M12.1952 6.16629C12.2506 6.14986 12.3065 6.13114 12.3522 6.09448C12.3512 6.18247 12.3464 6.27046 12.3479 6.3587V6.38905C12.3381 6.4113 12.3277 6.43355 12.3174 6.45554C12.2784 6.45832 12.2397 6.46136 12.201 6.46439C12.2013 6.4075 12.199 6.35061 12.1975 6.29398C12.196 6.25125 12.195 6.20877 12.1952 6.16629Z" fill="#CFE3F0"/>
<path d="M11.2777 6.22461C11.2992 6.26532 11.3204 6.30628 11.3419 6.34724C11.082 6.50805 10.9942 6.8284 10.9636 7.11411C10.9024 7.05141 10.8453 6.98491 10.7879 6.91866L10.7823 6.91209C10.8218 6.73333 10.8643 6.54041 11.0041 6.4102C11.0782 6.32423 11.1897 6.29161 11.2777 6.22461ZM14.4147 6.34749C14.4354 6.30678 14.4567 6.26582 14.4784 6.22511C14.5659 6.28605 14.6708 6.32145 14.7447 6.40135C14.8873 6.53384 14.9335 6.72954 14.975 6.91184L14.9694 6.91841C14.9108 6.98491 14.8519 7.05115 14.7935 7.11765C14.7613 6.83118 14.6759 6.50906 14.4147 6.34749ZM11.3285 7.24686C11.3234 7.04584 11.3571 6.82081 11.5133 6.67846C11.57 6.78617 11.6274 6.89363 11.6812 7.00311C11.597 7.04761 11.5161 7.09844 11.4397 7.15558C11.4013 7.1844 11.3641 7.21474 11.3285 7.24686ZM14.0729 7.00236C14.1292 6.89414 14.1856 6.78567 14.2438 6.67821C14.3917 6.82107 14.4425 7.04231 14.4187 7.24129C14.3366 7.16443 14.2435 7.10046 14.1472 7.04306C14.1224 7.0289 14.0976 7.0155 14.0729 7.00236ZM14.3631 10.9288C14.4347 10.7669 14.4979 10.6016 14.5598 10.436C14.5952 10.4597 14.6309 10.4838 14.6668 10.5078C14.6066 10.687 14.5302 10.8602 14.4552 11.0337C14.4235 10.9993 14.3927 10.9647 14.3631 10.9288ZM11.6587 11.5219C11.799 11.8193 11.9783 12.1075 12.0304 12.4375C12.0923 12.8635 11.8754 13.2567 11.6933 13.6251C11.6415 13.6122 11.5902 13.5993 11.5389 13.5859C11.5429 13.5776 11.5512 13.5611 11.5555 13.5528C11.6944 13.2769 11.8395 12.9947 11.8822 12.685C11.926 12.3169 11.7588 11.9685 11.5849 11.6557C11.5869 11.6524 11.5907 11.6453 11.5925 11.642C11.6145 11.6018 11.6365 11.5619 11.6587 11.5219Z" fill="#CCA703"/>
<path d="M11.7437 6.21845C11.8986 6.20682 12.0541 6.23412 12.1975 6.2938C12.199 6.35043 12.2013 6.40732 12.201 6.46421C12.2003 6.50138 12.1993 6.5388 12.1985 6.57622C12.1487 6.55524 12.0994 6.53374 12.0493 6.51402C12.016 6.50214 11.9823 6.49101 11.9482 6.48343C11.8956 6.47433 11.842 6.47028 11.7889 6.46952C11.772 6.38507 11.8296 6.27584 11.7437 6.21845Z" fill="#AFD1E8"/>
<path d="M11.5235 6.26452C11.5556 6.25441 11.5885 6.24607 11.6219 6.23899C11.6621 6.2309 11.7028 6.22407 11.7437 6.21851C11.8297 6.2759 11.772 6.38513 11.789 6.46958C11.6825 6.49158 11.5804 6.53254 11.4889 6.59094C11.4901 6.48677 11.4881 6.38285 11.4828 6.27894C11.4929 6.2754 11.5134 6.26806 11.5235 6.26452ZM13.9192 8.85971C14.0365 8.87513 14.1536 8.89157 14.2719 8.89738C14.2813 8.90219 14.2997 8.9118 14.3088 8.9166C14.2686 8.91609 14.2287 8.91584 14.1887 8.91584C14.1634 9.41824 14.0699 9.91508 13.9376 10.3998C13.8653 10.3171 13.9222 10.2061 13.9119 10.1095C13.8916 9.85667 13.9331 9.60155 13.8924 9.34972C13.881 9.28145 13.9184 9.21672 13.9136 9.14846C13.9083 9.05212 13.9025 8.95528 13.9192 8.85971Z" fill="#C2DBED"/>
<path d="M13.8852 6.25622C13.954 6.23472 14.0273 6.23523 14.0989 6.23169C14.1082 6.23346 14.127 6.23675 14.1363 6.23826C14.1682 6.2456 14.2003 6.25369 14.2319 6.26355C14.2428 6.26759 14.2642 6.27518 14.2751 6.27922C14.2721 6.38441 14.2721 6.48959 14.2731 6.59477C14.1525 6.51816 14.0142 6.46228 13.8691 6.46633C13.8602 6.39654 13.8438 6.31968 13.8852 6.25622Z" fill="#BFDAEC"/>
<path d="M16.5346 6.22559C16.733 6.61724 16.8612 7.04151 16.9583 7.46882C17.1169 8.19347 17.1596 8.93961 17.128 9.67968C17.0779 10.7009 16.8635 11.7396 16.3343 12.6263C15.9361 13.3001 15.3305 13.8574 14.6028 14.1553C14.4499 14.219 14.2923 14.2701 14.1338 14.3176C14.1057 14.1527 14.0071 14.0165 13.9234 13.8761C14.0076 13.8607 14.0918 13.8448 14.1773 13.8379C14.2142 13.9034 14.2524 13.9687 14.2848 14.0369C14.3007 14.0716 14.3156 14.107 14.3308 14.1424C14.3295 14.1654 14.3285 14.1884 14.3277 14.2116C15.0554 13.9861 15.6951 13.4986 16.1287 12.8744C16.7098 12.0569 16.9775 11.0582 17.0721 10.0706C17.0997 9.89081 17.086 9.70825 17.1121 9.52848C17.1136 9.27361 17.1267 9.01748 17.0949 8.76413C17.0896 8.47792 17.0534 8.19321 17.0114 7.91028C16.9184 7.36566 16.7828 6.82306 16.5472 6.32141C16.5378 6.29031 16.5335 6.25846 16.5346 6.22559ZM8.7887 10.9254C8.80488 10.9469 8.81803 10.9704 8.82763 10.9955C9.02359 11.889 9.41423 12.7704 10.087 13.4076C10.3849 13.7087 10.7505 13.9381 11.1376 14.1067C11.2317 14.1416 11.3222 14.1955 11.4251 14.1998C11.4274 14.1813 11.4302 14.1628 11.4337 14.1446C11.439 14.1272 11.4494 14.0923 11.4547 14.0751C11.4982 13.9704 11.5609 13.8756 11.6135 13.7755C11.6178 13.7677 11.6261 13.752 11.6304 13.7441C11.7224 13.7396 11.8145 13.7363 11.9065 13.7323C11.819 13.9312 11.663 14.0981 11.6208 14.3166C11.1485 14.1856 10.6982 13.9677 10.3151 13.6602C9.66505 13.1434 9.22232 12.4043 8.9672 11.6215C8.8954 11.3932 8.82232 11.1629 8.7887 10.9254Z" fill="#9BC3DF"/>
<path d="M11.3419 6.34732C11.3872 6.32153 11.4342 6.29877 11.4827 6.27905C11.488 6.38297 11.4901 6.48689 11.4888 6.59106C11.3399 6.71571 11.2764 6.91141 11.2592 7.09928C11.2372 7.14024 11.2147 7.19637 11.1588 7.19359C11.0805 7.19915 10.9965 7.20193 10.9525 7.27778C10.955 7.22317 10.9583 7.16881 10.9636 7.11419C10.9942 6.82848 11.082 6.50813 11.3419 6.34732Z" fill="#D3E6F0"/>
<path d="M14.2751 6.2793C14.3229 6.29902 14.3697 6.32152 14.4147 6.34756C14.6758 6.50913 14.7613 6.83125 14.7934 7.11773C14.7949 7.1334 14.7982 7.1645 14.8 7.17993C14.7173 7.26716 14.5959 7.19282 14.5016 7.17032C14.4928 6.96096 14.4369 6.7377 14.2731 6.59485C14.2721 6.48966 14.2721 6.38448 14.2751 6.2793Z" fill="#D3E5F0"/>
<path d="M12.3173 6.45541C12.3277 6.43342 12.3381 6.41117 12.3482 6.38892C12.3578 6.51964 12.3457 6.65061 12.3527 6.78158C12.3014 6.7922 12.2496 6.80105 12.1985 6.81116V6.66502C12.198 6.63544 12.198 6.60586 12.1985 6.57627C12.1993 6.53885 12.2003 6.50143 12.201 6.46426C12.2397 6.46123 12.2784 6.45819 12.3173 6.45541Z" fill="#E5F0F6"/>
<path d="M11.4888 6.59109C11.5804 6.53268 11.6825 6.49172 11.789 6.46973C11.8421 6.47049 11.8957 6.47453 11.9482 6.48363C11.8762 6.48389 11.817 6.52409 11.7614 6.56454C11.6716 6.58426 11.5829 6.61638 11.5134 6.67858C11.3571 6.82093 11.3235 7.04596 11.3285 7.24697C11.306 7.26846 11.2848 7.29122 11.2635 7.31347C11.2585 7.24216 11.255 7.17061 11.2593 7.09931C11.2764 6.91144 11.3399 6.71574 11.4888 6.59109Z" fill="#93BCD9"/>
<path d="M13.8132 6.48169C13.8271 6.4779 13.8552 6.47006 13.8691 6.46627C14.0142 6.46223 14.1525 6.5181 14.2732 6.59472C14.437 6.73757 14.4929 6.96083 14.5017 7.17019C14.5012 7.21747 14.4992 7.26475 14.4977 7.31203C14.4711 7.28827 14.4448 7.26475 14.4188 7.24124C14.4426 7.04225 14.3917 6.82101 14.2438 6.67815C14.1695 6.61292 14.0749 6.57727 13.9778 6.56362C13.9371 6.51229 13.88 6.48068 13.8132 6.48169Z" fill="#94BCD8"/>
<path d="M11.7614 6.56455C11.817 6.5241 11.8761 6.4839 11.9482 6.48364C11.9823 6.49123 12.016 6.50235 12.0493 6.51424C12.0478 6.53548 12.045 6.5777 12.0435 6.59894C11.9528 6.56835 11.8562 6.56556 11.7614 6.56455Z" fill="#72A1BD"/>
<path d="M13.7128 6.51332C13.7459 6.50169 13.779 6.49132 13.8131 6.48171C13.8799 6.4807 13.937 6.51231 13.9777 6.56363C13.9082 6.56363 13.8387 6.56869 13.7707 6.58209C13.7512 6.55908 13.732 6.53607 13.7128 6.51332Z" fill="#73A1BD"/>
<path d="M12.0494 6.51416C12.0995 6.53388 12.1488 6.55537 12.1986 6.57636C12.1981 6.60594 12.1981 6.63553 12.1986 6.66511C12.1475 6.64134 12.0964 6.61783 12.0436 6.59886C12.0451 6.57762 12.0479 6.5354 12.0494 6.51416Z" fill="#5F8FA8"/>
<path d="M13.1619 6.73943C13.1947 6.66282 13.2223 6.58368 13.2569 6.50732C13.3062 6.50732 13.356 6.50732 13.4046 6.51971C13.4147 6.6029 13.4256 6.68659 13.417 6.77079C13.3315 6.76396 13.2463 6.75208 13.1619 6.73943Z" fill="#FBFDFE"/>
<path d="M13.5608 6.5731C13.6111 6.55237 13.6614 6.53163 13.7128 6.51343C13.732 6.53618 13.7512 6.55919 13.7707 6.5822C13.6981 6.60142 13.6286 6.63049 13.5601 6.66058C13.5601 6.63859 13.5606 6.5951 13.5608 6.5731Z" fill="#6491AA"/>
<path d="M9.13739 6.68701C9.16293 6.7037 9.18872 6.72064 9.21425 6.73783C9.21982 6.74163 9.23094 6.74921 9.2365 6.753C9.20237 6.82759 9.16722 6.90243 9.14624 6.98208C9.08379 7.25035 9.00009 7.51381 8.9475 7.7841L8.93714 7.78005C8.90857 7.76842 8.88025 7.75654 8.85193 7.74516C8.91059 7.38435 9.0054 7.0281 9.13739 6.68701Z" fill="#B7CCD9"/>
<path d="M9.14624 6.98225C9.16723 6.9026 9.20238 6.82776 9.23651 6.75317C9.29264 6.79287 9.34877 6.83333 9.40541 6.87252C9.41426 6.87858 9.43171 6.89047 9.44055 6.89654C9.34624 7.03712 9.32779 7.20981 9.27696 7.36733C9.21198 7.52687 9.21198 7.70311 9.16217 7.86746C9.09087 7.83888 9.01881 7.81208 8.94751 7.78427C9.0001 7.51398 9.08379 7.25052 9.14624 6.98225ZM15.7333 12.6571C15.7634 12.6154 15.7998 12.5787 15.8367 12.5428C15.8491 12.5567 15.8744 12.584 15.8871 12.5979C15.9235 12.6379 15.9599 12.6781 15.9968 12.718C15.8787 12.9064 15.7255 13.07 15.573 13.2308C15.4481 13.3342 15.3343 13.4545 15.1922 13.5349C15.1728 13.4998 15.1541 13.4652 15.1351 13.4305C15.1131 13.3903 15.0914 13.3501 15.0696 13.3099C15.3237 13.1304 15.5584 12.916 15.7333 12.6571Z" fill="#EBF4F9"/>
<path d="M12.3527 6.78166C12.3828 6.77508 12.4132 6.76876 12.4438 6.7627C12.4468 6.79683 12.4506 6.83096 12.4551 6.86484C12.2554 6.89847 12.061 6.95966 11.8802 7.05094C11.885 7.00568 11.8817 6.95966 11.8539 6.92199C11.9659 6.87698 12.0799 6.83577 12.1985 6.81124C12.2496 6.80113 12.3014 6.79228 12.3527 6.78166Z" fill="#D0E4F0"/>
<path d="M13.774 6.87305C13.8767 6.9087 13.9763 6.95269 14.0729 7.0025C14.0977 7.01565 14.1224 7.02905 14.1472 7.04321C14.1505 7.10667 14.153 7.17014 14.151 7.2336C14.0175 7.12968 13.8742 7.03512 13.7144 6.97722C13.7341 6.94258 13.7538 6.90769 13.774 6.87305ZM14.5017 7.17039C14.596 7.19289 14.7174 7.26723 14.8001 7.18C14.8051 7.28822 14.8026 7.39694 14.8026 7.50541C14.7548 7.50263 14.7075 7.5001 14.6602 7.49732C14.6377 7.46925 14.6152 7.44093 14.5932 7.41312C14.5639 7.37696 14.5318 7.34334 14.4977 7.31224C14.4992 7.26495 14.5012 7.21767 14.5017 7.17039Z" fill="#C4DCED"/>
<path d="M9.44057 6.89648C9.46737 6.91494 9.49392 6.93315 9.52097 6.9516C9.93235 7.23985 10.3435 7.52809 10.7548 7.81633L10.7609 7.82037C10.6686 8.01304 10.6545 8.22745 10.6165 8.43403C10.1746 8.26058 9.73184 8.08965 9.28937 7.91721C9.24664 7.90078 9.20441 7.88409 9.16219 7.8674C9.212 7.70306 9.212 7.52682 9.27698 7.36728C9.3278 7.20976 9.34626 7.03707 9.44057 6.89648ZM15.1381 8.42467C15.6241 8.2363 16.1098 8.04667 16.5958 7.85805C16.6615 8.17107 16.6646 8.49167 16.7022 8.80823C16.6507 8.81531 16.5991 8.82088 16.5477 8.8277C16.0936 8.88914 15.639 8.9473 15.1847 9.00798C15.1619 9.00899 15.1167 9.01101 15.0939 9.01203C15.1118 8.8186 15.1386 8.62492 15.124 8.43023L15.1381 8.42467ZM9.26661 9.70558C9.74701 9.6545 10.2274 9.6009 10.7078 9.54856C10.7255 9.54654 10.7612 9.54275 10.7789 9.54072C10.81 9.70633 10.8671 9.86563 10.9131 10.0274C10.387 10.2188 9.86054 10.41 9.33437 10.6017C9.2919 10.6168 9.24942 10.632 9.20719 10.6469C9.19708 10.6505 9.17736 10.6575 9.1675 10.6611C9.11819 10.4214 9.07521 10.1792 9.07066 9.93389C9.07015 9.86588 9.0651 9.79609 9.03298 9.7344L9.02869 9.7301C9.04411 9.72909 9.07496 9.72707 9.09038 9.72606C9.14904 9.72024 9.2077 9.71215 9.26661 9.70558ZM14.4547 11.0353C14.8856 11.5038 15.3164 11.9726 15.7455 12.4431C15.7753 12.4767 15.8059 12.5096 15.8368 12.5427C15.7998 12.5786 15.7634 12.6153 15.7333 12.657C15.5584 12.9159 15.3237 13.1303 15.0696 13.3099C15.0416 13.2588 15.0135 13.2077 14.9852 13.1569C14.7121 12.6558 14.433 12.1579 14.1639 11.6547C14.2684 11.4517 14.3644 11.2449 14.4547 11.0353Z" fill="#DAE7EF"/>
<path d="M11.6813 7.00328C11.7377 6.97395 11.7953 6.9469 11.854 6.92212C11.8818 6.95979 11.8851 7.00581 11.8803 7.05107C11.7346 7.12288 11.61 7.22932 11.4922 7.33956C11.4831 7.27635 11.4808 7.20859 11.4398 7.15575C11.5162 7.0986 11.5971 7.04778 11.6813 7.00328Z" fill="#C2DCED"/>
<path d="M14.7934 7.1177C14.8519 7.0512 14.9108 6.98495 14.9694 6.91846C14.9919 7.1536 14.9763 7.39026 14.9416 7.62339C14.9249 7.69418 14.9682 7.75537 14.9972 7.8163L15.0005 7.82338C14.9568 7.84968 14.9133 7.87598 14.8698 7.90227C14.8463 7.83678 14.8124 7.77534 14.7927 7.70859C14.7919 7.64058 14.8015 7.57307 14.8026 7.50531C14.8026 7.39684 14.8051 7.28811 14.8 7.1799C14.7983 7.16447 14.795 7.13337 14.7934 7.1177ZM10.6306 8.43931C10.6797 8.45802 10.729 8.47673 10.7785 8.49519C10.7763 8.64007 10.7841 8.78495 10.8003 8.92882C10.8041 8.96573 10.8084 9.00239 10.8137 9.03906C10.7674 9.03299 10.7214 9.02692 10.6754 9.0211L10.6615 9.01908C10.6456 8.82616 10.6205 8.6335 10.6306 8.43931ZM14.6074 10.303C14.6476 10.1948 14.6837 10.0853 14.7178 9.97508C14.7598 9.98848 14.8023 10.0021 14.8448 10.0155L14.8433 10.0203C14.7924 10.186 14.728 10.3468 14.6703 10.5101L14.6668 10.5078C14.6309 10.4838 14.5952 10.4598 14.5598 10.436C14.5758 10.3918 14.5914 10.3473 14.6074 10.303Z" fill="#084584"/>
<path d="M13.4481 6.99072C13.663 7.1265 13.8433 7.31816 13.9563 7.54673C14.1497 7.92245 14.1935 8.35355 14.1962 8.77024C14.1184 8.7581 14.04 8.74976 13.9621 8.73888C13.9057 8.73054 13.8493 8.72118 13.7935 8.71259C13.7864 8.68933 13.7801 8.66606 13.7742 8.64255C13.7525 8.3983 13.6233 8.17504 13.4352 8.0203C13.4483 7.9533 13.4524 7.88478 13.4486 7.81676C13.4418 7.68908 13.4536 7.56114 13.4496 7.43345C13.4584 7.28579 13.4354 7.13838 13.4481 6.99072Z" fill="#C9DFEE"/>
<path d="M11.6681 7.88314C11.7631 7.53826 11.9647 7.21513 12.2665 7.01538C12.3017 7.14433 12.2716 7.27758 12.2807 7.40881C12.2893 7.62119 12.2762 7.83409 12.2901 8.04622C12.133 8.18655 12.0198 8.3772 11.9887 8.5868C11.9808 8.62878 11.9733 8.67049 11.9659 8.71247C11.9262 8.71929 11.887 8.72688 11.8476 8.7332C11.7535 8.74584 11.6587 8.75393 11.5652 8.76936C11.5566 8.47125 11.5859 8.17037 11.6681 7.88314Z" fill="#CAE0EE"/>
<path d="M14.1472 7.04321C14.2435 7.10061 14.3366 7.16458 14.4188 7.24144C14.4448 7.26496 14.4711 7.28847 14.4976 7.31224C14.5318 7.34334 14.5639 7.37697 14.5932 7.41312C14.5636 7.55826 14.6167 7.70895 14.5773 7.85459C14.4807 7.62096 14.3464 7.39795 14.151 7.2336C14.153 7.17014 14.1505 7.10668 14.1472 7.04321ZM14.0896 11.1689C14.2847 10.6819 14.4309 10.1767 14.5426 9.66444C14.6021 9.74864 14.5765 9.85483 14.5806 9.95066C14.5831 10.068 14.5477 10.1941 14.6074 10.3031C14.5914 10.3474 14.5758 10.3919 14.5598 10.4361C14.4979 10.6017 14.4347 10.7671 14.3631 10.9289C14.2782 11.1337 14.1884 11.3367 14.0903 11.5355C13.9778 11.7719 13.8453 12.001 13.7677 12.2525C13.7543 12.249 13.7272 12.2424 13.7138 12.2391C13.688 12.2533 13.6622 12.2675 13.637 12.2819C13.7616 11.9006 13.9464 11.5431 14.0896 11.1689Z" fill="#B5D5EA"/>
<path d="M11.1589 7.19368C11.2147 7.19646 11.2372 7.14033 11.2592 7.09937C11.2549 7.17067 11.2585 7.24222 11.2635 7.31352C11.2223 7.35297 11.1834 7.4 11.1278 7.41845C11.0696 7.4316 11.0097 7.42958 10.9508 7.43261C10.95 7.38103 10.9505 7.32945 10.9525 7.27787C10.9965 7.20202 11.0805 7.19924 11.1589 7.19368Z" fill="#C5DDED"/>
<path d="M11.3286 7.24655C11.3642 7.21444 11.4014 7.1841 11.4398 7.15527C11.4808 7.20812 11.483 7.27588 11.4921 7.33909C11.3243 7.52089 11.2138 7.74667 11.1392 7.98081C11.0846 7.83163 11.1116 7.67082 11.1071 7.51583C11.0565 7.54212 11.0072 7.57019 10.9591 7.60053C10.9549 7.5444 10.9518 7.48827 10.9508 7.43214C11.0097 7.4291 11.0696 7.43113 11.1278 7.41798C11.1834 7.39952 11.2224 7.35249 11.2636 7.31305C11.2848 7.2908 11.3061 7.26804 11.3286 7.24655Z" fill="#B4D4EA"/>
<path d="M8.85187 7.74512C8.88019 7.7565 8.90851 7.76838 8.93708 7.78001C8.90598 8.0412 8.85768 8.30087 8.84883 8.56458C8.84757 8.63513 8.83139 8.70415 8.82254 8.77394C8.80105 8.77191 8.75806 8.76787 8.73657 8.76585C8.75655 8.42375 8.7927 8.08266 8.85187 7.74512ZM16.8056 10.733C16.8354 10.7436 16.8655 10.7547 16.8958 10.7656C16.8291 11.1191 16.7353 11.4672 16.6099 11.8043C16.5947 11.7944 16.5644 11.7744 16.5494 11.7646C16.5408 11.759 16.5236 11.7476 16.5151 11.7418C16.6465 11.4167 16.7368 11.0763 16.8056 10.733Z" fill="#0D4B8A"/>
<path d="M16.8239 7.76967C16.8491 7.76284 16.8747 7.75677 16.9007 7.75146C16.9758 8.0837 17.0016 8.42529 17.0196 8.76486C16.9998 8.76688 16.9599 8.77068 16.9399 8.7727C16.9093 8.59546 16.9227 8.41493 16.8914 8.23794C16.8866 8.08016 16.8732 7.92087 16.8239 7.76967Z" fill="#ADC6D5"/>
<path d="M8.93719 7.78003L8.94755 7.78407C9.01886 7.81189 9.09092 7.83869 9.16222 7.86726C9.20444 7.88395 9.24667 7.90064 9.2894 7.91707C9.23934 8.0445 9.23883 8.18281 9.22012 8.31631C9.18143 8.42175 9.22214 8.53553 9.18953 8.64197C9.16955 8.70291 9.18573 8.76587 9.19939 8.8263C9.16146 8.82124 9.12353 8.81618 9.08586 8.81138C9.04515 8.80582 9.00495 8.80076 8.96424 8.7957C8.91671 8.78989 8.86943 8.78458 8.82214 8.77952L8.82265 8.77396C8.8315 8.70417 8.84768 8.63515 8.84894 8.5646C8.85779 8.30089 8.90609 8.04122 8.93719 7.78003Z" fill="#055EAB"/>
<path d="M16.5958 7.85802C16.6722 7.82995 16.7473 7.79809 16.8239 7.76978C16.8732 7.92098 16.8866 8.08027 16.8914 8.23804C16.9228 8.41503 16.9094 8.59556 16.9399 8.77281V8.77761C16.8767 8.78469 16.8135 8.79253 16.7508 8.80138C16.7387 8.80315 16.7144 8.80643 16.7023 8.8082C16.6646 8.49164 16.6616 8.17104 16.5958 7.85802Z" fill="#EAF3F9"/>
<path d="M10.7608 7.82031C10.8018 7.84914 10.843 7.87796 10.884 7.90704C10.8185 8.09591 10.7831 8.29515 10.7785 8.49515C10.729 8.47669 10.6797 8.45798 10.6306 8.43927C10.6271 8.43801 10.62 8.43523 10.6165 8.43396C10.6544 8.22739 10.6685 8.01298 10.7608 7.82031ZM14.9767 8.48858C15.0255 8.46886 15.0746 8.44939 15.1239 8.43017C15.1386 8.62486 15.1118 8.81854 15.0938 9.01196C15.1166 9.01095 15.1618 9.00893 15.1846 9.00792C15.152 9.01222 15.1193 9.01652 15.0872 9.02081C15.0435 9.02638 15.0008 9.03396 14.958 9.04205C14.956 9.00362 14.955 8.96494 14.9547 8.9265C14.9707 8.78112 14.9813 8.63497 14.9767 8.48858ZM10.7788 9.54066C10.823 9.53535 10.8675 9.53029 10.912 9.52524C10.95 9.67821 10.9919 9.82991 11.039 9.98035C10.997 9.99603 10.955 10.0117 10.913 10.0274C10.867 9.86556 10.8099 9.70627 10.7788 9.54066ZM14.0903 11.5353C14.1884 11.3366 14.2781 11.1336 14.3631 10.9288C14.3927 10.9647 14.4235 10.9993 14.4551 11.0337L14.4546 11.0352C14.3644 11.2448 14.2683 11.4517 14.1638 11.6547L14.1626 11.6572C14.1391 11.616 14.1153 11.5753 14.0903 11.5353Z" fill="#ADB6BE"/>
<path d="M12.29 8.04621C12.6041 7.77036 13.1087 7.76075 13.4352 8.02042C13.6233 8.17516 13.7525 8.39842 13.7742 8.64267C13.7267 8.62295 13.6814 8.59867 13.64 8.56859C13.579 8.26113 13.3158 8.01056 13.0076 7.95847C12.6928 7.90083 12.3573 8.0672 12.2013 8.34406C12.1388 8.45 12.1125 8.57137 12.0956 8.69172C12.065 8.69501 12.0354 8.69956 12.0056 8.70386C11.9995 8.66492 11.9932 8.62598 11.9886 8.58679C12.0197 8.37718 12.133 8.18654 12.29 8.04621Z" fill="#7EB1D3"/>
<path d="M14.8699 7.90213C14.9134 7.87583 14.9569 7.84954 15.0006 7.82324C15.0876 8.01237 15.1113 8.22046 15.1381 8.4245L15.124 8.43007C15.0747 8.44928 15.0256 8.46875 14.9768 8.48847C14.9725 8.28898 14.9381 8.08974 14.8699 7.90213Z" fill="#272830"/>
<path d="M12.2013 8.34399C12.3573 8.06712 12.6928 7.90075 13.0076 7.9584C13.3158 8.01049 13.579 8.26106 13.6399 8.56851C13.6432 8.60897 13.645 8.64968 13.6473 8.69013C13.265 8.68255 12.8827 8.66105 12.5004 8.6785C12.3656 8.68609 12.2306 8.68963 12.0956 8.69165C12.1125 8.57129 12.1388 8.44993 12.2013 8.34399Z" fill="#DAEAF2"/>
<path d="M13.64 8.5686C13.6814 8.59869 13.7267 8.62296 13.7742 8.64269C13.78 8.6662 13.7864 8.68946 13.7934 8.71272C13.8493 8.72132 13.9057 8.73068 13.9621 8.73902C13.9851 8.76961 14.0066 8.80223 14.0347 8.82903C14.11 8.86342 14.2005 8.85103 14.2718 8.89755C14.1535 8.89174 14.0364 8.8753 13.9191 8.85988C13.8726 8.85533 13.8261 8.85229 13.7798 8.84951C13.7611 8.93952 13.736 9.02827 13.7009 9.11323C13.6609 9.09629 13.6215 9.0796 13.5818 9.06266C13.618 8.9911 13.6364 8.91197 13.6359 8.83181C13.3679 8.80729 13.0989 8.79743 12.8299 8.79186C12.5902 8.80729 12.3482 8.80071 12.1103 8.83864C12.1262 8.93877 12.152 9.03915 12.2079 9.12486C12.1689 9.14433 12.13 9.1638 12.0913 9.18352C12.0329 9.07859 12.0018 8.96228 11.9714 8.84724C11.8096 8.8576 11.6511 8.89629 11.4888 8.89932C11.5704 8.84926 11.6696 8.85558 11.7591 8.83004C11.8038 8.81639 11.8208 8.76658 11.8476 8.7332C11.887 8.72688 11.9262 8.7193 11.9659 8.71247C11.9732 8.6705 11.9808 8.62878 11.9886 8.58681C11.9932 8.626 11.9995 8.66494 12.0056 8.70387C12.0354 8.69958 12.065 8.69503 12.0956 8.69174C12.2306 8.68972 12.3656 8.68618 12.5004 8.67859C12.8827 8.66114 13.265 8.68264 13.6473 8.69022C13.645 8.64977 13.6432 8.60906 13.64 8.5686Z" fill="#99C1DC"/>
<path d="M11.5651 8.76931C11.6587 8.75389 11.7535 8.7458 11.8476 8.73315C11.8208 8.76653 11.8038 8.81634 11.7591 8.82999C11.6696 8.85553 11.5705 8.84921 11.4888 8.89927C11.4809 8.90281 11.465 8.91014 11.4572 8.91368C11.3606 8.93619 11.2632 8.95363 11.1657 8.96982C11.0456 8.98423 10.9267 9.01154 10.8175 9.06438C10.8165 9.05806 10.8147 9.04542 10.8137 9.0391C10.8084 9.00243 10.8041 8.96577 10.8003 8.92886C10.9141 8.90559 11.0271 8.87879 11.1399 8.85047C11.2804 8.81836 11.4225 8.79308 11.5651 8.76931Z" fill="#7FB1D3"/>
<path d="M13.9622 8.73877C14.04 8.74964 14.1184 8.75799 14.1963 8.77012C14.3389 8.79263 14.481 8.81993 14.6223 8.85078C14.7326 8.87809 14.8433 8.90413 14.9548 8.92638C14.9551 8.96481 14.9561 9.0035 14.9581 9.04193C14.9531 9.04269 14.9429 9.04446 14.9376 9.04522C14.8226 9.026 14.7136 8.97771 14.5955 8.97518C14.5 8.95546 14.4036 8.93927 14.3088 8.91652C14.2997 8.91171 14.2812 8.90211 14.2719 8.8973C14.2006 8.85078 14.1101 8.86317 14.0347 8.82878C14.0067 8.80198 13.9852 8.76936 13.9622 8.73877Z" fill="#85B5D5"/>
<path d="M16.9398 8.77273C16.9598 8.77071 16.9997 8.76692 17.0195 8.76489C17.0321 9.09612 17.0346 9.42835 17.0154 9.75933C16.9972 9.75705 16.9613 9.75199 16.9431 9.74972C16.9368 9.42583 16.9456 9.10168 16.9401 8.77753V8.77273H16.9398Z" fill="#169955"/>
<path d="M8.96412 8.7959C9.00483 8.80096 9.04503 8.80601 9.08574 8.81157C9.08776 8.91524 9.08979 9.01916 9.08246 9.12283C9.06981 9.32409 9.0956 9.5251 9.09029 9.72611C9.07487 9.72712 9.04402 9.72914 9.0286 9.73016C9.01343 9.72737 8.98283 9.72131 8.96766 9.71827C8.95249 9.41081 8.95376 9.10361 8.96412 8.7959Z" fill="#E63827"/>
<path d="M12.1104 8.83852C12.3483 8.8006 12.5902 8.80717 12.8299 8.79175C13.099 8.79731 13.368 8.80717 13.636 8.8317C13.6365 8.91185 13.6181 8.99099 13.5819 9.06254C13.455 9.31589 13.1971 9.51109 12.9068 9.51311C12.6234 9.53081 12.3511 9.36494 12.2079 9.12474C12.1521 9.03903 12.1263 8.93865 12.1104 8.83852Z" fill="#DBEAF2"/>
<path d="M16.5477 8.82757C16.599 8.82074 16.6506 8.81518 16.7022 8.8081C16.7143 8.80633 16.7386 8.80304 16.7507 8.80127C16.7598 8.80885 16.7778 8.82403 16.7869 8.83161C16.7907 8.91379 16.8089 8.99495 16.8069 9.07737C16.7793 9.29482 16.7935 9.51454 16.7952 9.733C16.777 9.73098 16.7411 9.72693 16.7232 9.72491C16.66 9.71808 16.597 9.711 16.5343 9.70392C16.5174 9.7019 16.4837 9.69836 16.467 9.69634C16.4875 9.69204 16.5285 9.68293 16.549 9.67838C16.5636 9.56764 16.5624 9.45613 16.5593 9.34488C16.5533 9.17244 16.574 8.99925 16.5477 8.82757Z" fill="#3BAE6B"/>
<path d="M16.7507 8.80135C16.8134 8.79251 16.8766 8.78467 16.9401 8.77759C16.9457 9.10173 16.9368 9.42588 16.9431 9.74977C16.9343 9.74876 16.9168 9.74648 16.908 9.74547C16.8703 9.74117 16.8324 9.73713 16.7952 9.73308C16.7935 9.51463 16.7793 9.29491 16.8069 9.07746C16.8089 8.99503 16.7907 8.91387 16.7869 8.8317C16.7778 8.82411 16.7598 8.80894 16.7507 8.80135Z" fill="#5BB77A"/>
<path d="M9.0858 8.81152C9.12347 8.81633 9.1614 8.82138 9.19932 8.82644C9.20337 8.82695 9.21121 8.82796 9.215 8.82846C9.20438 9.01506 9.21727 9.20141 9.21525 9.38775C9.21727 9.49218 9.24433 9.6004 9.20666 9.70153C9.22157 9.70254 9.25166 9.70457 9.26658 9.70558C9.20767 9.71215 9.14901 9.72024 9.09035 9.72606C9.09566 9.52505 9.06987 9.32404 9.08251 9.12277C9.08984 9.01911 9.08782 8.91519 9.0858 8.81152Z" fill="#E51E1C"/>
<path d="M11.4889 8.89925C11.6512 8.89622 11.8097 8.85753 11.9716 8.84717C12.0019 8.96221 12.033 9.07852 12.0914 9.18345C12.1657 9.33768 12.3028 9.44717 12.4444 9.53692C12.3936 9.6593 12.4515 9.79002 12.4196 9.91467C12.4006 10.0039 12.4211 10.0944 12.4221 10.1842C12.4292 10.3099 12.4128 10.4365 12.43 10.5617C12.4375 10.6247 12.5177 10.6214 12.5569 10.6575C12.5619 10.6828 12.5635 10.7086 12.5665 10.7344C12.6037 10.7435 12.6416 10.7526 12.679 10.7622C12.7106 10.8396 12.786 10.8709 12.8623 10.8866C12.8863 10.9577 12.9556 10.9675 13.0198 10.9551C13.0469 10.8199 13.2082 10.7764 13.2401 10.6439C13.3405 10.6102 13.32 10.4904 13.3222 10.4065C13.3129 10.256 13.3319 10.1053 13.3187 9.95513C13.3063 9.81733 13.3399 9.67776 13.303 9.54173C13.4712 9.43933 13.6292 9.30153 13.701 9.11316C13.7362 9.0282 13.7612 8.93946 13.7799 8.84944C13.8262 8.85222 13.8727 8.85526 13.9192 8.85981C13.9025 8.95538 13.9083 9.05222 13.9137 9.14856C13.9185 9.21683 13.881 9.28155 13.8924 9.34982C13.9331 9.60165 13.8917 9.85677 13.9119 10.1096C13.9222 10.2062 13.8654 10.3172 13.9377 10.3999C13.8977 10.5587 13.852 10.7159 13.8016 10.8717C13.7913 10.8631 13.7708 10.8456 13.7604 10.837C13.7164 10.9665 13.6163 11.0616 13.5364 11.1688C13.3721 11.3657 13.1996 11.5592 12.9918 11.7114C12.6633 11.6254 12.3784 11.4161 12.1528 11.1668C12.1152 11.0942 12.054 11.0408 11.992 10.9898C11.7756 10.3185 11.6034 9.62744 11.5625 8.921C11.5273 8.91822 11.4922 8.91569 11.4573 8.91367C11.4651 8.91013 11.481 8.90279 11.4889 8.89925Z" fill="#CDE2EF"/>
<path d="M15.1846 9.00791C15.639 8.94723 16.0936 8.88908 16.5477 8.82764C16.574 8.99932 16.5533 9.17252 16.5594 9.34495C16.5624 9.45621 16.5637 9.56771 16.549 9.67846C16.5285 9.68301 16.4875 9.69211 16.4671 9.69641C15.972 9.64407 15.4777 9.58768 14.9826 9.53509C14.9778 9.53459 14.968 9.53358 14.9632 9.53307C14.9857 9.50071 15.0061 9.46632 15.0127 9.42688C15.0418 9.29236 15.0688 9.15734 15.0873 9.02081C15.1194 9.01651 15.152 9.01221 15.1846 9.00791ZM9.33435 10.6016C9.86052 10.4099 10.3869 10.2188 10.9131 10.0274C10.9695 10.1889 11.0271 10.3503 11.0845 10.5113C10.5955 10.8375 10.1065 11.1632 9.61855 11.4903C9.45951 11.219 9.4236 10.8987 9.33435 10.6016ZM14.1627 11.6572L14.1639 11.6547C14.4329 12.1578 14.7121 12.6557 14.9852 13.1568C14.8264 13.2618 14.6565 13.3465 14.4946 13.4458C14.4064 13.5009 14.2929 13.4944 14.2122 13.5636L14.2003 13.5715C14.0572 13.2398 13.8625 12.9088 13.8666 12.5363C13.8716 12.2193 14.0297 11.9358 14.1627 11.6572Z" fill="#1CA75E"/>
<path d="M10.8175 9.06429C10.9267 9.01145 11.0456 8.98414 11.1657 8.96973C11.1429 8.98464 11.1204 8.99982 11.0984 9.01524C11.1336 9.24179 11.175 9.46707 11.2173 9.69261C11.1776 9.79501 11.2218 9.90247 11.2087 10.0079C11.197 10.1037 11.2251 10.2021 11.2021 10.2961C11.1907 10.3037 11.1679 10.3194 11.1566 10.3272C11.1143 10.2127 11.0757 10.0967 11.039 9.98034C10.992 9.8299 10.95 9.67819 10.9121 9.52522C10.8736 9.37326 10.8448 9.21878 10.8175 9.06429Z" fill="#ADD0E8"/>
<path d="M14.5956 8.97534C14.7136 8.97787 14.8226 9.02616 14.9377 9.04538C14.9187 9.20568 14.8836 9.36371 14.8456 9.52073C14.808 9.67344 14.7642 9.82464 14.7179 9.97509C14.6838 10.0853 14.6477 10.1948 14.6075 10.303C14.5478 10.194 14.5832 10.0679 14.5807 9.95056C14.5766 9.85473 14.6021 9.74854 14.5427 9.66434C14.5839 9.44285 14.6332 9.22161 14.6527 8.99683C14.6386 8.99152 14.61 8.98065 14.5956 8.97534Z" fill="#ABCFE7"/>
<path d="M14.9581 9.04199C15.0008 9.0339 15.0435 9.02631 15.0873 9.02075C15.0688 9.15729 15.0418 9.29231 15.0127 9.42682C15.0061 9.46626 14.9856 9.50065 14.9631 9.53301C14.9237 9.52871 14.8845 9.52467 14.8456 9.52062C14.8835 9.36361 14.9186 9.20558 14.9376 9.04528C14.9429 9.04452 14.953 9.04275 14.9581 9.04199ZM10.9131 10.0273C10.9551 10.0116 10.997 9.99597 11.039 9.98029C11.0757 10.0966 11.1143 10.2127 11.1566 10.3272C11.1695 10.3631 11.1826 10.3993 11.1963 10.4352C11.1589 10.4607 11.1217 10.486 11.0845 10.5113C11.0271 10.3502 10.9695 10.1889 10.9131 10.0273ZM14.0903 11.5353C14.1153 11.5752 14.1391 11.6159 14.1626 11.6572C14.0296 11.9358 13.8716 12.2192 13.8666 12.5363C13.8625 12.9087 14.0572 13.2397 14.2003 13.5714C14.1591 13.5985 14.1186 13.6263 14.0789 13.6551C13.9743 13.4534 13.8734 13.2485 13.7975 13.0336C13.7027 12.7853 13.6875 12.5067 13.7677 12.2523C13.8453 12.0008 13.9778 11.7717 14.0903 11.5353Z" fill="#118D4E"/>
<path d="M12.9067 9.51307C13.197 9.51104 13.4549 9.31585 13.5818 9.0625C13.6215 9.07944 13.661 9.09613 13.7009 9.11307C13.6291 9.30144 13.4711 9.43924 13.3029 9.54164C13.0372 9.67742 12.708 9.67792 12.4443 9.53683C12.3027 9.44707 12.1656 9.33759 12.0913 9.18336C12.13 9.16364 12.1689 9.14417 12.2079 9.1247C12.351 9.3649 12.6233 9.53077 12.9067 9.51307Z" fill="#B0D0E6"/>
<path d="M12.4195 9.91461C12.4514 9.78996 12.3935 9.65924 12.4443 9.53687C12.708 9.67795 13.0372 9.67745 13.303 9.54167C13.3399 9.6777 13.3062 9.81727 13.3186 9.95507C13.3318 10.1053 13.3128 10.256 13.3222 10.4064C13.3199 10.4903 13.3404 10.6102 13.24 10.6438C13.2081 10.7763 13.0468 10.8198 13.0198 10.9551C12.9555 10.9675 12.8863 10.9576 12.8622 10.8865C12.7859 10.8709 12.7105 10.8395 12.6789 10.7621C12.6415 10.7525 12.6036 10.7434 12.5664 10.7343C12.5634 10.7085 12.5619 10.6828 12.5568 10.6575C12.5176 10.6213 12.4375 10.6246 12.4299 10.5616C12.4127 10.4365 12.4291 10.3098 12.422 10.1841C12.421 10.0944 12.4006 10.0039 12.4195 9.91461Z" fill="#DCEBF2"/>
<path d="M11.2173 9.69263C11.3457 10.2587 11.5131 10.817 11.7407 11.3518C11.8899 11.729 12.0886 12.0908 12.1736 12.4901C12.1258 12.4726 12.078 12.4549 12.0304 12.4375C11.9784 12.1075 11.7991 11.8193 11.6588 11.522C11.5642 11.3283 11.477 11.1313 11.3935 10.9328C11.3245 10.7682 11.259 10.6024 11.1963 10.4352C11.1827 10.3993 11.1695 10.3632 11.1566 10.3273C11.168 10.3194 11.1908 10.3037 11.2021 10.2962C11.2251 10.2021 11.1971 10.1038 11.2087 10.0079C11.2218 9.90249 11.1776 9.79503 11.2173 9.69263Z" fill="#B7D6EA"/>
<path d="M16.5342 9.7041C16.5969 9.71118 16.6599 9.71826 16.7231 9.72509C16.7067 9.99083 16.6814 10.2563 16.6399 10.5195C16.6316 10.5671 16.6114 10.6113 16.5942 10.6563C16.5499 10.6404 16.5062 10.6247 16.4627 10.6088L16.4402 10.6004C16.4756 10.3018 16.5128 10.004 16.5342 9.7041Z" fill="#E6251F"/>
<path d="M8.73914 9.76139C8.75709 9.76038 8.79299 9.7581 8.81094 9.75684C8.80134 9.79021 8.79855 9.82485 8.80311 9.85898C8.83041 10.1558 8.85342 10.4552 8.9184 10.7462L8.92245 10.7601C8.90677 10.7611 8.87567 10.7629 8.86 10.7639C8.79198 10.4337 8.75886 10.0974 8.73914 9.76139Z" fill="#A8C3D2"/>
<path d="M8.811 9.75677C8.82162 9.75551 8.84311 9.75273 8.85373 9.75146C8.8598 10.0243 8.90152 10.2948 8.93742 10.5649C8.94475 10.6218 8.96321 10.6761 8.98217 10.7302C8.96068 10.7358 8.93969 10.7411 8.91846 10.7462C8.85348 10.4551 8.83047 10.1558 8.80316 9.85892C8.79861 9.82479 8.80139 9.79015 8.811 9.75677Z" fill="#CEDBE5"/>
<path d="M8.85376 9.75157C8.91343 9.74525 8.9731 9.73994 9.03303 9.73438C9.06514 9.79607 9.07019 9.86585 9.0707 9.93387C9.07525 10.1791 9.11823 10.4214 9.16754 10.661C9.10534 10.6833 9.0444 10.7086 8.9822 10.7303C8.96324 10.6762 8.94478 10.6219 8.93745 10.565C8.90155 10.2949 8.85983 10.0244 8.85376 9.75157Z" fill="#ECF4F9"/>
<path d="M11.1963 10.4353C11.259 10.6024 11.3245 10.7683 11.3935 10.9329C11.3634 10.9665 11.3333 11.0004 11.3027 11.0335C10.8737 11.498 10.4494 11.9665 10.0198 12.4302C9.98668 12.4666 9.95456 12.5036 9.92195 12.54C9.83598 12.4118 9.74926 12.2841 9.6825 12.1445C9.56974 11.983 9.54066 11.7792 9.4198 11.6227C9.4375 11.6105 9.45545 11.5989 9.4734 11.5873C9.52195 11.5551 9.57024 11.5228 9.61854 11.4904C10.1065 11.1632 10.5955 10.8376 11.0845 10.5114C11.1217 10.4861 11.1589 10.4608 11.1963 10.4353Z" fill="#20232B"/>
<path d="M9.20715 10.6468C9.24938 10.6319 9.29186 10.6167 9.33433 10.6016C9.42359 10.8987 9.45949 11.219 9.61853 11.4903C9.57024 11.5227 9.52194 11.555 9.4734 11.5871C9.34192 11.288 9.25949 10.9684 9.20715 10.6468Z" fill="#2FAB65"/>
<path d="M16.4627 10.6086C16.5062 10.6246 16.55 10.6402 16.5942 10.6562C16.6632 10.6807 16.732 10.706 16.8013 10.7313L16.8056 10.733C16.7368 11.0764 16.6466 11.4167 16.5151 11.7419C16.4688 11.711 16.4228 11.6802 16.3768 11.6496C16.3229 11.6134 16.2693 11.5773 16.2155 11.5416C16.2468 11.4046 16.3082 11.2767 16.3376 11.1389C16.3568 11.0559 16.4109 10.9831 16.4129 10.8961C16.418 10.7985 16.439 10.703 16.4627 10.6086Z" fill="#065EAB"/>
<path d="M9.16739 10.6611C9.17725 10.6576 9.19697 10.6505 9.20708 10.647C9.25942 10.9686 9.34185 11.2882 9.47333 11.5873C9.45537 11.5989 9.43742 11.6106 9.41972 11.6227C9.3507 11.6692 9.28142 11.7157 9.21214 11.7618C9.07611 11.4404 9.00759 11.0968 8.92238 10.7602L8.91833 10.7463C8.93957 10.7413 8.96056 10.736 8.98205 10.7304C9.04425 10.7087 9.10519 10.6834 9.16739 10.6611Z" fill="#4FB474"/>
<path d="M8.85999 10.764C8.87566 10.763 8.90676 10.7613 8.92244 10.7603C9.00765 11.0968 9.07617 11.4404 9.2122 11.7618C9.19045 11.7764 9.16896 11.7908 9.14772 11.8058C9.02004 11.4682 8.92775 11.1183 8.85999 10.764Z" fill="#159653"/>
<path d="M13.5363 11.1689C13.6162 11.0617 13.7163 10.9666 13.7603 10.8372C13.7707 10.8458 13.7912 10.8632 13.8015 10.8718C13.6557 11.3739 13.485 11.8713 13.3967 12.3878C13.3876 12.355 13.3783 12.3224 13.3687 12.29C13.2559 12.3353 13.1699 12.4273 13.0503 12.4591C13.0048 12.4591 12.9631 12.4791 12.9196 12.4887C12.8612 12.4822 12.8187 12.4316 12.7606 12.425C12.6084 12.4083 12.4749 12.3246 12.3383 12.2617C12.2496 11.8308 12.1138 11.4119 11.9919 10.9899C12.0539 11.041 12.1151 11.0943 12.1528 11.1669C12.3783 11.4162 12.6632 11.6255 12.9917 11.7115C13.1995 11.5593 13.372 11.3659 13.5363 11.1689Z" fill="#BED9EC"/>
<path d="M9.21218 11.7616C9.28146 11.7156 9.35074 11.6691 9.41976 11.6226C9.54062 11.7791 9.5697 11.9829 9.68247 12.1444C9.74922 12.284 9.83595 12.4117 9.92191 12.5399C9.90219 12.5616 9.88222 12.5831 9.86249 12.6049C9.8276 12.6428 9.79246 12.6805 9.75731 12.7181C9.72823 12.7492 9.69941 12.7801 9.67084 12.8114C9.45491 12.4999 9.28121 12.1601 9.14771 11.8056C9.16894 11.7907 9.19044 11.7763 9.21218 11.7616Z" fill="#2D2E36"/>
<path d="M16.3768 11.6497C16.4229 11.6803 16.4689 11.7111 16.5151 11.7419C16.5237 11.7478 16.5409 11.7591 16.5495 11.7647C16.4572 11.9637 16.3723 12.166 16.2664 12.3581C16.1976 12.4964 16.1007 12.6183 16.0322 12.7569C16.0201 12.7437 16.0085 12.7306 15.9968 12.7179C15.9599 12.678 15.9235 12.6378 15.8871 12.5978C16.0926 12.3063 16.2567 11.9854 16.3768 11.6497Z" fill="#FFDE5A"/>
<path d="M16.5495 11.7646C16.5645 11.7745 16.5948 11.7945 16.61 11.8043C16.477 12.1614 16.301 12.5017 16.0851 12.8152C16.0719 12.8005 16.0454 12.7715 16.0322 12.7568C16.1007 12.6182 16.1976 12.4964 16.2664 12.3581C16.3723 12.1659 16.4573 11.9636 16.5495 11.7646Z" fill="#FCBD33"/>
<path d="M13.637 12.2817C13.6623 12.2673 13.6881 12.2532 13.7139 12.239C13.7273 12.2423 13.7543 12.2489 13.7677 12.2524C13.6876 12.5068 13.7027 12.7854 13.7976 13.0337C13.7328 13.0337 13.6696 13.0458 13.6067 13.058C13.5268 12.8041 13.5543 12.5308 13.637 12.2817Z" fill="#ACD0E7"/>
<path d="M12.3384 12.2615C12.4749 12.3244 12.6084 12.4081 12.7606 12.4248C12.8188 12.4314 12.8612 12.482 12.9196 12.4885C12.9631 12.4789 13.0049 12.4589 13.0504 12.4589C13.17 12.4271 13.2559 12.3351 13.3687 12.2898C13.3783 12.3222 13.3877 12.3548 13.3968 12.3876C13.3644 12.6096 13.3581 12.8377 13.397 13.0592C13.4403 13.2847 13.5113 13.5037 13.593 13.7181C13.5176 13.732 13.4413 13.7401 13.3649 13.7396C13.3561 13.7484 13.3389 13.7664 13.33 13.7752C13.3189 13.7318 13.307 13.6888 13.2951 13.6458C13.2711 13.5618 13.2453 13.4782 13.2162 13.396C13.1626 13.2506 13.1062 13.0931 12.9796 12.9947C12.9078 12.9368 12.798 12.9596 12.7394 13.0251C12.6451 13.1239 12.5932 13.2534 12.5439 13.3785C12.5007 13.4931 12.4746 13.6129 12.4494 13.7323C12.4435 13.7381 12.4317 13.75 12.4258 13.7558L12.4299 13.7383C12.3406 13.7841 12.2435 13.71 12.151 13.7487C12.237 13.5275 12.3118 13.3014 12.3573 13.0683C12.4069 12.8015 12.3884 12.5267 12.3384 12.2615Z" fill="#ACD0E8"/>
<path d="M9.92197 12.5399C9.95458 12.5035 9.9867 12.4666 10.0198 12.4302C10.0261 12.5293 10.1328 12.5609 10.1652 12.6486C10.3381 12.8451 10.5154 13.0537 10.7508 13.1763C10.7381 13.1996 10.7255 13.2231 10.7129 13.2466C10.6914 13.2861 10.6691 13.325 10.6476 13.3644C10.6426 13.3733 10.633 13.3912 10.6279 13.4001C10.5622 13.369 10.4987 13.3311 10.4464 13.2802C10.325 13.1483 10.1771 13.0431 10.0691 12.8987C9.99883 12.8021 9.88303 12.7303 9.86255 12.6049C9.88227 12.5831 9.90225 12.5617 9.92197 12.5399Z" fill="#E63225"/>
<path d="M12.0304 12.4375C12.0779 12.4549 12.1257 12.4726 12.1735 12.4901C12.2036 12.6549 12.2069 12.8266 12.1656 12.99C12.1042 13.2451 12.0215 13.4959 11.9065 13.7323C11.8144 13.7364 11.7224 13.7396 11.6304 13.7442C11.6516 13.7045 11.6726 13.6648 11.6933 13.6251C11.8754 13.2567 12.0923 12.8635 12.0304 12.4375Z" fill="#A6CCE6"/>
<path d="M15.9968 12.718C16.0084 12.7307 16.0201 12.7438 16.0322 12.757C16.0454 12.7716 16.0719 12.8007 16.0851 12.8154C15.8618 13.1395 15.5849 13.4305 15.2643 13.6594C15.255 13.6437 15.2365 13.6123 15.2274 13.5966C15.2165 13.5784 15.2062 13.5602 15.1961 13.542L15.1923 13.535C15.3344 13.4546 15.4481 13.3342 15.573 13.2308C15.7255 13.07 15.8787 12.9064 15.9968 12.718Z" fill="#B6CBD9"/>
<path d="M12.7394 13.0252C12.7981 12.9597 12.9078 12.937 12.9796 12.9949C13.1063 13.0932 13.1627 13.2507 13.2163 13.3961C13.0805 13.431 12.9424 13.386 12.8054 13.3999C12.7176 13.4085 12.6289 13.4027 12.5439 13.3787C12.5932 13.2535 12.6451 13.1241 12.7394 13.0252Z" fill="#D1E4F0"/>
<path d="M13.6067 13.058C13.6696 13.0458 13.7329 13.0337 13.7976 13.0337C13.8734 13.2486 13.9743 13.4534 14.079 13.6552C14.1015 13.6992 14.1248 13.7429 14.1485 13.7864C14.1579 13.8036 14.1675 13.8208 14.1774 13.838C14.0919 13.8448 14.0077 13.8607 13.9235 13.8762C13.7804 13.6198 13.6828 13.3406 13.6067 13.058Z" fill="#A4CBE5"/>
<path d="M10.7507 13.176C10.7565 13.1652 10.7681 13.1437 10.774 13.1328C10.9016 13.214 11.0278 13.2984 11.1613 13.37C11.2981 13.419 11.4207 13.4984 11.5555 13.5525C11.5512 13.5609 11.5429 13.5773 11.5388 13.5857C11.5226 13.6168 11.5067 13.6479 11.4908 13.6787C11.2187 13.5621 10.9317 13.4516 10.7128 13.2463C10.7254 13.2228 10.7381 13.1993 10.7507 13.176Z" fill="#FFD817"/>
<path d="M14.4946 13.4455C14.6564 13.3461 14.8263 13.2614 14.9851 13.1565C15.0134 13.2073 15.0415 13.2584 15.0696 13.3095C15.0913 13.3497 15.113 13.3899 15.135 13.4301C14.8915 13.5967 14.6288 13.732 14.3583 13.8485C14.335 13.8073 14.3113 13.7666 14.2893 13.7251C14.261 13.6723 14.2362 13.6179 14.2122 13.5633C14.2928 13.494 14.4063 13.5006 14.4946 13.4455Z" fill="#3DAF6C"/>
<path d="M10.6476 13.3644C10.6691 13.325 10.6913 13.286 10.7128 13.2466C10.9318 13.4519 11.2188 13.5624 11.4908 13.6789C11.4853 13.6896 11.4741 13.7103 11.4686 13.7207C11.4547 13.7459 11.4413 13.7712 11.4276 13.7965C11.3116 13.726 11.178 13.6921 11.06 13.6251C10.9189 13.5442 10.774 13.4676 10.6476 13.3644Z" fill="#FFDB34"/>
<path d="M10.6279 13.4002C10.633 13.3913 10.6426 13.3734 10.6476 13.3645C10.774 13.4677 10.9189 13.5443 11.06 13.6252C11.1781 13.6922 11.3116 13.7261 11.4276 13.7966C11.3912 13.8641 11.3538 13.9311 11.3149 13.9974C11.0878 13.9228 10.8823 13.7984 10.6775 13.6773C10.6244 13.6479 10.5814 13.6047 10.5437 13.5577C10.5715 13.5051 10.5993 13.4525 10.6279 13.4002Z" fill="#FFDE57"/>
<path d="M12.4493 13.7324C12.4746 13.613 12.5007 13.4932 12.5439 13.3787C12.6289 13.4027 12.7176 13.4085 12.8053 13.3999C12.9424 13.386 13.0804 13.431 13.2162 13.3961C13.2453 13.4783 13.2711 13.562 13.2951 13.6459C13.285 13.678 13.2893 13.7425 13.2359 13.7271C13.1204 13.7182 13.0048 13.7357 12.8895 13.7238C12.7424 13.7296 12.5955 13.7056 12.4493 13.7324Z" fill="#C7DEED"/>
<path d="M14.3584 13.8489C14.6289 13.7323 14.8916 13.597 15.1351 13.4304C15.1541 13.4651 15.1728 13.4997 15.1923 13.5348L15.1961 13.5419C14.9445 13.6974 14.6916 13.8544 14.4125 13.9563C14.3958 13.9197 14.3779 13.8838 14.3584 13.8489Z" fill="#5CB77B"/>
<path d="M10.5388 13.552L10.5436 13.5576C10.5813 13.6046 10.6243 13.6478 10.6774 13.6772C10.8822 13.7983 11.0877 13.9227 11.3148 13.9973C11.3037 14.0281 11.2928 14.0592 11.2819 14.0903C11.0018 13.9813 10.7345 13.8377 10.4926 13.6592C10.5077 13.6233 10.5234 13.5877 10.5388 13.552Z" fill="#FCBB2F"/>
<path d="M15.196 13.542C15.2062 13.5602 15.2165 13.5784 15.2274 13.5966C14.9794 13.7597 14.7214 13.9111 14.4421 14.0141L14.4287 13.991C14.4246 13.9824 14.4165 13.965 14.4125 13.9564C14.6916 13.8545 14.9445 13.6975 15.196 13.542Z" fill="#3AA868"/>
<path d="M11.5389 13.5857C11.5902 13.5991 11.6416 13.612 11.6934 13.6249C11.6727 13.6646 11.6517 13.7043 11.6304 13.744C11.6262 13.7518 11.6178 13.7675 11.6135 13.7753C11.5667 13.7528 11.5184 13.7346 11.4686 13.7205C11.4742 13.7101 11.4853 13.6894 11.4909 13.6787C11.5068 13.6479 11.5227 13.6168 11.5389 13.5857Z" fill="#CCAA24"/>
<path d="M14.2003 13.5716L14.2122 13.5637C14.2362 13.6183 14.261 13.6727 14.2893 13.7255C14.2433 13.748 14.1963 13.7683 14.1485 13.7865C14.1247 13.743 14.1015 13.6992 14.079 13.6552C14.1187 13.6264 14.1591 13.5986 14.2003 13.5716Z" fill="#2D9059"/>
<path d="M14.442 14.0139C14.7214 13.911 14.9793 13.7595 15.2273 13.5964C15.2365 13.6121 15.2549 13.6435 15.2643 13.6591C15.0263 13.8278 14.7707 13.9719 14.4992 14.0786C14.4794 14.0571 14.4602 14.0359 14.442 14.0139Z" fill="#139352"/>
<path d="M13.2951 13.646C13.307 13.689 13.3189 13.732 13.33 13.7755C13.3553 13.8753 13.3715 13.9775 13.3897 14.0791C13.4003 14.1418 13.4036 14.2053 13.4066 14.269C13.1654 14.3084 12.9209 14.2963 12.6777 14.2981C12.5689 14.2976 12.4612 14.2794 12.3535 14.2675C12.3588 14.095 12.3884 13.9241 12.4258 13.756C12.4316 13.7502 12.4435 13.7383 12.4493 13.7325C12.5955 13.7057 12.7424 13.7297 12.8895 13.7239C13.0048 13.7358 13.1204 13.7183 13.2359 13.7272C13.2893 13.7426 13.285 13.6781 13.2951 13.646Z" fill="#B4D0E4"/>
<path d="M11.4685 13.7207C11.5184 13.7349 11.5667 13.7531 11.6134 13.7756C11.5608 13.8757 11.4981 13.9705 11.4546 14.0752C11.4122 14.0423 11.3651 14.0158 11.3148 13.9973C11.3538 13.9311 11.3912 13.8641 11.4276 13.7966C11.4412 13.7713 11.4546 13.746 11.4685 13.7207Z" fill="#CBAE45"/>
<path d="M12.151 13.7487C12.2435 13.71 12.3406 13.7841 12.4299 13.7383L12.4258 13.7558C12.3884 13.9239 12.3588 14.0948 12.3535 14.2673C12.4612 14.2792 12.5689 14.2974 12.6777 14.2979C12.9209 14.2961 13.1654 14.3082 13.4066 14.2688C13.4036 14.2051 13.4003 14.1416 13.3897 14.0789C13.5146 14.0797 13.6395 14.0797 13.7646 14.0802C13.8203 14.173 13.8546 14.2764 13.8726 14.3828C13.2185 14.506 12.5394 14.5062 11.8855 14.3831C11.9113 14.1487 12.0802 13.9682 12.151 13.7487Z" fill="#96BEDC"/>
<path d="M13.3648 13.7395C13.4412 13.74 13.5176 13.7319 13.5929 13.718C13.6404 13.8429 13.6994 13.9633 13.7646 14.0801C13.6394 14.0796 13.5145 14.0796 13.3896 14.0788C13.3714 13.9772 13.3552 13.875 13.33 13.7752C13.3388 13.7663 13.356 13.7484 13.3648 13.7395Z" fill="#9DC5E0"/>
<path d="M14.2893 13.7256C14.3113 13.7671 14.335 13.8078 14.3583 13.849C14.3778 13.8839 14.3957 13.9198 14.4124 13.9564C14.4165 13.965 14.4245 13.9825 14.4286 13.9911C14.3805 14.0062 14.3325 14.0217 14.2847 14.0371C14.2524 13.9688 14.2142 13.9036 14.1773 13.8381C14.1674 13.8209 14.1578 13.8037 14.1484 13.7865C14.1962 13.7683 14.2433 13.7481 14.2893 13.7256Z" fill="#429164"/>
<path d="M11.3149 13.9973C11.3652 14.0158 11.4122 14.0423 11.4547 14.0752C11.4494 14.0924 11.439 14.1273 11.4337 14.1447C11.3829 14.1268 11.3323 14.1093 11.282 14.0904C11.2929 14.0593 11.3037 14.0282 11.3149 13.9973Z" fill="#CE922E"/>
<path d="M14.2848 14.0367C14.3326 14.0213 14.3806 14.0059 14.4287 13.9907L14.4421 14.0137C14.4603 14.0357 14.4795 14.057 14.4992 14.0785C14.4433 14.1005 14.3869 14.1214 14.3308 14.1422C14.3156 14.1068 14.3007 14.0714 14.2848 14.0367Z" fill="#15844F"/>
</svg>
