<svg width="66" height="66" viewBox="0 0 66 66" fill="none" xmlns="http://www.w3.org/2000/svg">
<path d="M28.0853 0.90533C30.0981 0.16551 32.2584 -0.0718258 34.3855 0.0181022C37.2892 0.12101 40.229 0.998966 42.5376 2.86335C44.0866 4.09546 45.3326 5.70674 46.2478 7.48491L46.2424 7.44504C46.3296 7.65549 46.4464 7.85111 46.5193 8.06898C45.9286 7.29022 45.5304 6.37147 44.9325 5.59549C44.1953 4.60999 43.3539 3.69773 42.3902 2.94493C39.8927 0.973008 36.686 0.121936 33.571 0.202594C30.5656 0.126572 27.4866 0.918309 25.0215 2.73448C23.8753 3.60317 22.863 4.66098 22.0395 5.85693C21.9361 6.01917 21.7851 6.13413 21.626 6.23241C23.1129 3.77561 25.4341 1.86394 28.0853 0.90533Z" fill="#BAD8EB"/>
<path d="M25.0225 2.73438C27.4876 0.918203 30.5666 0.126465 33.572 0.202487C36.687 0.12183 39.8938 0.972901 42.3912 2.94483C43.3549 3.69763 44.1964 4.60989 44.9335 5.59539C45.5314 6.37136 45.9296 7.29011 46.5203 8.06887L46.5652 8.11893L46.5679 8.16065C46.5643 8.28118 46.5796 8.39799 46.6129 8.51202C47.4507 10.3514 47.9326 12.3409 48.2634 14.3379C48.4127 15.3753 48.5412 16.4192 48.5601 17.4687C48.6734 18.3976 48.6266 19.3368 48.6212 20.2713C48.5286 20.9304 48.5772 21.5998 48.4792 22.259C48.143 25.8802 47.1909 29.5422 45.125 32.5395C43.5833 34.8285 41.3088 36.6159 38.7215 37.4429C38.7242 37.3576 38.7278 37.2732 38.7323 37.1889C38.9318 37.1128 39.1323 37.0359 39.331 36.9552C40.2965 36.564 41.2054 36.0356 42.0514 35.4172C43.1913 34.5782 44.1757 33.5111 44.9695 32.3226C45.7373 31.173 46.363 29.9251 46.8358 28.616C47.2817 27.3802 47.6153 26.1036 47.8526 24.8075C48.0729 23.5893 48.2149 22.3554 48.2778 21.1177C48.3462 19.9041 48.3372 18.6859 48.2922 17.4714C48.2284 16.2264 48.1367 14.9739 47.8697 13.7557C47.6629 12.4244 47.3114 11.1181 46.861 9.8526C46.3791 8.51109 45.7427 7.22892 44.9533 6.05244C44.1307 4.83146 43.1059 3.74676 41.9309 2.88457C40.7361 2.01866 39.3948 1.37062 37.987 0.971975C36.5513 0.559418 35.0571 0.391614 33.5693 0.390687C32.0922 0.388833 30.6089 0.553855 29.184 0.964558C27.7636 1.36228 26.4115 2.01217 25.2077 2.88735C24.0273 3.74213 23.0168 4.83332 22.188 6.04781C21.3834 7.21873 20.7613 8.51295 20.2668 9.8526C19.7975 11.1032 19.4604 12.4095 19.2518 13.7325C19.0415 14.9702 18.9129 16.2208 18.8419 17.4752C18.7853 18.6915 18.7924 19.9088 18.8509 21.1251C18.921 22.3572 19.0388 23.5903 19.2806 24.801C19.5215 26.0999 19.8497 27.383 20.3037 28.6207C20.7783 29.9205 21.396 31.1665 22.1637 32.3086C22.9674 33.4972 23.9518 34.5587 25.0854 35.4172C25.9458 36.0717 26.896 36.5983 27.8921 36.9979C28.071 37.0674 28.2508 37.1314 28.4315 37.1972C28.4189 37.264 28.409 37.3316 28.401 37.3993C28.0351 37.3836 27.7132 37.1861 27.3788 37.0581C26.0024 36.4398 24.7025 35.5989 23.6434 34.4947C21.2512 32.1585 19.8623 28.9266 19.1655 25.6503C19.1314 25.5585 19.0846 25.4723 19.0271 25.3935C18.7727 24.3542 18.6621 23.2741 18.5542 22.207C18.3412 19.6483 18.3888 17.0626 18.7457 14.5196C19.1107 11.9886 19.8119 9.4864 21.0175 7.23912C21.2135 6.90073 21.3834 6.53639 21.627 6.2323C21.7861 6.13403 21.9371 6.01907 22.0405 5.85683C22.864 4.66088 23.8763 3.60306 25.0225 2.73438Z" fill="#DEEDF3"/>
<path d="M29.1836 0.964755C30.6085 0.554053 32.0919 0.38903 33.5689 0.390885C33.5671 0.453 33.5653 0.578157 33.5644 0.640272C33.0097 0.784899 32.4308 0.678283 31.8698 0.776555C30.9816 0.846087 30.1105 1.038 29.2411 1.23083L29.2339 1.1956C29.2214 1.13812 29.1962 1.02223 29.1836 0.964755Z" fill="#FFE066"/>
<path d="M33.5689 0.390869C35.0567 0.391796 36.5508 0.5596 37.9866 0.972156C37.9605 1.07506 37.9353 1.17797 37.9119 1.28181C36.4951 0.893354 35.0279 0.707935 33.5635 0.738529V0.640257C33.5653 0.578142 33.5671 0.452984 33.5689 0.390869Z" fill="#50B475"/>
<path d="M31.8699 0.776175C32.4309 0.677904 33.0098 0.784519 33.5645 0.639893V0.738165C33.5627 0.948615 33.5618 1.15999 33.5618 1.37137C33.5618 1.48077 33.5627 1.58924 33.5645 1.69863C32.1782 1.61149 30.8073 1.91372 29.457 2.18814L29.4273 2.05371C29.3644 1.77929 29.3032 1.50487 29.2412 1.23045C30.1105 1.03762 30.9817 0.845707 31.8699 0.776175Z" fill="#FFE688"/>
<path d="M33.5633 0.738606C35.0278 0.708012 36.495 0.893431 37.9118 1.28188L37.8956 1.35141C37.8578 1.51273 37.8219 1.67312 37.7859 1.83443C37.7778 1.86966 37.7616 1.94012 37.7536 1.97535C37.0317 1.76768 36.2918 1.64716 35.551 1.54054C34.892 1.42929 34.2151 1.5322 33.5615 1.37181C33.5615 1.16043 33.5624 0.949056 33.5633 0.738606Z" fill="#89C699"/>
<path d="M25.207 2.88739C26.4108 2.01221 27.7629 1.36232 29.1833 0.9646C29.1959 1.02208 29.2211 1.13797 29.2336 1.19545C28.848 1.40775 28.429 1.54125 28.0155 1.68124C27.3404 1.93341 26.6904 2.25233 26.0728 2.63059C25.8246 2.79375 25.6017 3.00791 25.3086 3.08301C25.2834 3.03387 25.2322 2.9356 25.207 2.88739ZM46.5547 10.0687C46.6554 9.99541 46.7569 9.92402 46.8603 9.85264C47.3107 11.1181 47.6622 12.4244 47.869 13.7557C47.7764 13.7752 47.6856 13.7974 47.5957 13.8225C47.3233 13.9263 47.0563 14.0431 46.7848 14.146C45.0569 14.8376 43.33 15.5329 41.6021 16.2236C41.5068 15.4755 41.4223 14.7125 41.113 14.019L41.1013 13.993C42.573 12.9528 44.0276 11.8876 45.4903 10.8335C45.8445 10.5776 46.2023 10.3273 46.5547 10.0687Z" fill="#2F3039"/>
<path d="M37.9873 0.972168C39.3951 1.37082 40.7364 2.01886 41.9312 2.88476C41.8719 2.99416 41.8125 3.10263 41.755 3.21295C41.043 2.69842 40.277 2.26361 39.485 1.89648C38.9555 1.71292 38.435 1.50154 37.8965 1.35135L37.9127 1.28182C37.936 1.17798 37.9612 1.07508 37.9873 0.972168Z" fill="#F07E5E"/>
<path d="M29.2336 1.19556L29.2408 1.23079C29.3028 1.50521 29.364 1.77963 29.4269 2.05404C28.4065 2.22185 27.4869 2.75215 26.5717 3.21847C26.2579 3.38535 26.0125 3.70242 25.6412 3.73394C25.5495 3.55593 25.4569 3.37886 25.3679 3.19993C25.3526 3.17026 25.323 3.11186 25.3086 3.08312C25.6017 3.00802 25.8246 2.79386 26.0727 2.6307C26.6904 2.25244 27.3403 1.93352 28.0155 1.68135C28.429 1.54136 28.848 1.40786 29.2336 1.19556Z" fill="#4B4953"/>
<path d="M33.5615 1.37183C34.2151 1.53221 34.892 1.42931 35.551 1.54056C36.2918 1.64717 37.0317 1.76769 37.7536 1.97536C37.7167 2.13112 37.6816 2.28779 37.6466 2.44355C37.6115 2.59652 37.5756 2.74949 37.5405 2.90246C37.42 2.83663 37.3005 2.77359 37.18 2.71148C36.8564 2.54831 36.5237 2.40275 36.1785 2.29521C35.3326 2.03655 34.4479 1.95033 33.5687 1.93457C33.5678 1.87617 33.5651 1.75842 33.5642 1.69909C33.5624 1.58969 33.5615 1.48122 33.5615 1.37183Z" fill="#70BE87"/>
<path d="M37.8958 1.35132C38.4343 1.50151 38.9548 1.71288 39.4843 1.89645C40.2764 2.26358 41.0423 2.69838 41.7543 3.21292L41.7193 3.27967C41.6482 3.4141 41.5799 3.54946 41.5125 3.68481C40.858 3.21199 40.1613 2.79387 39.4151 2.49164C38.8892 2.22835 38.3102 2.10226 37.7861 1.83433C37.8221 1.67302 37.8581 1.51263 37.8958 1.35132Z" fill="#F29274"/>
<path d="M29.457 2.18837C30.8073 1.91395 32.1783 1.61172 33.5646 1.69887C33.5655 1.7582 33.5682 1.87594 33.5691 1.93435C32.7249 1.94455 31.8744 2.01964 31.0599 2.26068C30.6806 2.37008 30.3147 2.5212 29.9632 2.70291C29.8481 2.76132 29.733 2.82065 29.6215 2.88276C29.5631 2.65192 29.5083 2.42014 29.457 2.18837Z" fill="#FFDF5B"/>
<path d="M37.7858 1.83447C38.3099 2.1024 38.8889 2.22849 39.4148 2.49178C40.161 2.79401 40.8577 3.21213 41.5122 3.68495C41.4969 3.71647 41.4654 3.78044 41.4501 3.81196C41.3809 3.95103 41.3135 4.09009 41.2443 4.22915C40.1978 3.35769 38.9231 2.84037 37.6465 2.44357C37.6815 2.28782 37.7166 2.13114 37.7535 1.97539C37.7616 1.94016 37.7777 1.8697 37.7858 1.83447Z" fill="#EF7657"/>
<path d="M33.5687 1.93433C34.4479 1.95009 35.3325 2.03631 36.1785 2.29497C36.1452 2.32463 36.0778 2.38397 36.0436 2.41456C35.9366 3.2165 36.0508 4.0277 36.0553 4.83427C34.4587 4.35404 32.7218 4.35033 31.1225 4.82037C31.0191 3.97208 31.1333 3.11266 31.0596 2.26066C31.8741 2.01962 32.7245 1.94452 33.5687 1.93433Z" fill="#D7E7F1"/>
<path d="M26.5721 3.21863C27.4872 2.7523 28.4069 2.222 29.4273 2.0542L29.457 2.18863C29.5082 2.4204 29.563 2.65217 29.6215 2.88302C29.4228 2.9952 29.2376 3.12777 29.0479 3.25293C28.9364 3.23995 28.8187 3.21028 28.7189 3.27889C28.1876 3.54775 27.7273 3.94269 27.1933 4.20691C26.8382 4.37657 26.5433 4.65006 26.1918 4.82621C26.119 4.68436 26.0462 4.54159 25.9751 4.39882C25.8673 4.18188 25.7603 3.96401 25.6488 3.74892L25.6416 3.73409C26.0129 3.70257 26.2583 3.3855 26.5721 3.21863Z" fill="#35363E"/>
<path d="M29.9629 2.70297C30.3144 2.52126 30.6803 2.37014 31.0597 2.26074C31.1334 3.11274 31.0192 3.97216 31.1226 4.82045C30.9014 4.89276 30.6812 4.96971 30.4663 5.05778C30.273 4.27902 30.1418 3.48543 29.9629 2.70297Z" fill="#C3DCED"/>
<path d="M36.1785 2.29468C36.5237 2.40222 36.8563 2.54777 37.18 2.71094C37.0011 3.49248 36.8599 4.28236 36.6828 5.0639C36.4761 4.97861 36.2666 4.90352 36.0553 4.83399C36.0508 4.02741 35.9367 3.21621 36.0437 2.41427C36.0778 2.38368 36.1452 2.32434 36.1785 2.29468Z" fill="#C6DEEE"/>
<path d="M37.6464 2.44336C38.923 2.84016 40.1978 3.35747 41.2442 4.22894L41.1948 4.32628C41.1301 4.45237 41.0662 4.57845 41.0015 4.70454C40.3434 4.28364 39.7015 3.80897 38.9455 3.59017C38.6731 3.45204 38.4133 3.17669 38.086 3.25642C37.908 3.13033 37.7273 3.00981 37.5403 2.90227C37.5754 2.7493 37.6114 2.59633 37.6464 2.44336ZM19.145 17.5253C19.3131 17.5438 19.4813 17.5633 19.6503 17.5846C19.6134 18.7129 19.6089 19.8393 19.6628 20.9667C19.7168 20.9778 19.8256 21.0001 19.8795 21.0103L19.8948 21.026C19.6817 21.0464 19.4696 21.0659 19.2574 21.0891C19.2196 21.0937 19.1432 21.1039 19.1055 21.1085C19.1819 19.9172 19.0866 18.7194 19.145 17.5253ZM22.4704 31.9666C22.5954 31.8285 22.7203 31.6904 22.8444 31.5513C22.9172 32.0111 23.329 32.2744 23.5789 32.6286C23.9628 33.158 24.4887 33.5436 24.9202 34.0276C25.1063 34.2139 25.3319 34.353 25.5657 34.467C25.4641 34.6589 25.3652 34.8517 25.2663 35.0446L25.2492 35.0242C24.8438 34.5885 24.343 34.2621 23.9385 33.8255C23.3838 33.2655 22.8354 32.6814 22.4704 31.9666Z" fill="#E94B33"/>
<path d="M29.621 2.88298C29.7325 2.82087 29.8475 2.76153 29.9626 2.70312C30.1415 3.48559 30.2728 4.27918 30.466 5.05794C29.9437 5.28137 29.434 5.56413 29.0276 5.97669C28.9593 5.87564 28.8937 5.76995 28.8667 5.6485C28.7085 5.06999 28.579 4.485 28.4181 3.90742C28.5934 3.6571 28.8137 3.4448 29.0474 3.25289C29.2371 3.12773 29.4223 2.99516 29.621 2.88298ZM37.1798 2.71147C37.3002 2.77358 37.4198 2.83663 37.5403 2.90245C37.7273 3.00999 37.908 3.13051 38.086 3.2566C38.3233 3.44573 38.5418 3.66452 38.7207 3.91484C38.5283 4.61664 38.3763 5.32958 38.1615 6.02397C37.7425 5.59844 37.2238 5.29342 36.6826 5.06443C36.8597 4.28289 37.0009 3.49301 37.1798 2.71147ZM31.6815 8.64857C31.8874 8.60593 32.0995 8.59665 32.3045 8.65506C32.264 9.13251 32.3279 9.62109 32.5706 10.0374C32.3863 10.0661 32.2038 10.0948 32.0222 10.1301C31.9134 10.1523 31.8056 10.1755 31.6986 10.1996C31.6734 9.71936 31.7166 9.23913 31.6824 8.75982V8.64857M30.0183 11.187C30.6611 10.8523 31.3525 10.6279 32.0627 10.5046C32.1049 10.5222 32.1894 10.5575 32.2326 10.5751C31.9476 10.728 31.6527 10.8625 31.392 11.0562C30.3186 11.7886 29.6021 12.9735 29.2641 14.238C28.9719 15.2912 28.8676 16.3944 28.8982 17.4875C28.3912 17.5746 27.8859 17.6673 27.3861 17.7851C27.3339 17.7906 27.2305 17.8008 27.1793 17.8064C27.0876 16.7338 27.1388 15.6472 27.3834 14.5977C27.6486 13.7392 28.0414 12.9113 28.6384 12.2448C29.0573 11.8406 29.5005 11.4502 30.0183 11.187ZM34.8334 10.5426C35.4222 10.5306 35.9841 10.7364 36.5397 10.9162C37.1079 11.1285 37.6176 11.4753 38.0923 11.8563C38.7872 12.4589 39.2645 13.2766 39.608 14.1333C39.9811 15.3181 40.0566 16.5771 39.9541 17.812C39.9082 17.8064 39.8147 17.7934 39.768 17.7869C39.2654 17.6738 38.7602 17.5737 38.2532 17.4912C38.2433 15.9633 38.0878 14.3826 37.4 13.005C36.9982 12.1669 36.3572 11.4642 35.593 10.9663C35.353 10.8004 35.0896 10.6771 34.8334 10.5426ZM27.4778 18.2227C27.8248 18.1633 28.1709 18.0994 28.5143 18.0168C28.6384 18.0243 28.7633 18.0335 28.8883 18.0437C29.0339 20.634 29.6462 23.1678 30.4157 25.6292C30.849 27.1765 31.3318 28.7127 31.6473 30.2925C31.8253 31.265 31.891 32.2728 31.7148 33.2508C31.5529 34.1056 31.2868 34.9344 30.9812 35.7456C30.7295 36.5504 30.1289 37.2123 30.0372 38.0717C29.7208 37.9994 29.407 37.9188 29.096 37.8279C29.2461 37.0269 29.8008 36.415 30.1118 35.6854C30.5209 34.8186 30.8149 33.8989 31.0333 32.9634C31.1798 32.3645 31.1682 31.735 31.0612 31.1306C30.7591 29.6667 30.0525 28.34 29.5221 26.9568C28.713 24.996 28.1179 22.949 27.6612 20.8732C27.511 20.0463 27.3636 19.2202 27.2386 18.3895C27.3169 18.333 27.3969 18.2774 27.4778 18.2227ZM37.3335 23.4663C37.8037 21.6891 38.1363 19.8673 38.2262 18.0252C38.3682 18.0252 38.5103 18.0261 38.6532 18.028C38.9904 18.1114 39.3329 18.1707 39.6727 18.2431C39.7239 18.2625 39.8255 18.3024 39.8759 18.3219C39.8066 19.146 39.6313 19.9573 39.4848 20.7694C39.0874 22.6477 38.5678 24.5 37.8738 26.2856C37.365 27.6577 36.7078 28.9686 36.2646 30.3666C35.9706 31.2798 35.8726 32.282 36.1567 33.2128C36.4273 34.2493 36.7743 35.2728 37.2832 36.2129C37.5807 36.7274 37.9313 37.2271 38.0311 37.8316C37.7228 37.9178 37.4126 37.9948 37.1025 38.0708C37.0386 37.6805 36.9164 37.3013 36.7186 36.9611C36.4866 36.5327 36.2772 36.0914 36.1082 35.6335C35.8178 34.8473 35.5652 34.0444 35.4114 33.2175C35.273 32.4053 35.2955 31.5691 35.4105 30.7551C35.7243 28.8611 36.3311 27.0375 36.8498 25.1963C37.0287 24.6252 37.1915 24.0485 37.3335 23.4663Z" fill="white"/>
<path d="M22.1875 6.04791C23.0164 4.83342 24.0269 3.74223 25.2072 2.88745C25.2324 2.93566 25.2837 3.03393 25.3088 3.08307C25.3232 3.11181 25.3529 3.17021 25.3682 3.19988C24.1977 4.02314 23.2034 5.09579 22.3826 6.28154C22.317 6.20366 22.2513 6.12579 22.1875 6.04791Z" fill="#FDC647"/>
<path d="M41.7548 3.21271C41.8123 3.10239 41.8717 2.99392 41.931 2.88452C43.106 3.74672 44.1308 4.83142 44.9534 6.0524C44.8626 6.15623 44.7745 6.26007 44.6873 6.3639C43.871 5.17537 42.8812 4.11292 41.7197 3.27946L41.7548 3.21271Z" fill="#FFDE54"/>
<path d="M25.3684 3.19995C25.4574 3.37888 25.55 3.55596 25.6417 3.73396L25.6489 3.74879C24.9486 4.17711 24.3831 4.79084 23.814 5.38233C23.4176 5.78747 23.1407 6.30108 22.7136 6.67562C22.6255 6.57364 22.5392 6.46981 22.4529 6.36597L22.3828 6.28161C23.2036 5.09586 24.1979 4.02321 25.3684 3.19995Z" fill="#FFE377"/>
<path d="M28.7185 3.27845C28.8183 3.20985 28.936 3.23951 29.0475 3.25249C28.8138 3.4444 28.5935 3.65671 28.4182 3.90702C28.064 4.39375 27.9238 5.01953 28.0002 5.61936C28.0586 6.25998 28.2258 6.88299 28.3886 7.50136C28.4542 7.79154 28.5899 8.05669 28.75 8.3033C28.714 8.31628 28.6412 8.34316 28.6052 8.35614C28.4326 8.42845 28.2654 8.51189 28.1045 8.60646C28.0281 8.45627 27.9525 8.30608 27.8761 8.15682C27.325 7.07953 26.7874 5.99483 26.2382 4.91663C26.2265 4.89345 26.2031 4.84802 26.1914 4.82577C26.5429 4.64962 26.8378 4.37613 27.1929 4.20647C27.7269 3.94225 28.1872 3.54731 28.7185 3.27845ZM28.714 9.82095C28.9612 9.59288 29.2768 9.47514 29.5959 9.40283C29.933 9.40654 30.2765 9.41673 30.5992 9.52891C30.7871 9.59844 30.9687 9.68466 31.1503 9.77181V10.3077C30.7287 10.3976 30.3232 10.5487 29.925 10.7137C29.7164 10.8046 29.5114 10.9038 29.3109 11.0113C29.1194 10.6099 28.9154 10.2159 28.714 9.82095Z" fill="#1E2129"/>
<path d="M38.0867 3.25641C38.4139 3.17668 38.6737 3.45203 38.9461 3.59016C39.3615 3.92299 39.7463 4.33184 39.8901 4.86862C40.1139 5.66221 39.7777 6.45488 39.7103 7.24291C39.5683 7.55348 39.4145 7.85757 39.2572 8.15888C39.1799 8.30814 39.1044 8.45833 39.0307 8.60759C38.8706 8.5121 38.7043 8.42959 38.5344 8.35727C38.4957 8.34244 38.4193 8.31463 38.3807 8.29979C38.5263 8.07915 38.6558 7.84274 38.7178 7.5813C38.9345 6.78771 39.1619 5.97835 39.1484 5.14675C39.134 4.70267 38.9704 4.27343 38.7214 3.91464C38.5425 3.66433 38.324 3.44554 38.0867 3.25641ZM36.7409 9.46793C36.9827 9.4188 37.23 9.40118 37.4772 9.40025C37.8224 9.45032 38.1586 9.58104 38.4229 9.82023C38.2162 10.2142 38.0157 10.612 37.8152 11.0088C37.4718 10.8261 37.1176 10.6648 36.7526 10.5341C36.5126 10.4479 36.2644 10.3904 36.0262 10.3042C35.9543 10.1364 36.0028 9.93519 35.992 9.75533C36.2357 9.64501 36.4829 9.53839 36.7409 9.46793ZM26.1354 10.7019C26.3395 10.9448 26.5427 11.1886 26.7602 11.4185C26.7413 11.6188 26.7296 11.8181 26.7207 12.0184C26.7135 12.2075 26.7117 12.3966 26.7144 12.5857C26.718 12.7916 26.7287 12.9974 26.744 13.2032C26.851 13.6111 26.6056 13.9606 26.477 14.3259C26.3314 14.2193 26.1849 14.1136 26.0392 14.0079L26.0176 13.9931C26.1165 13.7808 26.2613 13.5648 26.219 13.3163C26.1174 12.4495 26.041 11.5734 26.1354 10.7019ZM25.7354 18.4107C25.899 18.432 26.0626 18.4542 26.2271 18.4765C26.2307 18.4997 26.237 18.546 26.2406 18.5692C26.3377 19.1357 26.4402 19.7021 26.5768 20.2593C26.4186 20.2778 26.2604 20.2964 26.103 20.3158C26.0401 20.3233 25.9134 20.3372 25.8504 20.3446C25.9187 20.2964 25.9871 20.2472 26.0545 20.1963C25.9223 19.6066 25.7722 19.017 25.7354 18.4107ZM40.1086 21.9086C40.2731 21.357 40.4286 20.8026 40.5625 20.2426C40.701 20.2574 40.8403 20.2723 40.9806 20.288C40.9977 20.2899 41.0327 20.2936 41.0498 20.2955C40.915 20.8906 40.7405 21.4756 40.5598 22.0569C40.4088 22.0078 40.2578 21.9577 40.1086 21.9086ZM27.9658 25.7894C28.0745 25.668 28.1815 25.5437 28.2885 25.4204C28.5852 26.1482 28.8953 26.8704 29.2316 27.5805C29.1524 27.727 29.0742 27.8735 28.996 28.0209C28.5852 27.3126 28.2804 26.5459 27.9658 25.7894Z" fill="#BA1716"/>
<path d="M41.5122 3.68492C41.5797 3.54957 41.648 3.41421 41.719 3.27979C42.8805 4.11324 43.8703 5.17569 44.6866 6.36422L44.6569 6.39945C44.5401 6.53574 44.425 6.67387 44.309 6.81015C44.0456 6.34939 43.7274 5.92293 43.3534 5.55209C42.7501 4.93743 42.1757 4.27826 41.4502 3.81194C41.4655 3.78042 41.4969 3.71645 41.5122 3.68492Z" fill="#FFE892"/>
<path d="M38.9458 3.59058C39.7018 3.80937 40.3437 4.28404 41.0018 4.70494C40.9856 4.73554 40.9532 4.79765 40.9371 4.82917C40.528 5.63389 40.1343 6.44695 39.7099 7.24332C39.7773 6.45529 40.1136 5.66263 39.8897 4.86904C39.7459 4.33225 39.3611 3.9234 38.9458 3.59058ZM23.3733 7.4547C23.4344 7.52794 23.4965 7.60211 23.5603 7.67627C24.4117 8.67661 25.2639 9.67694 26.1153 10.6782L26.135 10.7023C26.0406 11.5738 26.1171 12.4499 26.2186 13.3167C26.2609 13.5652 26.1162 13.7812 26.0173 13.9935C24.5546 12.9366 23.0928 11.8797 21.6302 10.8228C21.8369 10.3565 22.0329 9.88461 22.2577 9.42663C22.53 8.71369 22.976 8.09532 23.3733 7.4547ZM20.5424 17.7046C22.2568 17.9383 23.9711 18.17 25.6855 18.4037L25.735 18.4111C25.7718 19.0174 25.922 19.607 26.0541 20.1967C25.9867 20.2477 25.9184 20.2968 25.8501 20.345C24.142 20.5369 22.4339 20.7335 20.7258 20.9207C20.6727 20.917 20.5657 20.9096 20.5127 20.9059C20.6466 20.5351 20.5505 20.1383 20.5433 19.7554C20.5505 19.0721 20.5046 18.3888 20.5433 17.7046M41.0503 20.2959C42.8106 20.4887 44.5681 20.6954 46.3284 20.8873C46.3877 20.8948 46.5073 20.9077 46.5675 20.9152C46.4911 22.0147 46.3589 23.1068 46.2331 24.2017C44.3398 23.4943 42.451 22.774 40.555 22.075L40.5604 22.0573C40.7411 21.4761 40.9155 20.8911 41.0503 20.2959ZM23.4048 30.9111C24.9322 29.2108 26.4407 27.4929 27.9663 25.7898C28.2809 26.5463 28.5857 27.313 28.9965 28.0213C28.9903 28.0334 28.9768 28.0593 28.9696 28.0714C28.0077 29.8774 27.0484 31.6833 26.0865 33.4884C26.0658 33.5283 26.0245 33.6071 26.0038 33.6469C25.1668 33.1973 24.5366 32.4324 23.9217 31.7121C23.8066 31.3904 23.4273 31.2745 23.4048 30.9111Z" fill="#E30613"/>
<path d="M23.8133 5.38207C24.3823 4.79059 24.9478 4.17685 25.6481 3.74854C25.7596 3.96362 25.8666 4.18149 25.9745 4.39843C25.1797 5.07335 24.3706 5.75198 23.7467 6.60584C23.5687 6.82185 23.451 7.11666 23.1768 7.22143C23.1408 7.17878 23.0698 7.09441 23.0347 7.05177C22.9278 6.92568 22.8199 6.80053 22.7129 6.67537C23.1399 6.30082 23.4168 5.78721 23.8133 5.38207Z" fill="#FFDE52"/>
<path d="M41.2448 4.22872C41.314 4.08965 41.3814 3.95059 41.4506 3.81152C42.1761 4.27785 42.7506 4.93701 43.3538 5.55168C43.7278 5.92251 44.046 6.34898 44.3094 6.80974C44.1899 6.94788 44.0703 7.08602 43.9534 7.22508C43.5381 6.64843 43.0751 6.10979 42.5933 5.59154C42.1653 5.12614 41.6466 4.7655 41.1953 4.32606L41.2448 4.22872Z" fill="#FFDF64"/>
<path d="M28.0007 5.61957C27.9243 5.01974 28.0645 4.39395 28.4187 3.90723C28.5797 4.48481 28.7091 5.0698 28.8673 5.64831C28.8943 5.76976 28.9599 5.87544 29.0283 5.9765C28.8089 6.20085 28.6219 6.46044 28.4996 6.7534C28.4889 6.78492 28.4673 6.84889 28.4565 6.88041C28.4205 7.0853 28.3963 7.29297 28.3891 7.50157C28.2263 6.88319 28.0591 6.26019 28.0007 5.61957Z" fill="#A8CEE6"/>
<path d="M38.7213 3.91479C38.9703 4.27358 39.1339 4.70282 39.1483 5.1469C39.1618 5.9785 38.9343 6.78786 38.7177 7.58145C38.7366 7.34782 38.7204 7.11327 38.679 6.88335C38.6763 6.86666 38.6709 6.83328 38.6673 6.8166C38.5388 6.52827 38.3725 6.25663 38.1621 6.02393C38.377 5.32954 38.5289 4.6166 38.7213 3.91479ZM39.6086 14.1332C39.7488 13.5992 39.5601 13.0467 39.6652 12.5145C39.7434 12.6165 39.8235 12.7203 39.9035 12.8232C40.0716 12.8334 40.2397 12.8427 40.4096 12.8529C40.406 13.1014 40.3718 13.3489 40.3745 13.5983C40.4447 13.843 40.5651 14.0683 40.6487 14.3084C40.8915 14.9963 41.0137 15.7269 41.029 16.4584C41.0452 16.9951 41.0074 17.531 40.9508 18.0641C40.5543 17.9825 40.1606 17.887 39.7686 17.7869C39.8154 17.7934 39.9089 17.8064 39.9547 17.8119C40.0572 16.577 39.9817 15.318 39.6086 14.1332Z" fill="#A9CFE7"/>
<path d="M41.0022 4.70467C41.067 4.57859 41.1308 4.4525 41.1955 4.32642C41.6468 4.76586 42.1655 5.1265 42.5935 5.5919C43.0753 6.11014 43.5383 6.64878 43.9536 7.22544C43.8727 7.32 43.7936 7.41456 43.7145 7.50913C43.3306 7.28106 43.1652 6.83049 42.8551 6.52177C42.2599 5.91082 41.6972 5.2294 40.9375 4.8289C40.9537 4.79738 40.986 4.73526 41.0022 4.70467ZM45.4199 27.6437L45.4334 27.653C45.6249 27.7837 45.8155 27.9163 46.007 28.0489C45.5799 29.2801 44.9965 30.4565 44.2656 31.5255C44.2206 31.4745 44.1307 31.3744 44.0867 31.3234C43.977 31.2019 43.8682 31.0814 43.7622 30.9581C44.0076 30.5326 44.3078 30.1395 44.5119 29.6889C44.6782 29.3171 44.9425 28.9973 45.0693 28.6061C45.1763 28.2816 45.2958 27.9617 45.4199 27.6437Z" fill="#FFDB2E"/>
<path d="M25.9754 4.39868C26.0464 4.54145 26.1193 4.68423 26.1921 4.82607C26.2038 4.84832 26.2271 4.89375 26.2388 4.91693C25.5403 5.26366 25.045 5.90335 24.493 6.44292C24.172 6.84528 23.7971 7.2087 23.5607 7.67596C23.4969 7.60179 23.4348 7.52762 23.3737 7.45438C23.3072 7.3765 23.2425 7.29956 23.1777 7.22168C23.4519 7.11692 23.5697 6.8221 23.7477 6.60609C24.3716 5.75224 25.1807 5.07361 25.9754 4.39868Z" fill="#FFD91E"/>
<path d="M31.1223 4.82062C32.7216 4.35058 34.4585 4.35429 36.0551 4.83453C36.2664 4.90406 36.4758 4.97915 36.6826 5.06445C37.2238 5.29344 37.7425 5.59845 38.1615 6.02399C38.3718 6.25669 38.5381 6.52833 38.6667 6.81665C38.4806 6.86115 38.2909 6.8936 38.1003 6.88247C37.5735 6.86393 37.0458 6.86301 36.5217 6.90936C36.2079 6.87506 35.8924 6.85373 35.5795 6.91214C35.3961 6.78606 35.2002 6.67944 35.0015 6.58395C34.1546 6.29655 33.2278 6.27616 32.3674 6.50886C32.131 6.58859 31.9035 6.6952 31.6887 6.82314L31.6545 6.84539C31.3533 6.74156 31.036 6.80367 30.7276 6.79162C29.9851 6.76566 29.2389 6.84076 28.499 6.75361C28.6213 6.46065 28.8083 6.20106 29.0276 5.9767C29.434 5.56415 29.9437 5.28139 30.466 5.05796C30.6809 4.96988 30.9011 4.89293 31.1223 4.82062ZM32.4124 4.81784C31.5304 4.91426 30.6018 5.12193 29.8907 5.69301C30.2179 5.7097 30.5514 5.62997 30.8742 5.72083C31.2077 5.79685 31.3605 6.18994 31.6932 6.26874C32.371 6.39204 32.9868 5.91552 33.6683 6.00359C34.2526 5.99617 34.7812 6.40039 35.371 6.25947C35.7063 6.18994 35.8618 5.80148 36.1909 5.72268C36.5109 5.62997 36.8417 5.71712 37.1681 5.69301C36.1333 4.86234 34.7641 4.82989 33.5163 4.73162C33.1486 4.76592 32.7819 4.81969 32.4124 4.81784Z" fill="#598FAA"/>
<path d="M32.4133 4.81766C32.7828 4.81952 33.1496 4.76575 33.5173 4.73145C34.7651 4.82972 36.1343 4.86217 37.169 5.69284C36.8427 5.71695 36.5118 5.6298 36.1918 5.72251C35.8628 5.80131 35.7072 6.18976 35.3719 6.25929C34.7822 6.40021 34.2535 5.996 33.6692 6.00342C32.9878 5.91534 32.3719 6.39187 31.6941 6.26857C31.3615 6.18976 31.2086 5.79668 30.8751 5.72065C30.5524 5.6298 30.2188 5.70953 29.8916 5.69284C30.6027 5.12175 31.5314 4.91408 32.4133 4.81766Z" fill="#6094AF"/>
<path d="M39.7102 7.24276C40.1345 6.44639 40.5283 5.63333 40.9373 4.82861C41.697 5.22912 42.2597 5.91053 42.8549 6.52149C43.165 6.83021 43.3304 7.28077 43.7143 7.50884L43.7098 7.5144C42.8135 8.56758 41.9127 9.61798 41.0227 10.6767C40.8753 10.0083 40.7108 9.29071 40.2037 8.80491C39.9412 8.51195 39.5681 8.38216 39.2571 8.15873C39.4144 7.85743 39.5681 7.55334 39.7102 7.24276ZM24.4928 6.44268C25.0448 5.90311 25.5401 5.26342 26.2387 4.91669C26.788 5.9949 27.3256 7.0796 27.8766 8.15688C27.5638 8.40256 27.1673 8.52215 26.9039 8.83736C26.4068 9.31482 26.2557 10.0222 26.1155 10.6776C25.2642 9.67638 24.4119 8.67605 23.5605 7.67572C23.797 7.20846 24.1719 6.84504 24.4928 6.44268ZM39.9268 23.8618L39.9394 23.8702C41.7689 25.1236 43.5876 26.3937 45.4197 27.6434C45.2957 27.9614 45.1761 28.2813 45.0691 28.6058C44.9423 28.997 44.678 29.3168 44.5117 29.6886C44.3076 30.1392 44.0074 30.5323 43.762 30.9578C42.2364 29.2325 40.7045 27.5137 39.1726 25.7957L39.1744 25.7902C39.4414 25.1542 39.7129 24.5191 39.9268 23.8618ZM26.0858 33.4878C27.0478 31.6828 28.007 29.8768 28.9689 28.0708C29.5874 29.2176 30.1817 30.4952 30.0262 31.845C29.8742 32.9807 29.3582 34.0154 28.8646 35.0268C28.3855 34.8284 27.9495 34.5373 27.4631 34.3575C26.9884 34.0951 26.5398 33.7854 26.0858 33.4878Z" fill="#FFD600"/>
<path d="M22.1877 6.04785C22.2515 6.12573 22.3171 6.2036 22.3828 6.28148L22.4529 6.36584C21.9333 7.19467 21.4415 8.04296 21.054 8.94687C20.8913 9.31493 20.7664 9.70431 20.5398 10.039C20.449 9.97594 20.3573 9.91383 20.2665 9.85264C20.761 8.51299 21.3831 7.21877 22.1877 6.04785ZM18.8416 17.4752C18.918 17.4826 19.0708 17.4974 19.1473 17.5049L19.1455 17.5253C19.087 18.7194 19.1823 19.9172 19.1059 21.1085C19.0421 21.1131 18.9144 21.1215 18.8506 21.1252C18.7922 19.9088 18.785 18.6915 18.8416 17.4752ZM47.8955 21.0668C47.9269 21.0705 47.989 21.0788 48.0204 21.0825C48.0851 21.0909 48.2128 21.1094 48.2775 21.1177C48.2146 22.3554 48.0726 23.5894 47.8523 24.8076C47.7444 24.7677 47.6374 24.7269 47.5314 24.688L47.5161 24.6815C47.6249 23.9852 47.7489 23.2899 47.8056 22.5853C47.8361 22.0782 47.9566 21.5767 47.8955 21.0668ZM22.1634 32.3087C22.265 32.1937 22.3675 32.0806 22.4709 31.9666C22.8359 32.6814 23.3842 33.2654 23.9389 33.8254C24.3435 34.2621 24.8442 34.5884 25.2497 35.0241C25.1948 35.1549 25.1391 35.2856 25.0852 35.4172C23.9515 34.5587 22.9671 33.4972 22.1634 32.3087Z" fill="#CD301F"/>
<path d="M44.953 6.05273C45.7423 7.22922 46.3788 8.51138 46.8607 9.85289C46.7573 9.92427 46.6557 9.99566 46.555 10.0689C46.1963 9.2373 45.8979 8.37139 45.4205 7.60098C45.1787 7.19213 44.9719 6.7564 44.6572 6.39947L44.6869 6.36424C44.7741 6.2604 44.8622 6.15657 44.953 6.05273Z" fill="#114D8B"/>
<path d="M22.4531 6.36572C22.5394 6.46956 22.6257 6.57339 22.7138 6.67537C22.8208 6.80053 22.9287 6.92569 23.0357 7.05177C22.5403 7.50976 22.2985 8.17077 21.9694 8.75113C21.644 9.30832 21.4669 9.93689 21.2197 10.5321C21.0183 10.3884 20.8187 10.24 20.6192 10.0945C20.5994 10.0806 20.5598 10.0528 20.54 10.0389C20.7666 9.70418 20.8915 9.31481 21.0543 8.94675C21.4417 8.04283 21.9335 7.19454 22.4531 6.36572ZM47.2385 20.9915C47.3023 20.999 47.43 21.0138 47.4947 21.0212C47.6269 21.036 47.7617 21.0509 47.8957 21.0666C47.9568 21.5765 47.8363 22.0781 47.8058 22.5852C47.7491 23.2898 47.6251 23.9851 47.5163 24.6814C47.27 24.5887 47.0255 24.496 46.78 24.406C46.8412 24.241 46.9131 24.0788 46.9427 23.9045C47.0902 22.9394 47.1801 21.9659 47.2385 20.9915Z" fill="#E84831"/>
<path d="M32.368 6.5085C33.2283 6.2758 34.1552 6.2962 35.0021 6.58359C34.8699 6.71061 34.7656 6.86265 34.6416 6.99615C33.8702 7.04621 33.0953 6.98503 32.3221 7.00728C32.3302 6.8404 32.3482 6.67445 32.368 6.5085ZM35.9865 8.41553C36.587 8.1476 37.2621 8.04562 37.9076 8.18283C37.6532 8.19581 37.3925 8.19396 37.148 8.27276C37.0005 8.50546 37.059 8.78729 37.0904 9.04317C37.041 9.05708 36.9412 9.08582 36.8917 9.09973C36.7704 9.13495 36.6526 9.17297 36.5348 9.21561C36.3523 9.28236 36.1734 9.35838 35.9945 9.43441C35.9892 9.13217 35.9802 8.82994 35.9766 8.52678L35.9865 8.41553ZM27.2698 12.8925C27.2859 13.4608 27.1897 14.0504 27.3839 14.5974C27.1394 15.6469 27.0882 16.7334 27.1799 17.8061C27.2311 17.8005 27.3345 17.7903 27.3866 17.7847C26.9857 17.8886 26.5838 17.9868 26.1793 18.0721C26.1217 17.5446 26.0939 17.0134 26.102 16.4822C26.1181 15.7488 26.244 15.0183 26.4768 14.3257C26.6054 13.9605 26.8508 13.611 26.7438 13.203C26.9147 13.0918 27.09 12.9889 27.2698 12.8925Z" fill="#AACFE7"/>
<path d="M44.3086 6.81012C44.4246 6.67383 44.5397 6.5357 44.6565 6.39941C44.9712 6.75634 45.178 7.19208 45.4198 7.60093C45.8972 8.37134 46.1956 9.23725 46.5543 10.0688C46.2019 10.3275 45.8441 10.5778 45.4899 10.8337C45.4297 10.804 45.3703 10.7744 45.3119 10.7447C45.0854 10.0383 44.7617 9.36889 44.4147 8.719C44.2025 8.30366 44.0012 7.8772 43.709 7.51471L43.7135 7.50914C43.7926 7.41458 43.8717 7.32002 43.9526 7.22545C44.0695 7.08639 44.189 6.94825 44.3086 6.81012Z" fill="#085FAA"/>
<path d="M31.6893 6.82307C31.9042 6.69513 32.1316 6.58852 32.3681 6.50879C32.3483 6.67474 32.3303 6.84069 32.3222 7.00756C32.3159 7.21523 32.3177 7.42198 32.3177 7.62872C32.1262 7.51654 31.9087 7.49336 31.6938 7.48687C31.6884 7.2653 31.6875 7.04372 31.6893 6.82307Z" fill="#D2E5F0"/>
<path d="M34.6415 6.99654C34.7656 6.86304 34.8699 6.711 35.002 6.58398C35.2007 6.67947 35.3967 6.78609 35.5801 6.91218C36.0404 7.26169 36.0485 7.88562 35.9864 8.41592L35.9765 8.52717C35.9658 8.47804 35.9433 8.37791 35.9316 8.32877C35.9172 8.0766 35.9163 7.82536 35.901 7.57412C35.7698 7.58803 35.6385 7.60193 35.5091 7.61584C35.4758 7.43135 35.4443 7.24686 35.4129 7.06236C35.234 7.02528 35.056 6.99005 34.8771 6.9576C34.8276 7.15044 34.8564 7.39148 34.7215 7.54538C33.925 7.64643 33.1123 7.48512 32.3176 7.62882C32.3176 7.42208 32.3158 7.21533 32.3221 7.00767C33.0953 6.98542 33.8702 7.0466 34.6415 6.99654Z" fill="#B9D7EB"/>
<path d="M28.4561 6.88067C28.4668 6.84915 28.4884 6.78518 28.4992 6.75366C29.2391 6.84081 29.9853 6.76571 30.7278 6.79167C31.0362 6.80373 31.3535 6.74161 31.6547 6.84544C31.3086 7.09483 31.0766 7.49534 31.1387 7.94312C31.1378 8.09887 31.1414 8.25463 31.1468 8.4113C30.637 8.19251 30.0841 8.09238 29.5331 8.13503C29.3874 8.15543 29.2427 8.18046 29.0997 8.21013C28.7617 7.83929 28.5666 7.37111 28.4561 6.88067Z" fill="#6698B3"/>
<path d="M31.655 6.84525L31.6891 6.823C31.6873 7.04365 31.6891 7.26522 31.6936 7.4868C31.6936 7.53501 31.6963 7.63142 31.6972 7.67963C31.5345 7.81406 31.3358 7.88266 31.1389 7.94293C31.0769 7.49514 31.3089 7.09464 31.655 6.84525Z" fill="#BDD9EC"/>
<path d="M35.5801 6.91214C35.8929 6.85373 36.2085 6.87506 36.5222 6.90936C37.0463 6.86301 37.5741 6.86393 38.1009 6.88247C38.2915 6.8936 38.4811 6.86115 38.6672 6.81665C38.6708 6.83334 38.6762 6.86671 38.6789 6.8834C38.5809 7.37754 38.3508 7.82255 38.0406 8.20729C38.0074 8.20173 37.9408 8.18968 37.9076 8.18319C37.2621 8.04598 36.587 8.14796 35.9864 8.41589C36.0485 7.88559 36.0404 7.26165 35.5801 6.91214Z" fill="#6799B4"/>
<path d="M28.4561 6.88037C28.5667 7.3708 28.7618 7.83898 29.0998 8.20982C28.9811 8.23578 28.8642 8.26638 28.7501 8.30346C28.59 8.05685 28.4543 7.7917 28.3887 7.50152C28.3959 7.29293 28.4201 7.08526 28.4561 6.88037ZM38.0403 8.20704C38.3505 7.8223 38.5806 7.37729 38.6786 6.88315C38.72 7.11307 38.7362 7.34763 38.7173 7.58125C38.6552 7.84269 38.5258 8.0791 38.3801 8.29975C38.2678 8.26359 38.1536 8.23393 38.0403 8.20704Z" fill="#49839F"/>
<path d="M34.8764 6.95752C35.0553 6.98997 35.2333 7.0252 35.4122 7.06228C35.4436 7.24677 35.4751 7.43126 35.5084 7.61576C35.6378 7.60185 35.7691 7.58794 35.9003 7.57404C35.9156 7.82528 35.9165 8.07652 35.9309 8.32869C35.7844 8.31942 35.6396 8.30922 35.4949 8.29902C35.4607 8.08486 35.4445 7.86514 35.3771 7.65747C35.2504 7.51656 35.0436 7.61019 34.8818 7.59443C34.8539 7.82064 34.8242 8.04685 34.7955 8.27306C33.9756 8.42696 33.1332 8.23042 32.3115 8.37875C32.3151 8.12937 32.3124 7.87905 32.3169 7.62873C33.1116 7.48504 33.9243 7.64635 34.7208 7.5453C34.8557 7.3914 34.8269 7.15035 34.8764 6.95752Z" fill="#C7DFEE"/>
<path d="M21.9695 8.75136C22.2985 8.171 22.5404 7.50999 23.0357 7.052C23.0708 7.09465 23.1418 7.17901 23.1777 7.22166C23.2425 7.29954 23.3072 7.37648 23.3737 7.45436C22.9764 8.09498 22.5305 8.71335 22.2581 9.42629C22.0333 9.88427 21.8373 10.3562 21.6306 10.8225C21.5344 10.7548 21.44 10.6881 21.3447 10.6204C21.3132 10.5981 21.2512 10.5546 21.2197 10.5323C21.467 9.93711 21.6441 9.30855 21.9695 8.75136Z" fill="#E62A21"/>
<path d="M31.6934 7.48682C31.9083 7.49331 32.1258 7.51648 32.3173 7.62866C32.3128 7.87898 32.3155 8.12929 32.3119 8.37868C32.3101 8.44821 32.3065 8.58635 32.3047 8.65495C32.0997 8.59655 31.8876 8.60582 31.6817 8.64846C31.6763 8.32491 31.6934 8.00228 31.697 7.67965C31.697 7.63144 31.6943 7.53503 31.6934 7.48682Z" fill="#E6F1F7"/>
<path d="M34.8825 7.59418C35.0443 7.60994 35.2511 7.5163 35.3778 7.65722C35.4453 7.86489 35.4614 8.08461 35.4956 8.29877C35.6404 8.30896 35.7851 8.31916 35.9316 8.32843C35.9433 8.37757 35.9658 8.47769 35.9766 8.52683C35.9802 8.82999 35.9892 9.13222 35.9946 9.43446C35.9946 9.51511 35.9928 9.67457 35.9919 9.75523C36.0026 9.93508 35.9541 10.1363 36.026 10.3041C36.2643 10.3903 36.5124 10.4478 36.7524 10.534C36.6805 10.661 36.6104 10.7889 36.5402 10.9159C35.9847 10.7361 35.4228 10.5303 34.8339 10.5423C35.0902 10.6768 35.3536 10.8001 35.5936 10.966C35.5487 11.5074 35.6305 12.0479 35.599 12.5894C35.6134 13.0575 35.5711 13.5266 35.5954 13.9948C35.6089 14.2442 35.5945 14.4955 35.5478 14.7411C34.3871 13.789 32.5927 13.8242 31.4762 14.8357C31.4267 14.0579 31.4735 13.2773 31.4429 12.4985C31.4106 12.0173 31.5175 11.5288 31.3926 11.0559C31.6533 10.8622 31.9482 10.7278 32.2331 10.5748C32.19 10.5572 32.1055 10.5219 32.0632 10.5043C32.0471 10.3801 32.0336 10.2549 32.0228 10.1298C32.2044 10.0945 32.3869 10.0658 32.5712 10.0371C32.3284 9.6208 32.2646 9.13222 32.3051 8.65477C32.3069 8.58617 32.3105 8.44803 32.3123 8.3785C33.1339 8.23016 33.9763 8.42671 34.7962 8.27281C34.825 8.0466 34.8546 7.82039 34.8825 7.59418ZM34.5759 10.0445C34.8762 10.0908 35.1792 10.1344 35.483 10.1594C35.5136 9.85072 35.4749 9.54385 35.439 9.23884C35.2664 9.19248 35.0893 9.19248 34.914 9.19341C34.7908 9.47339 34.6928 9.76357 34.5759 10.0445Z" fill="#DBEBF2"/>
<path d="M41.0226 10.676C41.9127 9.61725 42.8134 8.56685 43.7098 7.51367C44.0019 7.87617 44.2033 8.30263 44.4155 8.71796C44.7625 9.36786 45.0861 10.0372 45.3127 10.7437C45.3711 10.7733 45.4304 10.803 45.4907 10.8327C44.028 11.8868 42.5734 12.952 41.1018 13.9922C40.9984 13.7688 40.8446 13.5444 40.904 13.2848C41.0271 12.43 41.0829 11.5623 41.0029 10.7001L41.0226 10.676ZM20.5605 15.826C20.627 15.3365 20.6288 14.8294 20.8068 14.3621C22.3801 14.9944 23.9542 15.6211 25.5257 16.2571C25.5383 16.2617 25.5635 16.2719 25.576 16.2766C25.5401 16.9886 25.6291 17.695 25.6857 18.4024C23.9713 18.1687 22.2569 17.937 20.5425 17.7034C20.5291 17.7015 20.5012 17.6978 20.4868 17.6959C20.4383 17.4744 20.3807 17.2435 20.4517 17.0201C20.5677 16.6298 20.423 16.2126 20.5605 15.826ZM39.9393 23.8694C40.1443 23.2705 40.3736 22.6809 40.5543 22.0737C42.4503 22.7727 44.3391 23.493 46.2323 24.2004L46.3124 24.231C46.2278 24.5768 46.1532 24.9273 46.1353 25.2851C46.1281 25.604 45.9357 25.871 45.8674 26.1751C45.7631 26.6804 45.5446 27.1495 45.4331 27.652L45.4197 27.6427C43.5875 26.393 41.7688 25.1229 39.9393 23.8694ZM45.4628 35.5564C45.4808 35.4396 45.6201 35.5425 45.6462 35.6037C45.7828 35.8178 45.8979 36.045 46.0256 36.2656C46.2 36.0209 46.2962 35.7131 46.5128 35.5054L46.6117 35.5434C46.6162 36.0079 46.6297 36.4751 46.6027 36.9396L46.4643 36.9693C46.4526 36.5938 46.4562 36.2183 46.4625 35.8428C46.3258 36.0385 46.2323 36.2665 46.0786 36.4492C45.8233 36.4251 45.7828 36.0292 45.6084 35.8632C45.6012 36.2239 45.6057 36.5854 45.6039 36.9461C45.5626 36.9461 45.4808 36.9461 45.4394 36.9461C45.4547 36.4835 45.4062 36.0134 45.4628 35.5554M44.2051 35.5388C44.5584 35.5165 44.9162 35.51 45.2695 35.5536C45.158 35.7288 44.9558 35.6639 44.7904 35.6769C44.7921 36.0997 44.7886 36.5233 44.7939 36.9461C44.7562 36.9461 44.6789 36.9442 44.6402 36.9433C44.6052 36.5206 44.6348 36.0959 44.6258 35.6723C44.482 35.6713 44.3391 35.6713 44.1961 35.6713L44.2051 35.5388ZM32.1414 40.8297C36.4171 40.3921 40.8815 41.9431 43.9147 45.1073C43.7565 45.3038 43.6001 45.5032 43.4463 45.7043C41.0793 43.2494 37.8159 41.7651 34.4689 41.563C30.5241 41.2858 26.4795 42.7951 23.6917 45.7016C23.5326 45.505 23.3762 45.3066 23.2198 45.1082C25.5769 42.6496 28.8133 41.1477 32.1414 40.8297ZM29.9838 42.8962C30.7183 42.7376 31.4546 42.5865 32.1909 42.4335C32.2475 42.7182 32.3032 43.0037 32.3572 43.2902C31.789 43.4061 31.2245 43.5349 30.6554 43.6388C30.6859 43.84 30.721 44.0421 30.7615 44.2423C31.2874 44.144 31.8079 44.017 32.3356 43.9234C32.3851 44.2024 32.4408 44.4806 32.4992 44.7578C31.9814 44.882 31.4582 44.9812 30.9368 45.0887C30.979 45.2649 30.9655 45.4818 31.1058 45.6144C31.2298 45.6904 31.3773 45.6163 31.5094 45.6042C31.9266 45.5143 32.3437 45.4234 32.7626 45.3409C32.8202 45.6283 32.8804 45.9157 32.9227 46.2068C32.3293 46.2921 31.7522 46.4924 31.1534 46.5267C30.6671 46.5573 30.232 46.167 30.1465 45.683C29.9847 44.9052 29.8364 44.1246 29.6827 43.3458C29.6143 43.1344 29.7735 42.9119 29.9838 42.8962ZM35.2699 43.5229C35.3886 43.0297 35.8705 42.6811 36.3622 42.7562C36.9403 42.8452 37.4968 43.0454 38.0658 43.1817C37.9921 43.4663 37.9364 43.7556 37.8339 44.0309C37.4078 43.8993 36.9753 43.7955 36.5474 43.6768C36.4243 43.6564 36.2579 43.5785 36.168 43.7083C36.0826 43.8464 36.0602 44.0133 36.0134 44.1672C36.5241 44.31 37.0365 44.4472 37.5507 44.577C37.5004 44.8607 37.4204 45.1379 37.352 45.4179C36.836 45.2862 36.3227 45.1444 35.8084 45.0081C35.6862 45.4865 35.5639 45.9639 35.4506 46.4442C35.1693 46.3505 34.6451 46.37 34.6658 45.9426C34.8501 45.1323 35.0632 44.3276 35.2699 43.5229ZM26.2386 44.7327C26.4678 44.5381 26.6989 44.3443 26.9308 44.1524C27.3938 44.7327 27.8505 45.3187 28.3117 45.9009C28.5319 46.1725 28.6911 46.5081 28.7019 46.8669C28.7369 47.9794 27.5395 48.9334 26.5056 48.5867C26.1739 48.4782 25.9177 48.2195 25.7082 47.9442C25.2758 47.3815 24.82 46.8382 24.3992 46.2671C24.6303 46.0817 24.8568 45.8898 25.0807 45.6951C25.5868 46.2967 26.0399 46.9448 26.5595 47.5326C26.9839 47.9794 27.7651 47.54 27.7822 46.9643C27.8002 46.7297 27.6554 46.5341 27.5233 46.3607C27.0935 45.8193 26.6674 45.2742 26.2386 44.7327ZM40.797 45.0405C41.1413 44.7142 41.794 45.1907 41.625 45.6339C41.2735 46.8799 40.9238 48.1259 40.5713 49.3719C40.3268 49.1355 40.0733 48.9093 39.8369 48.6655C39.8908 48.4921 39.9438 48.3197 39.9969 48.1463C39.7802 47.9674 39.5555 47.7996 39.3334 47.629C39.5105 47.4964 39.6885 47.3657 39.8683 47.2378C39.9681 47.3128 40.0733 47.3833 40.1821 47.4463C40.2918 47.0551 40.4068 46.6657 40.5165 46.2754C39.8477 46.7204 39.1779 47.1636 38.5126 47.6142C38.2313 47.4556 37.9418 47.3073 37.6811 47.1144C38.7248 46.4312 39.7578 45.7312 40.797 45.0405ZM32.1037 47.2748C34.9616 46.7547 38.0847 47.8144 39.9681 50.1201C39.8189 50.3157 39.667 50.5085 39.5105 50.6977C38.3814 49.3015 36.7641 48.3549 35.0344 48.0211C32.3482 47.4769 29.3824 48.4949 27.6383 50.693C27.4612 50.5197 27.3183 50.3157 27.1655 50.1219C28.407 48.5969 30.2095 47.6067 32.1037 47.2748ZM30.9772 52.9106C31.665 52.2913 32.59 52.0086 33.4926 52.003C34.3844 51.9845 35.305 52.2218 36.0179 52.7938C36.7155 53.3436 37.1542 54.1956 37.2846 55.0837C37.4329 56.111 37.2846 57.2207 36.7101 58.0922C36.1474 58.9581 35.18 59.4958 34.184 59.5996C34.1057 59.0619 34.0239 58.5242 33.943 57.9865C34.5579 57.8641 35.0928 57.4033 35.2951 56.7887C35.5675 55.9784 35.5118 54.9975 34.994 54.3013C34.3206 53.4057 32.8337 53.3992 32.1513 54.2864C31.6173 54.9892 31.5616 55.9886 31.8457 56.81C32.0524 57.4145 32.5801 57.8669 33.1897 57.9846C33.1097 58.5251 33.026 59.0665 32.9478 59.608C32.0416 59.4921 31.1534 59.0573 30.5799 58.31C29.9236 57.4756 29.7096 56.3474 29.8229 55.297C29.9092 54.394 30.3021 53.5067 30.9772 52.9106ZM38.4956 52.7827C38.9469 52.3117 39.6049 52.1143 40.2342 52.1087C40.9121 52.0957 41.6268 52.3025 42.1131 52.8114C42.6004 53.3121 42.7811 54.0713 42.657 54.7593C42.5447 55.423 42.1824 56.009 41.7706 56.5198C41.2168 57.2133 40.5246 57.7658 39.9061 58.3944C40.8536 58.3999 41.8021 58.3953 42.7505 58.3962C42.755 58.7791 42.7568 59.162 42.7478 59.5458C41.1386 59.543 39.5294 59.5458 37.9202 59.544C37.9193 59.2195 37.9229 58.8959 37.9157 58.5724C38.6565 57.8882 39.426 57.2383 40.1506 56.5356C40.5803 56.1017 41.002 55.6326 41.2456 55.0578C41.4182 54.6443 41.456 54.1325 41.2114 53.7404C40.8698 53.2045 40.0859 53.1035 39.5771 53.4326C39.2049 53.6783 39.0736 54.1566 39.0862 54.5905C38.6897 54.5442 38.2591 54.5933 37.8851 54.4867C37.8636 53.8683 38.0604 53.2221 38.4956 52.7827ZM44.9441 52.2144C45.7676 51.9808 46.7466 52.1143 47.366 52.7623C48.0276 53.4539 48.2362 54.4589 48.2911 55.3962C48.3369 56.5124 48.2605 57.725 47.6258 58.6734C46.7879 59.9454 44.7166 59.9723 43.832 58.7439C43.2737 57.9753 43.1308 56.9843 43.1047 56.0498C43.0921 55.1208 43.174 54.1492 43.6181 53.3223C43.8985 52.7938 44.3768 52.3748 44.9441 52.2144ZM45.452 53.2898C45.078 53.3723 44.8137 53.7005 44.6807 54.0528C44.4191 54.7435 44.4083 55.5028 44.429 56.2343C44.4667 56.873 44.5198 57.5656 44.9081 58.094C45.2875 58.6113 46.1406 58.6095 46.5146 58.0847C46.894 57.5572 46.9524 56.8702 46.9875 56.2361C46.9974 55.4268 47.0082 54.5646 46.6342 53.8294C46.422 53.3918 45.9078 53.1628 45.452 53.2898ZM49.3087 52.6974C49.9164 52.1486 50.7867 52.0243 51.5625 52.1578C52.2008 52.2635 52.8166 52.6325 53.1421 53.2212C53.5376 53.9249 53.4855 54.8223 53.1349 55.5334C52.6422 56.5522 51.7828 57.2995 50.9809 58.0523C50.8703 58.1626 50.7291 58.2516 50.6662 58.4018C51.6021 58.3888 52.5379 58.4018 53.4747 58.3944C53.4837 58.7754 53.4756 59.1565 53.4828 59.5375C51.87 59.5468 50.2572 59.5532 48.6453 59.5347C48.6507 59.2084 48.6489 58.8811 48.6498 58.5557C49.4094 57.8771 50.1789 57.2096 50.9116 56.4994C51.353 56.0479 51.7936 55.5575 52.0129 54.9465C52.1729 54.4978 52.154 53.9314 51.8106 53.5772C51.3405 53.1118 50.4576 53.1211 50.0549 53.6746C49.8589 53.9341 49.8158 54.2725 49.8077 54.5924C49.4067 54.5692 49.0067 54.5432 48.6057 54.5219C48.5859 53.8507 48.8053 53.1452 49.3087 52.6974ZM8.92028 52.2097C10.6311 52.2097 12.3419 52.2079 14.0536 52.2116C14.0518 52.7382 14.0545 53.2648 14.0518 53.7923C12.9343 53.7923 11.8169 53.7942 10.6994 53.7904C10.6967 54.2438 10.6913 54.6981 10.703 55.1514C11.7216 55.1468 12.741 55.1496 13.7605 55.1496C13.7551 55.6437 13.7713 56.1388 13.7515 56.6338C12.7311 56.6311 11.7108 56.6199 10.6913 56.6385C10.7003 57.0816 10.6985 57.5248 10.6931 57.9679C11.8133 57.9837 12.9334 57.9679 14.0527 57.9744C14.0527 58.4982 14.0527 59.022 14.0527 59.5449C12.3392 59.5347 10.6257 59.5625 8.91309 59.531C8.92927 57.0909 8.91578 54.6508 8.92028 52.2097ZM15.4308 52.2116C16.0143 52.2042 16.5986 52.2181 17.1821 52.2023C17.2135 53.669 17.1884 55.1366 17.1947 56.6042C17.1668 57.0686 17.3043 57.5989 17.7278 57.8372C18.2402 58.1153 18.9684 58.0884 19.3828 57.637C19.6049 57.3839 19.6732 57.0297 19.6651 56.6978C19.6615 55.2024 19.6651 53.707 19.6633 52.2116C20.2504 52.2088 20.8383 52.207 21.4263 52.2116C21.4236 53.7079 21.4245 55.2043 21.4254 56.7006C21.4388 57.268 21.3444 57.853 21.0595 58.3462C20.7223 58.9525 20.111 59.3558 19.4619 59.5199C18.8084 59.684 18.1152 59.6886 17.459 59.5329C16.8117 59.378 16.1932 58.9979 15.8354 58.4083C15.5549 57.9577 15.4317 57.4182 15.4317 56.8869C15.4317 55.3276 15.4317 53.7691 15.4308 52.2107M22.8008 52.2144C23.9363 52.2014 25.0708 52.2125 26.2062 52.2079C26.9164 52.2051 27.6689 52.3701 28.2128 52.8698C29.5208 54.0649 28.9491 56.7358 27.2041 57.1345C27.6087 57.9466 28.0833 58.7216 28.4717 59.5421C27.846 59.5449 27.2194 59.5421 26.5937 59.544C26.1451 58.3425 25.6992 57.14 25.2515 55.9385C25.63 55.9181 26.0228 55.9904 26.3932 55.8792C26.9461 55.666 27.1843 54.9391 27.0054 54.3875C26.8913 54.05 26.5416 53.8655 26.2116 53.8507C25.6641 53.8303 25.1166 53.8479 24.5692 53.8433C24.5692 55.7429 24.5692 57.6434 24.5701 59.544C23.9812 59.5431 23.3924 59.5421 22.8035 59.544C22.8017 57.1011 22.8071 54.6573 22.8008 52.2144ZM56.5178 52.2125C57.0779 52.2042 57.6397 52.2097 58.2007 52.2097C58.2007 53.6922 58.1998 55.1746 58.2007 56.6579C58.5235 56.6589 58.8453 56.6579 59.1689 56.6589C59.1698 57.0371 59.1689 57.4154 59.1698 57.7936C58.8462 57.7955 58.5235 57.7946 58.2007 57.7946C58.1989 58.3777 58.2025 58.9618 58.1989 59.5449C57.7854 59.5421 57.3718 59.5421 56.9592 59.5458C56.9502 57.5201 56.9637 55.4944 56.952 53.4687C56.329 54.4283 55.7285 55.4027 55.1091 56.365C55.047 56.4558 55.003 56.5569 54.9616 56.6589C55.3958 56.6589 55.8301 56.6579 56.2652 56.6579C56.2085 57.0353 56.1501 57.4126 56.098 57.7908C55.2412 57.8001 54.3845 57.7927 53.5286 57.7946C53.5448 57.4627 53.4882 57.1206 53.5556 56.7961C54.5301 55.2599 55.5361 53.7441 56.5178 52.2125ZM20.3394 62.5116C20.9786 61.6689 22.2983 61.5836 23.0993 62.2233C23.3699 62.4384 23.5353 62.7601 23.6216 63.0966C23.4625 63.0985 23.3043 63.0994 23.1469 63.1003C22.8071 62.1074 21.3543 61.9572 20.7475 62.7573C20.3232 63.3247 20.298 64.159 20.6109 64.7867C21.0568 65.6711 22.4089 65.7509 23.0058 64.9981C23.1829 64.7802 23.2422 64.4956 23.2701 64.2212C22.6947 64.2184 22.1203 64.2212 21.5458 64.2193C21.5449 64.0886 21.5449 63.9579 21.5458 63.8281C22.2677 63.8281 22.9905 63.8271 23.7133 63.829C23.787 64.4112 23.6342 65.05 23.2 65.4533C22.6741 65.9456 21.8892 66.0281 21.2249 65.8445C20.6666 65.686 20.2063 65.2252 20.0346 64.655C19.8224 63.9467 19.8899 63.1105 20.3394 62.5116ZM24.437 65.8751C24.4487 64.5354 24.4271 63.1958 24.4487 61.8571C25.3504 61.8636 26.253 61.8682 27.1547 61.8552C27.1655 62.0036 27.1673 62.1528 27.1601 62.3039C26.4067 62.2937 25.6534 62.3012 24.9009 62.2993C24.8982 62.7471 24.9081 63.1958 24.8937 63.6445C25.5976 63.6834 26.3042 63.651 27.0099 63.6621C27.0072 63.7993 27.0054 63.9375 27.0045 64.0775C26.3033 64.0728 25.6021 64.0756 24.9018 64.0756C24.9 64.529 24.9009 64.9832 24.9009 65.4375C25.656 65.4375 26.4112 65.4357 27.1664 65.4375C27.1664 65.5831 27.1673 65.7286 27.1682 65.876C26.2584 65.8862 25.3477 65.8899 24.437 65.8742M27.9053 61.8617C28.4771 61.8626 29.0489 61.8589 29.6206 61.8617C29.9434 61.8608 30.2814 61.934 30.5376 62.1491C31.0869 62.5876 31.0662 63.588 30.4882 63.9931C30.2535 64.1655 29.9623 64.211 29.6827 64.236C30.1385 64.7848 30.6023 65.3272 31.0527 65.8807C30.8307 65.8436 30.5205 65.9873 30.3686 65.7564C29.8436 65.1177 29.3114 64.4854 28.7891 63.8448C29.1927 63.8234 29.6143 63.9069 30.0054 63.7762C30.4828 63.6074 30.5961 62.8973 30.2589 62.5385C30.0926 62.3651 29.849 62.303 29.6197 62.3012C29.2035 62.291 28.7882 62.3049 28.3719 62.2947C28.3548 63.4906 28.38 64.6866 28.3593 65.8834C28.2074 65.8825 28.0555 65.8816 27.9053 65.8825C27.9053 64.5419 27.9053 63.2014 27.9053 61.8617ZM31.5912 61.8608C31.7674 61.8599 31.9436 61.8608 32.1217 61.8645C32.6089 62.6655 33.098 63.4656 33.5915 64.2638C34.0905 63.4749 34.5651 62.6692 35.0443 61.8673C35.2214 61.8617 35.3994 61.8599 35.5792 61.8599C35.5783 63.2014 35.5783 64.5429 35.5783 65.8834C35.4246 65.8816 35.2726 65.8807 35.1207 65.8797C35.1099 64.7923 35.1387 63.7038 35.1054 62.6173C34.6011 63.358 34.1858 64.1618 33.6823 64.9035C33.6338 64.8998 33.5358 64.8933 33.4872 64.8905C32.9955 64.1331 32.546 63.3469 32.0551 62.5895C32.0488 63.6853 32.0551 64.7811 32.0524 65.877C31.8978 65.8797 31.7441 65.8816 31.5912 65.8844C31.5912 64.5429 31.5912 63.2023 31.5912 61.8608ZM37.6406 61.8645C37.8222 61.8608 38.0047 61.8599 38.1872 61.8599C38.7086 63.1995 39.2255 64.541 39.7452 65.8825C39.5726 65.8825 39.4017 65.8825 39.2309 65.8844C39.1015 65.5525 38.9819 65.2169 38.8561 64.885C38.4407 64.8831 38.0263 64.8877 37.6118 64.8813C37.5894 64.7496 37.5669 64.6189 37.5462 64.4891C37.9355 64.4872 38.3238 64.4891 38.7131 64.4891C38.456 63.7762 38.1782 63.0716 37.9337 62.354C37.4599 63.5138 37.0581 64.7051 36.6149 65.8779C36.4467 65.8816 36.2786 65.8825 36.1114 65.8853C36.6086 64.5401 37.1363 63.2069 37.6406 61.8654M40.3115 61.8626C40.4796 61.8775 40.6711 61.8191 40.8276 61.8951C41.5602 62.9566 42.2534 64.0478 42.9906 65.1075C42.9941 64.0256 42.9897 62.9436 42.9923 61.8626C43.1443 61.8617 43.2971 61.8617 43.4508 61.8626C43.449 63.2032 43.4508 64.5429 43.4499 65.8834C43.2809 65.8834 43.1137 65.8807 42.9465 65.8751C42.2318 64.783 41.5027 63.7001 40.7817 62.6117C40.7763 63.702 40.7817 64.7932 40.779 65.8834C40.6226 65.8834 40.4662 65.8834 40.3115 65.8834C40.3097 64.5429 40.3115 63.2032 40.3115 61.8626ZM43.9066 61.8626C44.0828 61.8599 44.2617 61.8626 44.4397 61.8663C44.8083 62.456 45.1949 63.0336 45.5644 63.6223C45.9483 63.0391 46.3195 62.4486 46.6989 61.8626C46.8706 61.8617 47.0432 61.8608 47.2176 61.8617C46.752 62.5802 46.2413 63.2718 45.8026 64.007C45.7873 64.6319 45.8044 65.2577 45.7954 65.8834C45.6426 65.8834 45.4898 65.8834 45.3378 65.8834C45.3369 65.2938 45.3405 64.7033 45.3378 64.1127C45.3567 63.9421 45.2183 63.8262 45.141 63.6946C44.7301 63.0836 44.3004 62.4856 43.9066 61.8626Z" fill="white"/>
<path d="M31.1398 7.94274C31.3367 7.88248 31.5353 7.81387 31.6981 7.67944C31.6945 8.00207 31.6774 8.3247 31.6828 8.64826V8.75951C31.6477 8.84109 31.6109 8.92267 31.574 9.00333C31.4356 9.01353 31.298 9.02466 31.1605 9.03578C31.1614 8.82718 31.1533 8.61859 31.1479 8.41092C31.1425 8.25424 31.1389 8.09849 31.1398 7.94274Z" fill="#CFE3F0"/>
<path d="M27.8764 8.15674C27.9528 8.306 28.0283 8.45619 28.1047 8.60638C27.1805 9.19601 26.8686 10.3706 26.7598 11.4183C26.5423 11.1883 26.3391 10.9445 26.135 10.7016L26.1152 10.6775C26.2555 10.022 26.4065 9.31468 26.9037 8.83722C27.1671 8.52201 27.5635 8.40242 27.8764 8.15674ZM39.0303 8.60731C39.104 8.45804 39.1795 8.30785 39.2568 8.15859C39.5679 8.38202 39.9409 8.51181 40.2035 8.80478C40.7105 9.29057 40.875 10.0081 41.0224 10.6766L41.0027 10.7007C40.7941 10.9445 40.5846 11.1874 40.377 11.4312C40.2628 10.3808 39.9589 9.19972 39.0303 8.60731ZM28.0571 11.905C28.0391 11.1679 28.1587 10.3428 28.7142 9.82087C28.9156 10.2158 29.1197 10.6098 29.3112 11.0113C29.0118 11.1744 28.7241 11.3608 28.4526 11.5703C28.316 11.676 28.1838 11.7872 28.0571 11.905ZM37.8148 11.0085C38.0153 10.6117 38.2158 10.214 38.4225 9.81994C38.9484 10.3437 39.1291 11.155 39.0446 11.8846C38.7525 11.6027 38.4216 11.3682 38.0791 11.1577C37.991 11.1058 37.9029 11.0567 37.8148 11.0085ZM38.8469 25.4053C39.1013 24.812 39.326 24.2056 39.5463 23.5984C39.6721 23.6855 39.7989 23.7736 39.9266 23.8617C39.7126 24.519 39.4411 25.1541 39.1741 25.79C39.0617 25.664 38.952 25.5369 38.8469 25.4053ZM29.2312 27.5803C29.7301 28.6705 30.3675 29.7274 30.5527 30.9373C30.7729 32.4994 30.0016 33.941 29.3543 35.2918C29.17 35.2445 28.9875 35.1973 28.805 35.1481C28.8194 35.1175 28.8491 35.0573 28.8644 35.0267C29.3579 34.0152 29.874 32.9806 30.0259 31.8449C30.1814 30.495 29.5872 29.2175 28.9687 28.0707C28.9758 28.0586 28.9893 28.0327 28.9956 28.0206C29.0738 27.8732 29.1521 27.7267 29.2312 27.5803Z" fill="#CCA703"/>
<path d="M29.5332 8.13464C30.0843 8.09199 30.6372 8.19212 31.1469 8.41091C31.1523 8.61858 31.1604 8.82717 31.1595 9.03577C31.1568 9.17205 31.1532 9.30926 31.1505 9.44647C30.9734 9.36952 30.7981 9.29072 30.6201 9.21841C30.5014 9.17483 30.3819 9.13404 30.2605 9.10623C30.0735 9.07285 29.8829 9.05802 29.6941 9.05524C29.6339 8.74559 29.8389 8.34509 29.5332 8.13464Z" fill="#AFD1E8"/>
<path d="M28.7502 8.3035C28.8644 8.26641 28.9813 8.23582 29.0999 8.20986C29.2429 8.18019 29.3876 8.15516 29.5332 8.13477C29.8389 8.34522 29.6339 8.74572 29.6942 9.05537C29.3157 9.13603 28.9525 9.28621 28.627 9.50037C28.6315 9.11841 28.6243 8.73738 28.6055 8.35634C28.6414 8.34336 28.7142 8.31648 28.7502 8.3035ZM37.2682 17.8192C37.6854 17.8757 38.1016 17.936 38.5223 17.9573C38.5556 17.9749 38.6212 18.0102 38.6536 18.0278C38.5106 18.0259 38.3686 18.025 38.2266 18.025C38.1367 19.8671 37.804 21.6889 37.3339 23.4661C37.0767 23.1629 37.279 22.7559 37.2422 22.4018C37.1702 21.4747 37.3177 20.5393 37.1729 19.6159C37.1325 19.3656 37.2655 19.1282 37.2484 18.8779C37.2296 18.5247 37.2089 18.1696 37.2682 17.8192Z" fill="#C2DBED"/>
<path d="M37.1486 8.27279C37.3931 8.19399 37.6538 8.19584 37.9082 8.18286C37.9415 8.18935 38.008 8.2014 38.0413 8.20697C38.1546 8.23385 38.2687 8.26352 38.3811 8.29967C38.4198 8.31451 38.4962 8.34232 38.5348 8.35715C38.5241 8.74282 38.5241 9.1285 38.5277 9.51417C38.0988 9.23326 37.6071 9.02837 37.0911 9.0432C37.0596 8.78733 37.0012 8.50549 37.1486 8.27279Z" fill="#BFDAEC"/>
<path d="M46.5672 8.16113C47.2729 9.5972 47.7287 11.1529 48.0739 12.7196C48.6376 15.3767 48.7895 18.1125 48.6772 20.8261C48.4992 24.5707 47.7368 28.3792 45.8552 31.6305C44.4393 34.1012 42.2862 36.1445 39.6989 37.2366C39.155 37.4702 38.5949 37.6575 38.0312 37.8318C37.9314 37.2274 37.5808 36.7276 37.2832 36.2131C37.5826 36.1566 37.882 36.0982 38.1858 36.0731C38.3171 36.3132 38.4528 36.5524 38.5679 36.8027C38.6246 36.9298 38.6776 37.0595 38.7315 37.1893C38.727 37.2737 38.7234 37.3581 38.7207 37.4434C41.3081 36.6164 43.5825 34.829 45.1243 32.54C47.1902 29.5427 48.1423 25.8807 48.4785 22.2594C48.5765 21.6003 48.5279 20.9309 48.6205 20.2717C48.6259 19.3372 48.6727 18.3981 48.5594 17.4691C48.5405 16.4197 48.412 15.3758 48.2627 14.3384C47.9319 12.3414 47.45 10.3519 46.6122 8.5125C46.5789 8.39847 46.5636 8.28165 46.5672 8.16113ZM19.0264 25.3939C19.0839 25.4727 19.1307 25.559 19.1648 25.6507C19.8615 28.9271 21.2505 32.1589 23.6427 34.4952C24.7018 35.5994 26.0017 36.4402 27.3781 37.0586C27.7125 37.1866 28.0343 37.384 28.4002 37.3998C28.4083 37.3321 28.4182 37.2644 28.4308 37.1977C28.4497 37.1337 28.4865 37.0058 28.5054 36.9427C28.66 36.5589 28.883 36.2113 29.07 35.8441C29.0853 35.8154 29.1149 35.7579 29.1302 35.7292C29.4575 35.7125 29.7847 35.7004 30.1119 35.6856C29.8009 36.4152 29.2462 37.0271 29.0961 37.8281C27.4167 37.3479 25.8156 36.5487 24.4536 35.4214C22.1423 33.5264 20.5682 30.8165 19.6611 27.9462C19.4057 27.1091 19.1459 26.2645 19.0264 25.3939Z" fill="#9BC3DF"/>
<path d="M28.1052 8.60676C28.2661 8.5122 28.4333 8.42876 28.6059 8.35645C28.6248 8.73748 28.632 9.11852 28.6275 9.50048C28.098 9.95753 27.8723 10.6751 27.8112 11.3639C27.733 11.5141 27.653 11.7199 27.4543 11.7097C27.1756 11.7301 26.8771 11.7403 26.7207 12.0185C26.7297 11.8182 26.7414 11.6189 26.7603 11.4186C26.869 10.371 27.181 9.19639 28.1052 8.60676Z" fill="#D3E6F0"/>
<path d="M38.5347 8.35718C38.7046 8.42949 38.871 8.512 39.031 8.60749C39.9596 9.19991 40.2635 10.381 40.3777 11.4314C40.3831 11.4889 40.3948 11.6029 40.4011 11.6595C40.1071 11.9793 39.6756 11.7068 39.3402 11.6243C39.3088 10.8566 39.1101 10.038 38.5275 9.51419C38.5239 9.12852 38.5239 8.74285 38.5347 8.35718Z" fill="#D3E5F0"/>
<path d="M31.5733 9.00359C31.6102 8.92293 31.647 8.84135 31.683 8.75977C31.7171 9.23907 31.674 9.71931 31.6992 10.1995C31.5167 10.2385 31.3324 10.2709 31.1508 10.308V9.77215C31.149 9.66368 31.149 9.55521 31.1508 9.44674C31.1535 9.30953 31.1571 9.17232 31.1598 9.03604C31.2973 9.02491 31.4348 9.01379 31.5733 9.00359Z" fill="#E5F0F6"/>
<path d="M28.6269 9.50042C28.9523 9.28627 29.3155 9.13608 29.694 9.05542C29.8828 9.0582 30.0733 9.07303 30.2603 9.10641C30.0041 9.10734 29.7938 9.25474 29.596 9.40308C29.2768 9.47539 28.9613 9.59313 28.7141 9.8212C28.1585 10.3432 28.0389 11.1683 28.0569 11.9053C27.9769 11.9841 27.9014 12.0675 27.8258 12.1491C27.8079 11.8877 27.7953 11.6253 27.8106 11.3639C27.8717 10.6751 28.0973 9.95748 28.6269 9.50042Z" fill="#93BCD9"/>
<path d="M36.8916 9.10003C36.941 9.08613 37.0408 9.05739 37.0903 9.04348C37.6063 9.02865 38.0981 9.23354 38.5269 9.51444C39.1094 10.0383 39.3081 10.8569 39.3396 11.6245C39.3378 11.7979 39.3306 11.9712 39.3252 12.1446C39.2308 12.0575 39.1373 11.9712 39.0447 11.885C39.1292 11.1554 38.9485 10.3442 38.4226 9.82038C38.1583 9.58119 37.8221 9.45047 37.4769 9.40041C37.3321 9.21221 37.1289 9.09633 36.8916 9.10003Z" fill="#94BCD8"/>
<path d="M29.5967 9.40311C29.7945 9.25478 30.0048 9.10737 30.261 9.10645C30.3824 9.13426 30.502 9.17505 30.6206 9.21862C30.6152 9.2965 30.6054 9.45132 30.6 9.5292C30.2772 9.41702 29.9338 9.40682 29.5967 9.40311Z" fill="#72A1BD"/>
<path d="M36.5342 9.21583C36.6519 9.17318 36.7697 9.13517 36.8911 9.09994C37.1284 9.09623 37.3316 9.21212 37.4763 9.40032C37.2291 9.40032 36.9819 9.41886 36.7401 9.468C36.6708 9.38363 36.6025 9.29926 36.5342 9.21583Z" fill="#73A1BD"/>
<path d="M30.6203 9.21851C30.7983 9.29082 30.9736 9.36962 31.1507 9.44657C31.1489 9.55504 31.1489 9.66351 31.1507 9.77198C30.9691 9.68483 30.7875 9.59861 30.5996 9.52908C30.605 9.45121 30.6149 9.29638 30.6203 9.21851Z" fill="#5F8FA8"/>
<path d="M34.5762 10.0444C34.693 9.76352 34.791 9.47334 34.9142 9.19336C35.0895 9.19336 35.2666 9.19336 35.4392 9.23879C35.4752 9.5438 35.5138 9.85067 35.4833 10.1594C35.1794 10.1344 34.8764 10.0908 34.5762 10.0444Z" fill="#FBFDFE"/>
<path d="M35.9949 9.43461C36.1738 9.35859 36.3527 9.28257 36.5352 9.21582C36.6035 9.29926 36.6718 9.38362 36.7411 9.46799C36.483 9.53845 36.2358 9.64506 35.9922 9.75539C35.9922 9.67473 35.994 9.51527 35.9949 9.43461Z" fill="#6491AA"/>
<path d="M20.2659 9.85254C20.3567 9.91373 20.4484 9.97584 20.5392 10.0389C20.559 10.0528 20.5986 10.0806 20.6184 10.0945C20.497 10.368 20.372 10.6424 20.2974 10.9345C20.0754 11.9181 19.7778 12.8841 19.5908 13.8752L19.5539 13.8604C19.4524 13.8177 19.3517 13.7741 19.251 13.7324C19.4595 12.4095 19.7967 11.1032 20.2659 9.85254Z" fill="#B7CCD9"/>
<path d="M20.2974 10.9349C20.3721 10.6429 20.497 10.3685 20.6184 10.095C20.818 10.2405 21.0175 10.3889 21.2189 10.5326C21.2504 10.5548 21.3124 10.5984 21.3439 10.6206C21.0085 11.1361 20.9429 11.7693 20.7622 12.3469C20.5312 12.9319 20.5312 13.5781 20.3541 14.1807C20.1006 14.0759 19.8443 13.9776 19.5908 13.8757C19.7778 12.8846 20.0754 11.9186 20.2974 10.9349ZM43.7182 31.7426C43.8251 31.5896 43.9546 31.4552 44.0859 31.3235C44.1299 31.3745 44.2198 31.4747 44.2648 31.5257C44.3942 31.6721 44.5237 31.8195 44.6549 31.966C44.2351 32.6567 43.6903 33.2565 43.1482 33.8462C42.7041 34.2253 42.2995 34.6666 41.7943 34.9615C41.7251 34.8326 41.6586 34.7056 41.5911 34.5786C41.5129 34.4312 41.4356 34.2838 41.3583 34.1363C42.2618 33.4781 43.0961 32.6919 43.7182 31.7426Z" fill="#EBF4F9"/>
<path d="M31.6985 10.1994C31.8055 10.1753 31.9134 10.1521 32.0222 10.1299C32.033 10.255 32.0464 10.3802 32.0626 10.5044C31.3524 10.6277 30.6611 10.8521 30.0183 11.1868C30.0354 11.0208 30.0237 10.8521 29.9248 10.714C30.3231 10.5489 30.7285 10.3978 31.1501 10.3079C31.3317 10.2708 31.516 10.2384 31.6985 10.1994Z" fill="#D0E4F0"/>
<path d="M36.7522 10.5342C37.1172 10.6649 37.4714 10.8262 37.8148 11.0089C37.9029 11.0571 37.991 11.1062 38.0791 11.1581C38.0908 11.3908 38.0998 11.6235 38.0926 11.8562C37.6179 11.4752 37.1082 11.1284 36.54 10.9161C36.6102 10.7891 36.6803 10.6612 36.7522 10.5342ZM39.3395 11.6244C39.6749 11.707 40.1064 11.9795 40.4003 11.6597C40.4183 12.0565 40.4093 12.4551 40.4093 12.8528C40.2394 12.8426 40.0713 12.8334 39.9032 12.8232C39.8232 12.7203 39.7432 12.6164 39.665 12.5145C39.5607 12.3819 39.4465 12.2586 39.3251 12.1445C39.3305 11.9712 39.3377 11.7978 39.3395 11.6244Z" fill="#C4DCED"/>
<path d="M21.3444 10.6204C21.4396 10.688 21.534 10.7548 21.6302 10.8225C23.0929 11.8794 24.5547 12.9362 26.0174 13.9931L26.0389 14.008C25.7108 14.7144 25.6604 15.5006 25.5256 16.258C23.9541 15.622 22.38 14.9953 20.8068 14.363C20.6548 14.3028 20.5047 14.2416 20.3546 14.1804C20.5317 13.5778 20.5317 12.9316 20.7627 12.3466C20.9434 11.769 21.009 11.1358 21.3444 10.6204ZM41.6024 16.2237C43.3303 15.533 45.0573 14.8377 46.7851 14.1461C47.0189 15.2938 47.0297 16.4694 47.1636 17.6301C46.9802 17.6561 46.7968 17.6765 46.6143 17.7015C44.9997 17.9268 43.3833 18.14 41.7678 18.3625C41.6869 18.3662 41.526 18.3736 41.4451 18.3773C41.5089 17.6681 41.6042 16.958 41.5521 16.2441L41.6024 16.2237ZM20.7258 20.9204C22.4339 20.7331 24.142 20.5365 25.8501 20.3446C25.9131 20.3372 26.0398 20.3233 26.1028 20.3159C26.2133 20.9231 26.4165 21.5072 26.5801 22.1006C24.7093 22.8024 22.8376 23.5032 20.9668 24.206C20.8157 24.2616 20.6647 24.3172 20.5146 24.3719C20.4786 24.3849 20.4085 24.4109 20.3734 24.4238C20.1981 23.545 20.0453 22.6568 20.0291 21.7575C20.0273 21.5081 20.0093 21.2523 19.8952 21.0261L19.8799 21.0103C19.9347 21.0066 20.0444 20.9992 20.0992 20.9955C20.3078 20.9741 20.5164 20.9445 20.7258 20.9204ZM39.1724 25.7959C40.7043 27.5138 42.2362 29.2327 43.7618 30.958C43.8679 31.0813 43.9767 31.2018 44.0863 31.3233C43.9551 31.4549 43.8256 31.5893 43.7186 31.7423C43.0965 32.6917 42.2623 33.4778 41.3588 34.1361C41.259 33.9488 41.1592 33.7615 41.0585 33.5752C40.0876 31.7377 39.0951 29.9122 38.1386 28.0673C38.5098 27.3229 38.8515 26.5645 39.1724 25.7959Z" fill="#DAE7EF"/>
<path d="M29.3117 11.0115C29.5121 10.9039 29.7171 10.8047 29.9257 10.7139C30.0246 10.852 30.0363 11.0207 30.0192 11.1867C29.5014 11.45 29.0582 11.8403 28.6392 12.2445C28.6069 12.0127 28.5988 11.7643 28.4531 11.5705C28.7246 11.361 29.0123 11.1746 29.3117 11.0115Z" fill="#C2DCED"/>
<path d="M40.3778 11.4315C40.5855 11.1877 40.7949 10.9448 41.0035 10.7009C41.0835 11.5631 41.0278 12.4309 40.9046 13.2857C40.8453 13.5452 40.999 13.7696 41.1024 13.993L41.1141 14.019C40.9585 14.1154 40.8039 14.2118 40.6493 14.3082C40.5657 14.0681 40.4452 13.8428 40.3751 13.5981C40.3724 13.3487 40.4066 13.1012 40.4102 12.8527C40.4102 12.455 40.4191 12.0563 40.4012 11.6595C40.3949 11.603 40.3832 11.489 40.3778 11.4315ZM25.5767 16.2774C25.7511 16.346 25.9264 16.4146 26.1026 16.4823C26.0945 17.0135 26.1224 17.5447 26.1799 18.0722C26.1934 18.2076 26.2087 18.342 26.2275 18.4765C26.063 18.4542 25.8994 18.432 25.7358 18.4106L25.6863 18.4032C25.6297 17.6958 25.5407 16.9894 25.5767 16.2774ZM39.7161 23.111C39.8591 22.7142 39.9876 22.3128 40.109 21.9086C40.2582 21.9577 40.4093 22.0078 40.5603 22.0569L40.5549 22.0745C40.3742 22.6818 40.145 23.2714 39.94 23.8703L39.9274 23.8619C39.7997 23.7739 39.673 23.6858 39.5471 23.5986C39.6038 23.4364 39.6595 23.2732 39.7161 23.111Z" fill="#084584"/>
<path d="M35.5937 10.9666C36.3579 11.4644 36.9988 12.1671 37.4007 13.0052C38.0884 14.3829 38.244 15.9636 38.2538 17.4914C37.9769 17.4469 37.6983 17.4163 37.4214 17.3765C37.2209 17.3459 37.0204 17.3116 36.8217 17.2801C36.7966 17.1948 36.7741 17.1095 36.7534 17.0233C36.6761 16.1277 36.2167 15.3091 35.5479 14.7417C35.5946 14.496 35.609 14.2448 35.5955 13.9954C35.5712 13.5272 35.6135 13.0581 35.5991 12.5899C35.6306 12.0485 35.5488 11.508 35.5937 10.9666Z" fill="#C9DFEE"/>
<path d="M29.2646 14.2379C29.6026 12.9734 30.3191 11.7886 31.3925 11.0562C31.5175 11.529 31.4105 12.0175 31.4428 12.4987C31.4734 13.2775 31.4267 14.0581 31.4761 14.8359C30.9178 15.3504 30.5151 16.0495 30.4045 16.818C30.3766 16.9719 30.3497 17.1249 30.3236 17.2788C30.1824 17.3038 30.0431 17.3316 29.9029 17.3548C29.5684 17.4012 29.2313 17.4308 28.8987 17.4874C28.8681 16.3944 28.9724 15.2911 29.2646 14.2379Z" fill="#CAE0EE"/>
<path d="M38.0788 11.1582C38.4213 11.3687 38.7522 11.6032 39.0444 11.885C39.137 11.9713 39.2304 12.0575 39.3248 12.1446C39.4462 12.2587 39.5604 12.382 39.6647 12.5145C39.5595 13.0467 39.7483 13.5992 39.608 14.1332C39.2646 13.2766 38.7872 12.4589 38.0923 11.8563C38.0995 11.6236 38.0905 11.3909 38.0788 11.1582ZM37.8739 26.2856C38.5679 24.5 39.0875 22.6477 39.4849 20.7694C39.6961 21.0781 39.6053 21.4675 39.6197 21.8188C39.6287 22.249 39.5028 22.7116 39.715 23.1112C39.6584 23.2735 39.6026 23.4366 39.546 23.5989C39.3257 24.2061 39.101 24.8124 38.8466 25.4058C38.5445 26.1567 38.2254 26.9012 37.8766 27.6299C37.4765 28.4967 37.0054 29.3366 36.7294 30.2591C36.6818 30.2461 36.5856 30.222 36.5379 30.21C36.4462 30.2619 36.3545 30.3138 36.2646 30.3666C36.7079 28.9686 37.365 27.6577 37.8739 26.2856Z" fill="#B5D5EA"/>
<path d="M27.454 11.7098C27.6526 11.72 27.7326 11.5142 27.8109 11.364C27.7956 11.6255 27.8082 11.8878 27.8261 12.1493C27.6796 12.2939 27.5412 12.4663 27.3434 12.534C27.1366 12.5822 26.9235 12.5748 26.7141 12.5859C26.7114 12.3968 26.7132 12.2077 26.7204 12.0185C26.8768 11.7404 27.1753 11.7302 27.454 11.7098Z" fill="#C5DDED"/>
<path d="M28.057 11.9043C28.1837 11.7865 28.3159 11.6753 28.4525 11.5696C28.5982 11.7633 28.6063 12.0118 28.6386 12.2436C28.0417 12.9102 27.6488 13.738 27.3836 14.5965C27.1894 14.0496 27.2856 13.4599 27.2694 12.8916C27.0896 12.988 26.9143 13.0909 26.7435 13.2022C26.7282 12.9964 26.7175 12.7906 26.7139 12.5847C26.9233 12.5736 27.1364 12.581 27.3432 12.5328C27.5409 12.4652 27.6794 12.2927 27.8259 12.1481C27.9014 12.0665 27.977 11.9831 28.057 11.9043Z" fill="#B4D4EA"/>
<path d="M19.2517 13.7324C19.3524 13.7741 19.4531 13.8177 19.5547 13.8604C19.4441 14.818 19.2724 15.7702 19.241 16.7371C19.2365 16.9958 19.1789 17.2489 19.1475 17.5048C19.071 17.4973 18.9182 17.4825 18.8418 17.4751C18.9128 16.2207 19.0414 14.9701 19.2517 13.7324ZM47.5316 24.6879C47.6376 24.7268 47.7446 24.7676 47.8525 24.8075C47.6152 26.1035 47.2816 27.3802 46.8357 28.616C46.7818 28.5798 46.6739 28.5066 46.6209 28.4704C46.5903 28.45 46.5292 28.4083 46.4986 28.387C46.9661 27.1947 47.287 25.9469 47.5316 24.6879Z" fill="#0D4B8A"/>
<path d="M47.5957 13.8221C47.6856 13.7971 47.7764 13.7748 47.869 13.7554C48.136 14.9736 48.2277 16.2261 48.2915 17.4712C48.2214 17.4786 48.0794 17.4925 48.0083 17.4999C47.8996 16.85 47.9472 16.1881 47.8357 15.5391C47.8187 14.9606 47.771 14.3765 47.5957 13.8221Z" fill="#ADC6D5"/>
<path d="M19.5546 13.8601L19.5914 13.8749C19.8449 13.9769 20.1011 14.0752 20.3547 14.18C20.5048 14.2411 20.6549 14.3023 20.8069 14.3626C20.6289 14.8298 20.6271 15.337 20.5605 15.8265C20.423 16.2131 20.5677 16.6303 20.4518 17.0206C20.3807 17.244 20.4383 17.4748 20.4868 17.6964C20.352 17.6779 20.2171 17.6593 20.0832 17.6417C19.9384 17.6213 19.7955 17.6028 19.6507 17.5842C19.4817 17.5629 19.3136 17.5434 19.1455 17.5249L19.1473 17.5045C19.1788 17.2486 19.2363 16.9955 19.2408 16.7369C19.2723 15.7699 19.444 14.8178 19.5546 13.8601Z" fill="#055EAB"/>
<path d="M46.7852 14.1461C47.0567 14.0432 47.3237 13.9263 47.596 13.8225C47.7714 14.3769 47.819 14.961 47.8361 15.5395C47.9476 16.1885 47.8999 16.8504 48.0087 17.5003V17.5179C47.7839 17.5439 47.5592 17.5726 47.3362 17.605C47.2931 17.6115 47.2068 17.6236 47.1636 17.6301C47.0297 16.4694 47.0189 15.2938 46.7852 14.1461Z" fill="#EAF3F9"/>
<path d="M26.0387 14.0081C26.1844 14.1137 26.3309 14.2194 26.4765 14.326C26.2437 15.0186 26.1178 15.7491 26.1016 16.4825C25.9254 16.4148 25.7501 16.3462 25.5757 16.2776C25.5631 16.2729 25.538 16.2627 25.5254 16.2581C25.6602 15.5007 25.7106 14.7145 26.0387 14.0081ZM41.0286 16.4584C41.2021 16.386 41.3765 16.3147 41.5518 16.2442C41.604 16.9581 41.5087 17.6682 41.4449 18.3774C41.5258 18.3737 41.6867 18.3663 41.7676 18.3626C41.6516 18.3784 41.5357 18.3941 41.4215 18.4099C41.266 18.4303 41.114 18.4581 40.9621 18.4878C40.9549 18.3469 40.9513 18.205 40.9504 18.0641C41.0071 17.531 41.0448 16.9951 41.0286 16.4584ZM26.1025 20.316C26.2599 20.2965 26.4181 20.278 26.5763 20.2594C26.7112 20.8203 26.8604 21.3766 27.0276 21.9282C26.8784 21.9857 26.7291 22.0432 26.5799 22.1007C26.4163 21.5073 26.2131 20.9232 26.1025 20.316ZM37.8767 27.6298C38.2256 26.9011 38.5447 26.1567 38.8468 25.4057C38.9519 25.5374 39.0616 25.6644 39.174 25.7905L39.1722 25.796C38.8513 26.5646 38.5096 27.323 38.1383 28.0674L38.1339 28.0767C38.0502 27.9256 37.9657 27.7763 37.8767 27.6298Z" fill="#ADB6BE"/>
<path d="M31.4759 14.8355C32.5925 13.824 34.3869 13.7888 35.5475 14.7409C36.2163 15.3083 36.6757 16.1269 36.753 17.0225C36.584 16.9502 36.4231 16.8612 36.2757 16.7508C36.059 15.6235 35.1231 14.7047 34.0273 14.5138C32.908 14.3024 31.715 14.9124 31.1604 15.9276C30.9383 16.316 30.8448 16.761 30.7846 17.2023C30.6758 17.2144 30.5706 17.2311 30.4645 17.2468C30.443 17.1041 30.4205 16.9613 30.4043 16.8176C30.5149 16.049 30.9176 15.35 31.4759 14.8355Z" fill="#7EB1D3"/>
<path d="M40.6484 14.3081C40.8031 14.2116 40.9577 14.1152 41.1132 14.0188C41.4225 14.7123 41.507 15.4753 41.6023 16.2234L41.5519 16.2438C41.3766 16.3143 41.2022 16.3857 41.0287 16.458C41.0134 15.7265 40.8912 14.996 40.6484 14.3081Z" fill="#272830"/>
<path d="M31.16 15.928C31.7146 14.9128 32.9076 14.3028 34.0269 14.5141C35.1227 14.7051 36.0586 15.6239 36.2753 16.7512C36.287 16.8996 36.2932 17.0488 36.3013 17.1971C34.9421 17.1693 33.5828 17.0905 32.2235 17.1545C31.7443 17.1823 31.2642 17.1953 30.7842 17.2027C30.8444 16.7614 30.9379 16.3164 31.16 15.928Z" fill="#DAEAF2"/>
<path d="M36.2756 16.7512C36.4231 16.8615 36.584 16.9505 36.753 17.0229C36.7737 17.1091 36.7962 17.1944 36.8213 17.2797C37.02 17.3112 37.2205 17.3455 37.421 17.3761C37.5028 17.4883 37.5792 17.6079 37.679 17.7061C37.9469 17.8322 38.2687 17.7868 38.5222 17.9574C38.1015 17.936 37.6853 17.8758 37.2681 17.8192C37.1027 17.8025 36.9373 17.7914 36.7728 17.7812C36.7063 18.1113 36.6173 18.4367 36.4923 18.7482C36.3503 18.6861 36.21 18.6249 36.0689 18.5628C36.1974 18.3004 36.2631 18.0102 36.2613 17.7163C35.3083 17.6264 34.3518 17.5902 33.3952 17.5698C32.543 17.6264 31.6827 17.6023 30.8367 17.7414C30.8933 18.1085 30.985 18.4765 31.1837 18.7908C31.0453 18.8622 30.9068 18.9336 30.7693 19.0059C30.5616 18.6212 30.451 18.1947 30.3431 17.7729C29.7678 17.8109 29.2041 17.9527 28.627 17.9639C28.9173 17.7803 29.2697 17.8035 29.588 17.7098C29.7471 17.6598 29.8073 17.4771 29.9026 17.3548C30.0429 17.3316 30.1822 17.3038 30.3234 17.2787C30.3494 17.1248 30.3764 16.9719 30.4043 16.818C30.4205 16.9617 30.4429 17.1044 30.4645 17.2472C30.5706 17.2315 30.6758 17.2148 30.7846 17.2027C31.2646 17.1953 31.7447 17.1823 32.2238 17.1545C33.5831 17.0905 34.9424 17.1693 36.3017 17.1972C36.2936 17.0488 36.2873 16.8996 36.2756 16.7512Z" fill="#99C1DC"/>
<path d="M28.8992 17.4873C29.2318 17.4308 29.5689 17.4011 29.9033 17.3547C29.808 17.4771 29.7478 17.6598 29.5887 17.7098C29.2704 17.8034 28.918 17.7803 28.6277 17.9638C28.5998 17.9768 28.5432 18.0037 28.5153 18.0167C28.1719 18.0992 27.8258 18.1632 27.4787 18.2225C27.0517 18.2753 26.6292 18.3755 26.2408 18.5692C26.2372 18.5461 26.2309 18.4997 26.2273 18.4765C26.2085 18.3421 26.1932 18.2077 26.1797 18.0723C26.5842 17.987 26.9861 17.8887 27.387 17.7849C27.8869 17.6672 28.3921 17.5745 28.8992 17.4873Z" fill="#7FB1D3"/>
<path d="M37.4209 17.376C37.6978 17.4158 37.9765 17.4464 38.2534 17.4909C38.7604 17.5734 39.2656 17.6736 39.7682 17.7867C40.1602 17.8868 40.5539 17.9823 40.9504 18.0639C40.9513 18.2048 40.9549 18.3466 40.9621 18.4876C40.9441 18.4903 40.9081 18.4968 40.8892 18.4996C40.4802 18.4292 40.0927 18.2521 39.6729 18.2428C39.3331 18.1705 38.9906 18.1112 38.6534 18.0277C38.6211 18.0101 38.5554 17.9749 38.5222 17.9573C38.2687 17.7867 37.9468 17.8321 37.6789 17.706C37.5791 17.6078 37.5027 17.4882 37.4209 17.376Z" fill="#85B5D5"/>
<path d="M48.0088 17.5004C48.0798 17.493 48.2219 17.4791 48.292 17.4717C48.3369 18.6862 48.3459 19.9044 48.2776 21.1179C48.2129 21.1096 48.0852 21.091 48.0205 21.0827C47.998 19.8951 48.0295 18.7066 48.0097 17.518V17.5004H48.0088Z" fill="#169955"/>
<path d="M19.6509 17.5845C19.7956 17.603 19.9386 17.6216 20.0833 17.642C20.0905 18.0221 20.0977 18.4031 20.0716 18.7832C20.0267 19.5212 20.1184 20.2582 20.0995 20.9952C20.0446 20.999 19.935 21.0064 19.8801 21.0101C19.8262 20.9999 19.7174 20.9776 19.6635 20.9665C19.6095 19.8392 19.614 18.7127 19.6509 17.5845Z" fill="#E63827"/>
<path d="M30.8369 17.7416C31.6829 17.6025 32.5432 17.6266 33.3955 17.5701C34.352 17.5905 35.3085 17.6266 36.2615 17.7165C36.2633 18.0104 36.1976 18.3006 36.0691 18.563C35.6178 19.4919 34.7008 20.2076 33.6688 20.2151C32.661 20.28 31.6928 19.6718 31.1839 18.791C30.9853 18.4768 30.8936 18.1087 30.8369 17.7416Z" fill="#DBEAF2"/>
<path d="M46.6139 17.7016C46.7964 17.6766 46.9798 17.6562 47.1632 17.6303C47.2064 17.6238 47.2927 17.6117 47.3358 17.6052C47.3682 17.633 47.432 17.6887 47.4644 17.7165C47.4779 18.0178 47.5426 18.3154 47.5354 18.6176C47.4374 19.4149 47.4878 20.2206 47.494 21.0216C47.4293 21.0141 47.3017 20.9993 47.2378 20.9919C47.0131 20.9669 46.7892 20.9409 46.5663 20.9149C46.5061 20.9075 46.3865 20.8945 46.3271 20.8871C46.4 20.8714 46.5456 20.838 46.6184 20.8213C46.6706 20.4152 46.6661 20.0064 46.6553 19.5985C46.6337 18.9662 46.7074 18.3311 46.6139 17.7016Z" fill="#3BAE6B"/>
<path d="M47.3359 17.605C47.5589 17.5725 47.7836 17.5438 48.0093 17.5178C48.0291 18.7064 47.9976 19.8949 48.0201 21.0825C47.9886 21.0788 47.9266 21.0704 47.8951 21.0667C47.7612 21.051 47.6263 21.0361 47.4942 21.0213C47.4879 20.2203 47.4375 19.4147 47.5355 18.6174C47.5427 18.3151 47.478 18.0175 47.4645 17.7162C47.4321 17.6884 47.3683 17.6328 47.3359 17.605Z" fill="#5BB77A"/>
<path d="M20.0828 17.6418C20.2168 17.6595 20.3516 17.678 20.4865 17.6965C20.5009 17.6984 20.5287 17.7021 20.5422 17.704C20.5045 18.3882 20.5503 19.0714 20.5431 19.7547C20.5503 20.1376 20.6465 20.5344 20.5126 20.9052C20.5656 20.9089 20.6726 20.9163 20.7256 20.92C20.5161 20.9442 20.3076 20.9738 20.099 20.9951C20.1179 20.2581 20.0262 19.5211 20.0711 18.7831C20.0972 18.403 20.09 18.022 20.0828 17.6418Z" fill="#E51E1C"/>
<path d="M28.627 17.9637C29.2042 17.9526 29.7679 17.8107 30.3432 17.7727C30.4511 18.1945 30.5617 18.621 30.7693 19.0057C31.0336 19.5713 31.5209 19.9727 32.0243 20.3018C31.8436 20.7505 32.0495 21.2298 31.9362 21.6869C31.8688 22.0142 31.9416 22.3461 31.9452 22.6752C31.9704 23.1359 31.912 23.6004 31.9731 24.0593C32.0001 24.2902 32.2851 24.2781 32.4244 24.4107C32.4424 24.5034 32.4478 24.598 32.4586 24.6925C32.5907 24.7259 32.7256 24.7593 32.8586 24.7945C32.971 25.0782 33.2389 25.1932 33.5104 25.2506C33.5958 25.5111 33.8421 25.5473 34.0705 25.5019C34.1667 25.0059 34.7402 24.8464 34.8535 24.3606C35.2104 24.2373 35.1376 23.7979 35.1457 23.4901C35.1124 22.9385 35.1798 22.3859 35.1331 21.8352C35.089 21.33 35.2086 20.8182 35.0773 20.3194C35.6752 19.944 36.2371 19.4387 36.4924 18.748C36.6173 18.4365 36.7063 18.1111 36.7729 17.781C36.9374 17.7912 37.1028 17.8024 37.2682 17.8191C37.2089 18.1695 37.2295 18.5246 37.2484 18.8778C37.2655 19.1281 37.1325 19.3654 37.1729 19.6158C37.3176 20.5391 37.1702 21.4746 37.2421 22.4017C37.279 22.7558 37.0767 23.1628 37.3338 23.466C37.1918 24.0482 37.0291 24.6248 36.8502 25.1959C36.8133 25.1644 36.7405 25.1004 36.7036 25.0689C36.5472 25.5436 36.1912 25.8922 35.9071 26.2853C35.3228 27.0075 34.7097 27.7167 33.9707 28.2748C32.8029 27.9596 31.7897 27.192 30.9878 26.2779C30.8538 26.0118 30.6363 25.8162 30.416 25.6289C29.6465 23.1675 29.0343 20.6337 28.8886 18.0434C28.7637 18.0332 28.6387 18.0239 28.5146 18.0165C28.5425 18.0036 28.5992 17.9767 28.627 17.9637Z" fill="#CDE2EF"/>
<path d="M41.7678 18.3624C43.3833 18.1399 44.9997 17.9267 46.6143 17.7014C46.7078 18.3309 46.6341 18.966 46.6557 19.5982C46.6665 20.0062 46.671 20.415 46.6188 20.8211C46.546 20.8378 46.4004 20.8711 46.3276 20.8869C44.5673 20.695 42.8098 20.4883 41.0495 20.2954C41.0325 20.2936 40.9974 20.2899 40.9803 20.288C41.0603 20.1693 41.1331 20.0433 41.1565 19.8986C41.2599 19.4054 41.3561 18.9103 41.4217 18.4097C41.5359 18.394 41.6519 18.3782 41.7678 18.3624ZM20.9668 24.2059C22.8376 23.5032 24.7093 22.8023 26.5801 22.1005C26.7806 22.6929 26.9856 23.2844 27.1897 23.8749C25.451 25.0709 23.7123 26.265 21.9773 27.4646C21.4118 26.4699 21.2841 25.2952 20.9668 24.2059ZM38.1341 28.0765L38.1386 28.0672C39.0951 29.9122 40.0876 31.7376 41.0585 33.5751C40.494 33.9598 39.8898 34.2704 39.3145 34.6348C39.0007 34.8369 38.5971 34.8128 38.3103 35.0668L38.268 35.0955C37.7592 33.8792 37.067 32.6656 37.0814 31.3C37.0993 30.1374 37.6612 29.0982 38.1341 28.0765Z" fill="#1CA75E"/>
<path d="M26.2402 18.5694C26.6286 18.3756 27.0511 18.2755 27.4782 18.2227C27.3972 18.2774 27.3172 18.333 27.239 18.3895C27.364 19.2202 27.5114 20.0462 27.6616 20.8732C27.5204 21.2487 27.6777 21.6427 27.631 22.0293C27.5896 22.3807 27.6894 22.7413 27.6076 23.0862C27.5672 23.114 27.4862 23.1715 27.4458 23.2002C27.2957 22.7802 27.1581 22.3547 27.0278 21.9282C26.8605 21.3766 26.7113 20.8204 26.5765 20.2595C26.4398 19.7023 26.3373 19.1358 26.2402 18.5694Z" fill="#ADD0E8"/>
<path d="M39.6732 18.2429C40.0931 18.2522 40.4805 18.4293 40.8896 18.4997C40.8222 19.0875 40.6972 19.6669 40.5624 20.2427C40.4284 20.8026 40.2729 21.357 40.1084 21.9086C39.987 22.3129 39.8584 22.7143 39.7155 23.1111C39.5033 22.7115 39.6292 22.2489 39.6202 21.8187C39.6058 21.4674 39.6966 21.078 39.4854 20.7692C39.6319 19.9571 39.8072 19.1459 39.8764 18.3217C39.8261 18.3023 39.7245 18.2624 39.6732 18.2429Z" fill="#ABCFE7"/>
<path d="M40.9623 18.4873C41.1142 18.4576 41.2661 18.4298 41.4217 18.4094C41.356 18.9101 41.2598 19.4051 41.1565 19.8983C41.1331 20.043 41.0603 20.169 40.9803 20.2877C40.84 20.272 40.7007 20.2571 40.5622 20.2423C40.6971 19.6666 40.822 19.0871 40.8895 18.4994C40.9083 18.4966 40.9443 18.4901 40.9623 18.4873ZM26.5801 22.1002C26.7293 22.0427 26.8785 21.9852 27.0278 21.9277C27.1581 22.3542 27.2957 22.7797 27.4458 23.1997C27.4917 23.3314 27.5384 23.4639 27.587 23.5956C27.4539 23.6892 27.3218 23.7819 27.1896 23.8746C26.9855 23.2841 26.7806 22.6926 26.5801 22.1002ZM37.8769 27.6294C37.9659 27.7758 38.0504 27.9251 38.134 28.0762C37.6611 29.0979 37.0993 30.1371 37.0813 31.2997C37.0669 32.6653 37.7591 33.8789 38.268 35.0952C38.1214 35.1944 37.9776 35.2964 37.8364 35.4021C37.4643 34.6623 37.1056 33.9113 36.8359 33.1233C36.4987 32.2129 36.4448 31.1913 36.7298 30.2586C37.0058 29.3361 37.4768 28.4962 37.8769 27.6294Z" fill="#118D4E"/>
<path d="M33.6688 20.2148C34.7009 20.2074 35.6178 19.4917 36.0691 18.5627C36.2103 18.6249 36.3505 18.686 36.4926 18.7482C36.2372 19.4388 35.6754 19.9441 35.0775 20.3196C34.1327 20.8174 32.9622 20.8193 32.0245 20.302C31.5211 19.9729 31.0338 19.5714 30.7695 19.0059C30.9071 18.9336 31.0455 18.8622 31.184 18.7908C31.6928 19.6715 32.661 20.2797 33.6688 20.2148Z" fill="#B0D0E6"/>
<path d="M31.9357 21.6868C32.049 21.2298 31.8431 20.7505 32.0238 20.3018C32.9615 20.8191 34.132 20.8172 35.0768 20.3194C35.2081 20.8181 35.0885 21.3299 35.1326 21.8352C35.1793 22.3859 35.1119 22.9384 35.1452 23.49C35.1371 23.7978 35.2099 24.2373 34.853 24.3606C34.7397 24.8464 34.1662 25.0058 34.07 25.5018C33.8416 25.5472 33.5953 25.5111 33.5099 25.2506C33.2384 25.1931 32.9705 25.0781 32.8581 24.7945C32.7251 24.7592 32.5902 24.7258 32.4581 24.6925C32.4473 24.5979 32.4419 24.5033 32.4239 24.4106C32.2846 24.2781 31.9996 24.2901 31.9726 24.0593C31.9115 23.6004 31.9699 23.1359 31.9447 22.6751C31.9411 22.346 31.8683 22.0141 31.9357 21.6868Z" fill="#DCEBF2"/>
<path d="M27.6611 20.873C28.1178 22.9488 28.7129 24.9958 29.522 26.9566C30.0524 28.3399 30.759 29.6665 31.0611 31.1304C30.8912 31.0664 30.7213 31.0015 30.5523 30.9376C30.3671 29.7277 29.7297 28.6708 29.2307 27.5806C28.8945 26.8704 28.5843 26.1482 28.2877 25.4204C28.0422 24.8169 27.8094 24.2087 27.5865 23.5959C27.5379 23.4643 27.4912 23.3317 27.4453 23.2001C27.4858 23.1713 27.5667 23.1138 27.6071 23.086C27.6889 22.7411 27.5892 22.3805 27.6305 22.0291C27.6773 21.6425 27.5199 21.2485 27.6611 20.873Z" fill="#B7D6EA"/>
<path d="M46.5669 20.9148C46.7898 20.9408 47.0137 20.9667 47.2384 20.9917C47.18 21.9661 47.0901 22.9396 46.9426 23.9047C46.913 24.079 46.841 24.2412 46.7799 24.4062C46.6226 24.3478 46.4671 24.2903 46.3124 24.2319L46.2324 24.2013C46.3583 23.1064 46.4904 22.0143 46.5669 20.9148Z" fill="#E6251F"/>
<path d="M18.8506 21.1251C18.9144 21.1214 19.0421 21.113 19.1059 21.1084C19.0717 21.2308 19.0619 21.3578 19.078 21.4829C19.1751 22.5714 19.2569 23.669 19.488 24.7361L19.5024 24.7871C19.4466 24.7908 19.336 24.7973 19.2803 24.801C19.0385 23.5902 18.9207 22.3572 18.8506 21.1251Z" fill="#A8C3D2"/>
<path d="M19.1058 21.1086C19.1435 21.1039 19.2199 21.0937 19.2577 21.0891C19.2793 22.0894 19.4276 23.0814 19.5553 24.0716C19.5813 24.2802 19.647 24.4795 19.7144 24.6779C19.638 24.6983 19.5634 24.7178 19.4878 24.7363C19.2568 23.6692 19.175 22.5715 19.0779 21.4831C19.0617 21.358 19.0716 21.231 19.1058 21.1086Z" fill="#CEDBE5"/>
<path d="M19.2578 21.0892C19.47 21.066 19.6821 21.0465 19.8952 21.0261C20.0094 21.2523 20.0274 21.5082 20.0292 21.7576C20.0453 22.6569 20.1982 23.545 20.3735 24.4239C20.1523 24.5055 19.9357 24.5982 19.7145 24.6779C19.6471 24.4795 19.5815 24.2802 19.5554 24.0716C19.4277 23.0815 19.2794 22.0895 19.2578 21.0892Z" fill="#ECF4F9"/>
<path d="M27.5869 23.5957C27.8098 24.2085 28.0427 24.8167 28.2881 25.4202C28.1811 25.5435 28.0741 25.6678 27.9654 25.7892C26.4398 27.4923 24.9312 29.2102 23.4038 30.9105C23.2861 31.044 23.1719 31.1793 23.0559 31.3128C22.7503 30.8428 22.4419 30.3746 22.2046 29.8629C21.8036 29.2704 21.7002 28.5232 21.2705 27.9493C21.3334 27.9048 21.3973 27.8622 21.4611 27.8195C21.6337 27.7018 21.8054 27.5831 21.9771 27.4645C23.7122 26.2648 25.4509 25.0707 27.1895 23.8748C27.3217 23.782 27.4538 23.6893 27.5869 23.5957Z" fill="#20232B"/>
<path d="M20.5146 24.372C20.6648 24.3173 20.8158 24.2617 20.9668 24.2061C21.2842 25.2954 21.4118 26.47 21.9773 27.4648C21.8056 27.5835 21.6339 27.7021 21.4613 27.8199C20.9938 26.7231 20.7007 25.5513 20.5146 24.372Z" fill="#2FAB65"/>
<path d="M46.3118 24.2319C46.4665 24.2903 46.622 24.3478 46.7793 24.4062C47.0247 24.4962 47.2693 24.5889 47.5156 24.6816L47.5309 24.6881C47.2864 25.9471 46.9654 27.1949 46.4979 28.3872C46.3334 28.2741 46.1698 28.161 46.0062 28.0488C45.8147 27.9162 45.6241 27.7836 45.4326 27.6529C45.5441 27.1504 45.7626 26.6813 45.8668 26.176C45.9352 25.872 46.1275 25.605 46.1347 25.286C46.1527 24.9282 46.2273 24.5777 46.3118 24.2319Z" fill="#065EAB"/>
<path d="M20.3728 24.424C20.4079 24.411 20.478 24.385 20.514 24.3721C20.7001 25.5513 20.9931 26.7232 21.4606 27.8199C21.3968 27.8626 21.3329 27.9052 21.27 27.9497C21.0246 28.1203 20.7783 28.2909 20.5319 28.4596C20.0483 27.2813 19.8047 26.0214 19.5017 24.7874L19.4873 24.7364C19.5628 24.7179 19.6374 24.6984 19.7139 24.678C19.935 24.5983 20.1517 24.5056 20.3728 24.424Z" fill="#4FB474"/>
<path d="M19.2803 24.801C19.336 24.7973 19.4466 24.7908 19.5023 24.7871C19.8053 26.0211 20.0489 27.281 20.5326 28.4593C20.4553 28.5131 20.3788 28.5659 20.3033 28.6206C19.8493 27.383 19.5212 26.0999 19.2803 24.801Z" fill="#159653"/>
<path d="M35.9071 26.2854C36.1912 25.8923 36.5472 25.5438 36.7036 25.0691C36.7405 25.1006 36.8133 25.1646 36.8502 25.1961C36.3314 27.0373 35.7246 28.8609 35.4109 30.755C35.3785 30.6344 35.3452 30.5148 35.3111 30.3962C34.9101 30.5621 34.6045 30.8996 34.1792 31.0164C34.0174 31.0164 33.8691 31.0896 33.7144 31.1249C33.5068 31.1008 33.3557 30.9153 33.149 30.8912C32.6078 30.83 32.1331 30.5232 31.6476 30.2923C31.3321 28.7126 30.8493 27.1764 30.416 25.6291C30.6363 25.8163 30.8538 26.0119 30.9878 26.278C31.7897 27.1921 32.8029 27.9598 33.9707 28.275C34.7096 27.7169 35.3228 27.0076 35.9071 26.2854Z" fill="#BED9EC"/>
<path d="M20.533 28.4594C20.7793 28.2906 21.0256 28.12 21.271 27.9495C21.7008 28.5233 21.8041 29.2706 22.2051 29.863C22.4424 30.3747 22.7508 30.8429 23.0564 31.313C22.9863 31.3927 22.9153 31.4715 22.8452 31.5512C22.7211 31.6903 22.5962 31.8284 22.4712 31.9666C22.3678 32.0806 22.2653 32.1937 22.1637 32.3087C21.396 31.1665 20.7784 29.9205 20.3037 28.6207C20.3792 28.566 20.4556 28.5131 20.533 28.4594Z" fill="#2D2E36"/>
<path d="M46.007 28.0486C46.1706 28.1608 46.3342 28.2739 46.4987 28.387C46.5293 28.4083 46.5904 28.45 46.621 28.4704C46.2929 29.2 45.9908 29.9417 45.6141 30.6463C45.3696 31.1534 45.0253 31.6003 44.7816 32.1083C44.7385 32.0601 44.6971 32.0119 44.6558 31.9656C44.5245 31.8191 44.3951 31.6717 44.2656 31.5252C44.9965 30.4562 45.58 29.2798 46.007 28.0486Z" fill="#FFDE5A"/>
<path d="M46.6206 28.4705C46.6736 28.5066 46.7815 28.5799 46.8355 28.616C46.3626 29.9251 45.7369 31.1729 44.9691 32.3225C44.9224 32.2688 44.828 32.1621 44.7812 32.1084C45.0249 31.6003 45.3692 31.1535 45.6137 30.6463C45.9904 29.9418 46.2925 29.2001 46.6206 28.4705Z" fill="#FCBD33"/>
<path d="M36.2648 30.3664C36.3547 30.3136 36.4464 30.2616 36.5381 30.2097C36.5857 30.2218 36.6819 30.2459 36.7295 30.2589C36.4446 31.1915 36.4985 32.2132 36.8356 33.1236C36.6055 33.1236 36.3807 33.1681 36.1569 33.2126C35.8728 32.2818 35.9708 31.2796 36.2648 30.3664Z" fill="#ACD0E7"/>
<path d="M31.6476 30.2922C32.1331 30.5231 32.6077 30.8299 33.1489 30.8911C33.3557 30.9152 33.5067 31.1007 33.7144 31.1248C33.869 31.0895 34.0174 31.0163 34.1792 31.0163C34.6044 30.8995 34.9101 30.562 35.311 30.3961C35.3452 30.5147 35.3784 30.6343 35.4108 30.7549C35.2957 31.5688 35.2733 32.4051 35.4117 33.2172C35.5654 34.0442 35.8181 34.847 36.1084 35.6332C35.8405 35.6842 35.569 35.7139 35.2975 35.712C35.2661 35.7445 35.2049 35.8103 35.1735 35.8427C35.1339 35.6833 35.0917 35.5257 35.0494 35.3681C34.964 35.0603 34.8723 34.7534 34.7689 34.4521C34.5783 33.919 34.3779 33.3414 33.9275 32.9808C33.6721 32.7685 33.282 32.8519 33.0734 33.0921C32.7381 33.4546 32.5538 33.9292 32.3785 34.3881C32.2248 34.8081 32.1322 35.2475 32.0423 35.6851C32.0216 35.7065 31.9793 35.75 31.9587 35.7714L31.973 35.7074C31.6557 35.8752 31.3105 35.6036 30.9814 35.7454C31.2871 34.9342 31.5532 34.1054 31.715 33.2506C31.8912 32.2725 31.8256 31.2648 31.6476 30.2922Z" fill="#ACD0E8"/>
<path d="M23.056 31.3132C23.172 31.1797 23.2861 31.0444 23.4039 30.9109C23.4264 31.2743 23.8058 31.3902 23.9208 31.7119C24.5357 32.4322 25.1659 33.1971 26.0029 33.6467C25.958 33.732 25.913 33.8183 25.8681 33.9045C25.7916 34.0491 25.7125 34.1919 25.6361 34.3365C25.6181 34.3689 25.584 34.4348 25.566 34.4672C25.3323 34.3532 25.1066 34.2141 24.9205 34.0278C24.489 33.5438 23.9631 33.1582 23.5792 32.6288C23.3293 32.2746 22.9175 32.0113 22.8447 31.5515C22.9148 31.4718 22.9859 31.393 23.056 31.3132Z" fill="#E63225"/>
<path d="M30.5531 30.9375C30.7221 31.0015 30.892 31.0664 31.0619 31.1303C31.1689 31.7348 31.1806 32.3643 31.034 32.9632C30.8156 33.8986 30.5216 34.8183 30.1126 35.6851C29.7853 35.7 29.4581 35.712 29.1309 35.7287C29.2064 35.5832 29.281 35.4376 29.3547 35.2921C30.002 33.9413 30.7733 32.4997 30.5531 30.9375Z" fill="#A6CCE6"/>
<path d="M44.6555 31.9656C44.6969 32.0119 44.7382 32.0601 44.7814 32.1083C44.8281 32.1621 44.9225 32.2687 44.9693 32.3225C44.1755 33.511 43.1911 34.5781 42.0511 35.4171C42.0179 35.3597 41.9522 35.2447 41.9199 35.1872C41.8812 35.1205 41.8444 35.0537 41.8084 34.987L41.7949 34.961C42.3002 34.6662 42.7047 34.2249 43.1488 33.8457C43.6909 33.2561 44.2357 32.6563 44.6555 31.9656Z" fill="#B6CBD9"/>
<path d="M33.0729 33.0921C33.2814 32.852 33.6716 32.7685 33.9269 32.9809C34.3773 33.3415 34.5778 33.9191 34.7684 34.4521C34.2856 34.5801 33.7948 34.4151 33.3075 34.4661C32.9955 34.4976 32.68 34.4763 32.3779 34.3882C32.5532 33.9293 32.7375 33.4546 33.0729 33.0921Z" fill="#D1E4F0"/>
<path d="M36.1572 33.2125C36.3811 33.168 36.6058 33.1235 36.836 33.1235C37.1057 33.9116 37.4644 34.6625 37.8366 35.4023C37.9166 35.5636 37.9993 35.724 38.0838 35.8835C38.117 35.9465 38.1512 36.0096 38.1863 36.0726C37.8824 36.0976 37.583 36.1561 37.2837 36.2126C36.7748 35.2725 36.4278 34.249 36.1572 33.2125Z" fill="#A4CBE5"/>
<path d="M26.003 33.6454C26.0237 33.6055 26.065 33.5267 26.0857 33.4868C26.5397 33.7844 26.9883 34.0941 27.463 34.3564C27.9493 34.5363 28.3854 34.8274 28.8645 35.0258C28.8492 35.0564 28.8196 35.1166 28.8052 35.1472C28.7477 35.2613 28.691 35.3753 28.6344 35.4884C27.6671 35.061 26.6467 34.6559 25.8682 33.9031C25.9131 33.8169 25.9581 33.7306 26.003 33.6454Z" fill="#FFD817"/>
<path d="M39.3147 34.6339C39.8901 34.2695 40.4942 33.959 41.0588 33.5742C41.1595 33.7606 41.2593 33.9478 41.3591 34.1351C41.4364 34.2825 41.5137 34.4299 41.5919 34.5773C40.7262 35.1883 39.7921 35.6843 38.8302 36.1117C38.7475 35.9606 38.663 35.8113 38.5847 35.6593C38.4841 35.4655 38.396 35.2662 38.3105 35.0659C38.5973 34.8119 39.001 34.836 39.3147 34.6339Z" fill="#3DAF6C"/>
<path d="M25.6367 34.3366C25.7131 34.1919 25.7922 34.0492 25.8687 33.9045C26.6472 34.6573 27.6676 35.0625 28.6349 35.4899C28.6151 35.5288 28.5755 35.6048 28.5558 35.6428C28.5063 35.7355 28.4587 35.8283 28.4101 35.921C27.9975 35.6623 27.5228 35.5381 27.103 35.2924C26.6013 34.9957 26.0862 34.7148 25.6367 34.3366Z" fill="#FFDB34"/>
<path d="M25.566 34.4667C25.5839 34.4342 25.6181 34.3684 25.6361 34.3359C26.0856 34.7142 26.6007 34.9951 27.1024 35.2918C27.5222 35.5374 27.9969 35.6617 28.4095 35.9203C28.28 36.1679 28.147 36.4136 28.0085 36.6565C27.2012 36.383 26.4704 35.9268 25.7422 35.4828C25.5534 35.3752 25.4006 35.2167 25.2666 35.0442C25.3655 34.8514 25.4644 34.6586 25.566 34.4667Z" fill="#FFDE57"/>
<path d="M32.042 35.6852C32.1319 35.2476 32.2245 34.8082 32.3782 34.3882C32.6803 34.4763 32.9958 34.4976 33.3078 34.4661C33.795 34.4151 34.2859 34.5801 34.7687 34.4522C34.872 34.7535 34.9637 35.0603 35.0491 35.3681C35.0132 35.4859 35.0285 35.7223 34.8388 35.6657C34.4279 35.6333 34.0171 35.6972 33.6071 35.6537C33.0839 35.675 32.5616 35.5869 32.042 35.6852Z" fill="#C7DEED"/>
<path d="M38.8301 36.1125C39.792 35.6851 40.7261 35.1891 41.5918 34.5781C41.6592 34.7051 41.7258 34.8321 41.795 34.961L41.8085 34.987C40.914 35.5571 40.015 36.1329 39.0225 36.5065C38.9631 36.372 38.8993 36.2404 38.8301 36.1125Z" fill="#5CB77B"/>
<path d="M25.2495 35.0244L25.2666 35.0448C25.4005 35.2172 25.5533 35.3758 25.7421 35.4833C26.4703 35.9274 27.2012 36.3835 28.0085 36.657C27.9689 36.7701 27.9303 36.8842 27.8916 36.9982C26.8955 36.5986 25.9453 36.072 25.085 35.4175C25.1389 35.2859 25.1946 35.1551 25.2495 35.0244Z" fill="#FCBB2F"/>
<path d="M41.8085 34.9873C41.8444 35.0541 41.8813 35.1208 41.9199 35.1876C41.038 35.7855 40.121 36.3409 39.1276 36.7182L39.08 36.6338C39.0656 36.6023 39.0368 36.5383 39.0225 36.5068C40.015 36.1332 40.914 35.5575 41.8085 34.9873Z" fill="#3AA868"/>
<path d="M28.8046 35.1472C28.9871 35.1964 29.1696 35.2436 29.3539 35.2909C29.2802 35.4365 29.2056 35.582 29.13 35.7276C29.1148 35.7563 29.0851 35.8138 29.0698 35.8425C28.9035 35.76 28.7318 35.6933 28.5547 35.6414C28.5745 35.6033 28.614 35.5273 28.6338 35.4884C28.6904 35.3753 28.7471 35.2612 28.8046 35.1472Z" fill="#CCAA24"/>
<path d="M38.2675 35.0954L38.3097 35.0667C38.3951 35.2669 38.4832 35.4662 38.5839 35.66C38.4203 35.7425 38.2531 35.8167 38.0832 35.8834C37.9987 35.724 37.9159 35.5636 37.8359 35.4023C37.9771 35.2966 38.1209 35.1946 38.2675 35.0954Z" fill="#2D9059"/>
<path d="M39.1279 36.7179C40.1213 36.3406 41.0383 35.7852 41.9202 35.1873C41.9526 35.2447 42.0182 35.3597 42.0515 35.4172C41.2055 36.0355 40.2966 36.564 39.3311 36.9552C39.261 36.8764 39.1927 36.7985 39.1279 36.7179Z" fill="#139352"/>
<path d="M35.05 35.3684C35.0923 35.526 35.1345 35.6836 35.1741 35.8431C35.264 36.2093 35.3215 36.5838 35.3862 36.9565C35.424 37.1864 35.4357 37.4191 35.4465 37.6528C34.5888 37.7974 33.7195 37.7529 32.8547 37.7594C32.4681 37.7575 32.0851 37.6908 31.7021 37.6472C31.721 37.0149 31.8262 36.3882 31.9593 35.7717C31.9799 35.7504 32.0222 35.7068 32.0429 35.6855C32.5625 35.5872 33.0848 35.6753 33.608 35.654C34.018 35.6975 34.4288 35.6336 34.8397 35.666C35.0293 35.7226 35.0141 35.4861 35.05 35.3684Z" fill="#B4D0E4"/>
<path d="M28.5554 35.6426C28.7325 35.6945 28.9042 35.7612 29.0705 35.8438C28.8835 36.2109 28.6606 36.5585 28.5059 36.9424C28.3549 36.8218 28.1877 36.7245 28.0088 36.6568C28.1472 36.4139 28.2803 36.1682 28.4097 35.9207C28.4583 35.828 28.5059 35.7353 28.5554 35.6426Z" fill="#CBAE45"/>
<path d="M30.982 35.7455C31.3111 35.6037 31.6563 35.8753 31.9736 35.7075L31.9592 35.7715C31.8262 36.388 31.721 37.0147 31.7021 37.647C32.0851 37.6906 32.4681 37.7573 32.8546 37.7592C33.7195 37.7527 34.5888 37.7972 35.4465 37.6526C35.4357 37.419 35.424 37.1862 35.3862 36.9563C35.8303 36.9591 36.2744 36.9591 36.7194 36.961C36.9172 37.3012 37.0395 37.6804 37.1033 38.0707C34.7776 38.5222 32.3629 38.5231 30.0381 38.0716C30.1298 37.2122 30.7303 36.5503 30.982 35.7455Z" fill="#96BEDC"/>
<path d="M35.2979 35.7119C35.5694 35.7137 35.8409 35.684 36.1088 35.6331C36.2778 36.091 36.4873 36.5323 36.7192 36.9607C36.2742 36.9588 35.8301 36.9588 35.386 36.956C35.3213 36.5833 35.2637 36.2088 35.1738 35.8426C35.2053 35.8101 35.2664 35.7443 35.2979 35.7119Z" fill="#9DC5E0"/>
<path d="M38.5847 35.6604C38.6629 35.8124 38.7474 35.9617 38.8302 36.1128C38.8994 36.2408 38.9632 36.3724 39.0225 36.5068C39.0369 36.5384 39.0657 36.6023 39.0801 36.6338C38.9093 36.6895 38.7385 36.746 38.5685 36.8026C38.4535 36.5523 38.3177 36.3131 38.1865 36.073C38.1514 36.0099 38.1172 35.9469 38.084 35.8838C38.2539 35.8171 38.4211 35.7429 38.5847 35.6604Z" fill="#429164"/>
<path d="M28.0085 36.6567C28.1874 36.7244 28.3546 36.8218 28.5056 36.9423C28.4867 37.0053 28.4499 37.1333 28.431 37.1972C28.2503 37.1314 28.0705 37.0674 27.8916 36.9979C27.9303 36.8839 27.9689 36.7698 28.0085 36.6567Z" fill="#CE922E"/>
<path d="M38.5684 36.8013C38.7383 36.7447 38.9091 36.6882 39.0799 36.6326L39.1275 36.7169C39.1923 36.7976 39.2606 36.8755 39.3307 36.9543C39.132 37.0349 38.9316 37.1119 38.732 37.1879C38.678 37.0581 38.625 36.9283 38.5684 36.8013Z" fill="#15844F"/>
</svg>
